<svg version="1.1" id="Layer_1" xmlns="http://www.w3.org/2000/svg" xmlns:xlink="http://www.w3.org/1999/xlink" x="0px" y="0px"
	 width="100%" viewBox="0 0 225 225" enable-background="new 0 0 225 225" xml:space="preserve">
<path fill="#FDFDFD" opacity="1.000000" stroke="none" 
	d="
M226.000000,51.000000 
	C226.000000,109.290909 226.000000,167.581818 226.000000,225.936371 
	C151.097015,225.936371 76.193954,225.936371 1.000000,225.936371 
	C1.000000,158.979385 1.000000,91.958351 1.368514,24.453451 
	C4.604686,25.240839 7.430818,27.483877 10.347475,27.608517 
	C20.790144,28.054764 31.263481,27.783342 41.366482,27.783342 
	C41.804859,28.454374 41.941887,28.578945 41.974960,28.726778 
	C49.666664,63.101330 57.393681,97.468239 64.887184,131.885986 
	C65.202072,133.332245 63.779510,135.846924 62.418919,136.849976 
	C56.068859,141.531372 52.606159,149.566605 54.240459,156.949677 
	C56.093601,165.321350 62.116283,171.107147 70.576706,172.284409 
	C74.022354,172.763870 77.542519,172.707748 80.904739,173.127472 
	C80.801666,173.533890 80.822632,173.708115 80.499954,173.954193 
	C72.131317,177.237900 67.621490,183.211975 67.056755,191.764984 
	C66.416451,201.462479 73.992981,210.636856 83.315117,212.029556 
	C93.560013,213.560104 102.673935,207.763718 105.510597,197.913422 
	C108.414185,187.830704 103.397820,178.280594 92.926712,173.703003 
	C92.909172,173.166153 92.927589,172.951096 93.417099,172.765259 
	C120.606575,172.799133 147.324966,172.803802 173.971100,173.087128 
	C173.905365,173.557617 173.911896,173.749420 173.570572,174.003021 
	C163.443573,178.645844 158.491714,187.289215 160.468048,196.327866 
	C162.527771,205.748062 170.649124,212.339188 180.083267,212.247208 
	C189.327316,212.157089 197.468933,205.382050 199.173737,196.361069 
	C201.024933,186.565582 195.913177,177.881393 185.987625,173.685867 
	C185.960571,173.171219 185.954010,172.965164 186.388123,172.782990 
	C188.661392,172.797150 190.504120,172.907471 192.324646,172.754028 
	C196.884232,172.369766 199.673264,169.747910 199.388931,166.008926 
	C199.046463,161.505936 196.199066,159.725128 191.965439,159.681976 
	C190.632553,159.668396 189.299469,159.673843 187.966476,159.673828 
	C151.142212,159.673401 114.317947,159.680771 77.493713,159.652969 
	C75.510231,159.651474 72.997726,160.048523 71.667801,159.033371 
	C69.678780,157.515121 67.425552,154.947617 67.344093,152.750076 
	C67.274040,150.860199 69.745461,148.310150 71.730736,147.086548 
	C73.361397,146.081512 75.928719,146.459549 78.081055,146.457901 
	C115.238541,146.429626 152.396057,146.444931 189.553558,146.431519 
	C197.226440,146.428757 198.154160,145.645111 200.291351,138.175598 
	C207.876587,111.665199 215.466965,85.156204 223.114456,58.663727 
	C223.869141,56.049351 225.028488,53.551785 226.000000,51.000000 
z"/>
<path fill="#050505" opacity="1.000000" stroke="none" 
	d="
M226.000000,50.583336 
	C225.028488,53.551785 223.869141,56.049351 223.114456,58.663727 
	C215.466965,85.156204 207.876587,111.665199 200.291351,138.175598 
	C198.154160,145.645111 197.226440,146.428757 189.553558,146.431519 
	C152.396057,146.444931 115.238541,146.429626 78.081055,146.457901 
	C75.928719,146.459549 73.361397,146.081512 71.730736,147.086548 
	C69.745461,148.310150 67.274040,150.860199 67.344093,152.750076 
	C67.425552,154.947617 69.678780,157.515121 71.667801,159.033371 
	C72.997726,160.048523 75.510231,159.651474 77.493713,159.652969 
	C114.317947,159.680771 151.142212,159.673401 187.966476,159.673828 
	C189.299469,159.673843 190.632553,159.668396 191.965439,159.681976 
	C196.199066,159.725128 199.046463,161.505936 199.388931,166.008926 
	C199.673264,169.747910 196.884232,172.369766 192.324646,172.754028 
	C190.504120,172.907471 188.661392,172.797150 186.103607,172.494980 
	C181.600082,172.391541 177.821716,172.600006 174.043365,172.808472 
	C147.324966,172.803802 120.606575,172.799133 93.125359,172.485031 
	C88.584618,172.415497 84.806702,172.655396 81.028786,172.895294 
	C77.542519,172.707748 74.022354,172.763870 70.576706,172.284409 
	C62.116283,171.107147 56.093601,165.321350 54.240459,156.949677 
	C52.606159,149.566605 56.068859,141.531372 62.418919,136.849976 
	C63.779510,135.846924 65.202072,133.332245 64.887184,131.885986 
	C57.393681,97.468239 49.666664,63.101330 41.974960,28.726778 
	C41.941887,28.578945 41.804859,28.454374 41.366482,27.783342 
	C31.263481,27.783342 20.790144,28.054764 10.347475,27.608517 
	C7.430818,27.483877 4.604686,25.240839 1.368514,23.984795 
	C1.000000,22.611111 1.000000,21.222221 1.336466,19.282467 
	C3.173647,15.250755 6.146143,14.642411 9.493032,14.648532 
	C21.320065,14.670160 33.147381,14.613583 44.974148,14.673326 
	C51.169571,14.704622 52.640816,16.027435 54.056610,22.279186 
	C55.471375,28.526375 56.898560,34.770748 58.326412,41.043205 
	C60.741631,41.043205 62.566460,41.043205 64.391289,41.043205 
	C114.864578,41.043240 165.337891,41.063084 215.811111,41.008076 
	C220.143158,41.003357 223.959061,41.561752 226.000000,46.000000 
	C226.000000,47.388889 226.000000,48.777779 226.000000,50.583336 
M127.499886,133.264221 
	C147.626450,133.264221 167.753006,133.264221 188.111816,133.264221 
	C195.659164,106.855156 203.120316,80.747696 210.631454,54.465309 
	C160.492905,54.465309 111.128342,54.465309 61.414146,54.465309 
	C61.656170,55.973076 61.777905,57.098011 62.021622,58.195869 
	C67.279045,81.878479 72.648033,105.537170 77.710602,129.261261 
	C78.451157,132.731628 79.906418,133.354309 83.028107,133.324738 
	C97.517593,133.187546 112.009094,133.264160 127.499886,133.264221 
z"/>
<path fill="#FDFDFD" opacity="1.000000" stroke="none" 
	d="
M226.000000,45.531342 
	C223.959061,41.561752 220.143158,41.003357 215.811111,41.008076 
	C165.337891,41.063084 114.864578,41.043240 64.391289,41.043205 
	C62.566460,41.043205 60.741631,41.043205 58.326412,41.043205 
	C56.898560,34.770748 55.471375,28.526375 54.056610,22.279186 
	C52.640816,16.027435 51.169571,14.704622 44.974148,14.673326 
	C33.147381,14.613583 21.320065,14.670160 9.493032,14.648532 
	C6.146143,14.642411 3.173647,15.250755 1.336466,18.865803 
	C1.000000,13.009127 1.000000,7.018253 0.999998,1.020535 
	C75.876785,1.013690 150.753586,1.013690 226.000000,1.013690 
	C226.000000,15.685493 226.000000,30.374088 226.000000,45.531342 
z"/>
<path fill="#050505" opacity="1.000000" stroke="none" 
	d="
M186.008133,173.994446 
	C195.913177,177.881393 201.024933,186.565582 199.173737,196.361069 
	C197.468933,205.382050 189.327316,212.157089 180.083267,212.247208 
	C170.649124,212.339188 162.527771,205.748062 160.468048,196.327866 
	C158.491714,187.289215 163.443573,178.645844 173.979599,174.058716 
	C178.493698,174.033249 182.250916,174.013855 186.008133,173.994446 
M173.217148,193.323593 
	C173.903976,194.619843 174.313095,196.691437 175.333328,197.056870 
	C177.726639,197.914078 180.990250,199.019821 182.818161,198.028076 
	C184.666519,197.025269 186.414032,193.366074 185.988831,191.334473 
	C185.558914,189.280273 182.627792,186.740707 180.408081,186.284851 
	C176.098648,185.399887 173.932053,188.532974 173.217148,193.323593 
z"/>
<path fill="#050505" opacity="1.000000" stroke="none" 
	d="
M92.962669,174.024780 
	C103.397820,178.280594 108.414185,187.830704 105.510597,197.913422 
	C102.673935,207.763718 93.560013,213.560104 83.315117,212.029556 
	C73.992981,210.636856 66.416451,201.462479 67.056755,191.764984 
	C67.621490,183.211975 72.131317,177.237900 80.912491,174.009918 
	C85.433334,174.004120 89.198006,174.014450 92.962669,174.024780 
M92.823189,190.155334 
	C89.422981,185.552521 85.145638,184.636230 82.121727,187.953796 
	C79.861473,190.433517 78.973740,193.663971 81.387871,196.033325 
	C83.098671,197.712433 86.379539,199.011047 88.646255,198.627548 
	C92.329300,198.004456 93.800682,194.785980 92.823189,190.155334 
z"/>
<path fill="#535353" opacity="1.000000" stroke="none" 
	d="
M92.926712,173.703003 
	C89.198006,174.014450 85.433334,174.004120 81.256134,173.938080 
	C80.822632,173.708115 80.801666,173.533890 80.904739,173.127472 
	C84.806702,172.655396 88.584618,172.415497 92.654266,172.455811 
	C92.927589,172.951096 92.909172,173.166153 92.926712,173.703003 
z"/>
<path fill="#535353" opacity="1.000000" stroke="none" 
	d="
M185.987625,173.685867 
	C182.250916,174.013855 178.493698,174.033249 174.327454,173.996933 
	C173.911896,173.749420 173.905365,173.557617 173.971100,173.087128 
	C177.821716,172.600006 181.600082,172.391541 185.662949,172.471100 
	C185.954010,172.965164 185.960571,173.171219 185.987625,173.685867 
z"/>
<path fill="#FDFDFD" opacity="1.000000" stroke="none" 
	d="
M126.999878,133.264221 
	C112.009094,133.264160 97.517593,133.187546 83.028107,133.324738 
	C79.906418,133.354309 78.451157,132.731628 77.710602,129.261261 
	C72.648033,105.537170 67.279045,81.878479 62.021622,58.195869 
	C61.777905,57.098011 61.656170,55.973076 61.414146,54.465309 
	C111.128342,54.465309 160.492905,54.465309 210.631454,54.465309 
	C203.120316,80.747696 195.659164,106.855156 188.111816,133.264221 
	C167.753006,133.264221 147.626450,133.264221 126.999878,133.264221 
z"/>
<path fill="#F3F3F3" opacity="1.000000" stroke="none" 
	d="
M173.187286,192.942032 
	C173.932053,188.532974 176.098648,185.399887 180.408081,186.284851 
	C182.627792,186.740707 185.558914,189.280273 185.988831,191.334473 
	C186.414032,193.366074 184.666519,197.025269 182.818161,198.028076 
	C180.990250,199.019821 177.726639,197.914078 175.333328,197.056870 
	C174.313095,196.691437 173.903976,194.619843 173.187286,192.942032 
z"/>
<path fill="#F0F0F0" opacity="1.000000" stroke="none" 
	d="
M92.944130,190.542542 
	C93.800682,194.785980 92.329300,198.004456 88.646255,198.627548 
	C86.379539,199.011047 83.098671,197.712433 81.387871,196.033325 
	C78.973740,193.663971 79.861473,190.433517 82.121727,187.953796 
	C85.145638,184.636230 89.422981,185.552521 92.944130,190.542542 
z"/>
</svg>