<svg version="1.1" id="Layer_1" xmlns="http://www.w3.org/2000/svg" xmlns:xlink="http://www.w3.org/1999/xlink" x="0px" y="0px"
	 width="100%" viewBox="0 0 500 500" enable-background="new 0 0 500 500" xml:space="preserve">
<path fill="#000000" opacity="1.000000" stroke="none" 
	d="
M330.000000,501.000000 
	C220.000031,501.000000 110.500053,501.000000 1.000059,501.000000 
	C1.000039,334.333405 1.000039,167.666794 1.000020,1.000148 
	C167.666565,1.000099 334.333130,1.000099 500.999756,1.000049 
	C500.999847,167.666519 500.999847,334.333038 500.999939,500.999786 
	C444.166656,501.000000 387.333344,501.000000 330.000000,501.000000 
M144.464569,110.562111 
	C142.632111,110.565857 140.799362,110.549904 138.967239,110.576660 
	C129.975174,110.707970 120.940331,110.358025 112.004196,111.137032 
	C104.116264,111.824654 100.551254,116.279694 100.681320,123.185974 
	C100.810890,130.066086 105.103577,134.574768 112.863472,135.013626 
	C121.171692,135.483505 129.515823,135.421814 137.843842,135.402679 
	C143.562134,135.389542 147.343994,137.910950 149.348190,143.215912 
	C151.231888,148.201965 153.105286,153.192032 155.017624,158.167114 
	C162.479370,177.579391 169.974533,196.978836 177.418976,216.397736 
	C183.676376,232.720261 189.822723,249.085556 196.125443,265.390472 
	C201.828033,280.142883 207.659393,294.845612 213.466934,309.557251 
	C215.932663,315.803436 215.346008,321.193024 209.714569,325.616180 
	C201.059341,332.414337 196.971100,341.358673 196.471893,352.433014 
	C195.756561,368.302155 204.369247,382.250824 219.088898,387.734283 
	C235.567688,393.872986 252.697006,389.350891 262.448517,376.815552 
	C268.739197,368.729034 269.303192,359.287201 269.817535,349.838745 
	C270.320862,340.592377 270.137146,340.441956 279.560547,340.430725 
	C299.226837,340.407257 318.893219,340.407928 338.559509,340.429962 
	C346.880646,340.439301 347.200989,340.968445 346.774536,349.329987 
	C345.502197,374.276733 361.025940,390.400299 383.323181,390.920319 
	C398.825500,391.281860 411.014069,383.580719 417.525879,368.507263 
	C423.598877,354.449554 420.748108,341.744995 411.853607,330.089386 
	C404.371582,320.284821 393.833557,317.098389 381.861816,317.151642 
	C354.196075,317.274719 326.529419,317.199860 298.863129,317.191986 
	C282.873260,317.187439 266.881744,317.286499 250.894257,317.081757 
	C243.244690,316.983795 240.246597,314.424957 237.779144,307.140991 
	C234.660278,297.933960 235.416107,296.871735 245.257782,296.824615 
	C295.584808,296.583679 345.911926,296.359192 396.238861,296.103455 
	C398.899231,296.089905 401.596863,296.080017 404.209625,295.654266 
	C408.790680,294.907776 412.216248,292.525024 413.693268,287.861389 
	C415.401123,282.468933 417.169556,277.095642 418.870270,271.700958 
	C425.728821,249.945450 432.629059,228.202835 439.395264,206.418594 
	C442.751434,195.613312 446.416931,184.856247 448.907867,173.843369 
	C451.456970,162.573273 446.605286,157.548401 435.153625,157.630554 
	C422.327332,157.722580 409.499481,157.561539 396.672241,157.551300 
	C334.703918,157.501862 272.735596,157.463516 210.767258,157.428970 
	C203.437439,157.424896 196.107529,157.493912 188.777756,157.481659 
	C182.862762,157.471786 179.199203,154.421463 177.173340,148.974594 
	C173.573944,139.297104 169.623398,129.744003 166.261627,119.986618 
	C164.152496,113.864990 159.767593,111.410103 153.938980,110.731552 
	C151.139847,110.405685 148.280106,110.600517 144.464569,110.562111 
M123.552917,291.314667 
	C142.363083,291.147858 161.173798,291.024109 179.983139,290.790649 
	C186.460251,290.710236 190.320419,287.178741 190.267548,281.742401 
	C190.220657,276.921936 186.415359,273.681793 180.268555,273.586578 
	C160.130280,273.274506 139.990616,273.048401 119.851021,272.833466 
	C117.861374,272.812225 115.840332,272.930664 113.882614,273.267609 
	C108.835159,274.136261 106.092628,277.667084 106.281387,282.800720 
	C106.446846,287.300842 109.295715,290.480377 114.099388,291.058075 
	C116.894646,291.394287 119.750885,291.223511 123.552917,291.314667 
M114.523048,184.658356 
	C97.229240,184.663437 79.935417,184.653793 62.641644,184.680038 
	C54.447193,184.692490 50.143009,190.252457 52.945190,197.393707 
	C54.989326,202.603149 59.912247,202.714767 64.338173,202.737564 
	C85.120552,202.844650 105.904716,202.776337 126.687012,202.613083 
	C132.238663,202.569458 136.067169,198.994034 136.228958,194.388290 
	C136.423462,188.851486 133.123367,185.283600 126.973831,184.809952 
	C123.169342,184.516922 119.330223,184.673447 114.523048,184.658356 
M104.505280,227.097214 
	C99.028435,227.318817 93.505859,227.175842 88.086472,227.855545 
	C81.508759,228.680542 77.520195,233.008881 77.759331,238.081848 
	C78.011826,243.437958 81.819756,247.557220 88.338196,248.014236 
	C96.603691,248.593750 104.929657,248.426010 113.228630,248.386719 
	C127.028999,248.321396 140.832047,248.234222 154.626862,247.879425 
	C159.859238,247.744858 163.974030,243.734482 164.592102,239.101273 
	C165.192612,234.599503 162.429855,230.245056 157.223618,228.547256 
	C154.282410,227.588074 151.043213,227.195450 147.932037,227.164246 
	C133.790298,227.022324 119.646378,227.099503 104.505280,227.097214 
z"/>
<path fill="#393F42" opacity="1.000000" stroke="none" 
	d="
M144.956177,110.560829 
	C148.280106,110.600517 151.139847,110.405685 153.938980,110.731552 
	C159.767593,111.410103 164.152496,113.864990 166.261627,119.986618 
	C169.623398,129.744003 173.573944,139.297104 177.173340,148.974594 
	C179.199203,154.421463 182.862762,157.471786 188.777756,157.481659 
	C196.107529,157.493912 203.437439,157.424896 210.767258,157.428970 
	C272.735596,157.463516 334.703918,157.501862 396.672241,157.551300 
	C409.499481,157.561539 422.327332,157.722580 435.153625,157.630554 
	C446.605286,157.548401 451.456970,162.573273 448.907867,173.843369 
	C446.416931,184.856247 442.751434,195.613312 439.395264,206.418594 
	C432.629059,228.202835 425.728821,249.945450 418.870270,271.700958 
	C417.169556,277.095642 415.401123,282.468933 413.693268,287.861389 
	C412.216248,292.525024 408.790680,294.907776 404.209625,295.654266 
	C401.596863,296.080017 398.899231,296.089905 396.238861,296.103455 
	C345.911926,296.359192 295.584808,296.583679 245.257782,296.824615 
	C235.416107,296.871735 234.660278,297.933960 237.779144,307.140991 
	C240.246597,314.424957 243.244690,316.983795 250.894257,317.081757 
	C266.881744,317.286499 282.873260,317.187439 298.863129,317.191986 
	C326.529419,317.199860 354.196075,317.274719 381.861816,317.151642 
	C393.833557,317.098389 404.371582,320.284821 411.853607,330.089386 
	C420.748108,341.744995 423.598877,354.449554 417.525879,368.507263 
	C411.014069,383.580719 398.825500,391.281860 383.323181,390.920319 
	C361.025940,390.400299 345.502197,374.276733 346.774536,349.329987 
	C347.200989,340.968445 346.880646,340.439301 338.559509,340.429962 
	C318.893219,340.407928 299.226837,340.407257 279.560547,340.430725 
	C270.137146,340.441956 270.320862,340.592377 269.817535,349.838745 
	C269.303192,359.287201 268.739197,368.729034 262.448517,376.815552 
	C252.697006,389.350891 235.567688,393.872986 219.088898,387.734283 
	C204.369247,382.250824 195.756561,368.302155 196.471893,352.433014 
	C196.971100,341.358673 201.059341,332.414337 209.714569,325.616180 
	C215.346008,321.193024 215.932663,315.803436 213.466934,309.557251 
	C207.659393,294.845612 201.828033,280.142883 196.125443,265.390472 
	C189.822723,249.085556 183.676376,232.720261 177.418976,216.397736 
	C169.974533,196.978836 162.479370,177.579391 155.017624,158.167114 
	C153.105286,153.192032 151.231888,148.201965 149.348190,143.215912 
	C147.343994,137.910950 143.562134,135.389542 137.843842,135.402679 
	C129.515823,135.421814 121.171692,135.483505 112.863472,135.013626 
	C105.103577,134.574768 100.810890,130.066086 100.681320,123.185974 
	C100.551254,116.279694 104.116264,111.824654 112.004196,111.137032 
	C120.940331,110.358025 129.975174,110.707970 138.967239,110.576660 
	C140.799362,110.549904 142.632111,110.565857 144.956177,110.560829 
M330.630890,223.787613 
	C335.541656,223.224594 337.880524,220.571579 338.092743,215.531128 
	C338.463531,206.724258 339.055084,197.921310 339.803192,189.137939 
	C340.191772,184.575760 338.447418,182.672577 333.907318,182.782593 
	C328.084015,182.923691 322.254333,182.790588 316.427460,182.800812 
	C304.940399,182.820953 293.453339,182.849564 281.966339,182.894669 
	C278.907837,182.906677 275.910339,183.452713 276.226959,187.387436 
	C276.985992,196.819763 277.788361,206.262558 279.072937,215.632614 
	C279.693939,220.162643 282.948151,222.921585 287.658295,223.389893 
	C290.459625,223.668442 293.289612,223.658569 297.022217,223.897522 
	C307.971588,223.859329 318.920929,223.821121 330.630890,223.787613 
M266.142487,196.384995 
	C265.848206,193.404892 265.545990,190.425537 265.261902,187.444473 
	C264.979004,184.475677 263.397125,182.930435 260.377686,182.927170 
	C238.907822,182.904022 217.437973,182.865662 195.968109,182.871185 
	C192.537704,182.872070 190.974808,184.329742 192.330643,187.938599 
	C196.015991,197.748032 199.546783,207.616669 203.333252,217.386475 
	C204.891983,221.408295 207.950729,223.913834 212.484055,223.928085 
	C229.131714,223.980408 245.779633,223.953705 262.427338,223.994995 
	C266.756683,224.005753 268.348724,221.901596 267.927399,217.695648 
	C267.247559,210.909332 266.761597,204.103607 266.142487,196.384995 
M377.499359,223.920410 
	C384.662231,223.834412 391.829285,223.870651 398.986633,223.624603 
	C404.964050,223.419128 409.479675,221.108643 411.374298,214.777405 
	C413.807007,206.647919 416.751312,198.672516 419.246307,190.560333 
	C421.097107,184.542603 419.904175,182.937790 413.603455,182.903290 
	C394.944611,182.801086 376.284302,182.917221 357.626190,182.758469 
	C352.881134,182.718094 351.245422,184.667801 351.066193,189.292572 
	C350.685883,199.104324 349.890167,208.902756 349.118256,218.695114 
	C348.823730,222.431351 350.506226,223.916138 354.004364,223.920288 
	C361.502960,223.929214 369.001556,223.949585 377.499359,223.920410 
M292.551971,234.059402 
	C290.886993,234.088409 289.220337,234.079865 287.557312,234.153152 
	C281.388397,234.424942 280.749817,235.057587 281.089844,241.370850 
	C281.537292,249.678574 282.230255,257.973694 282.625610,266.283356 
	C282.829987,270.578827 285.051392,272.056580 289.049591,272.037109 
	C302.040833,271.973724 315.032806,271.970367 328.024017,272.038727 
	C331.908905,272.059174 333.700134,270.490845 333.991241,266.468536 
	C334.603210,258.013428 335.544128,249.580338 336.447540,241.148666 
	C337.067291,235.364334 336.256561,234.210602 330.513855,234.160294 
	C318.189148,234.052322 305.863312,234.072708 292.551971,234.059402 
M214.111755,245.346603 
	C216.682114,251.849869 219.205490,258.372223 221.840302,264.849274 
	C223.443726,268.790894 225.938690,271.711121 230.676743,271.710083 
	C242.507385,271.707489 254.338760,271.654694 266.168274,271.775299 
	C270.260132,271.817017 272.002411,270.066254 271.677307,266.050018 
	C271.020508,257.937225 270.363647,249.824219 269.761932,241.707214 
	C269.266266,235.020798 268.423035,234.132645 261.497131,234.092682 
	C247.999359,234.014801 234.501038,234.003815 221.002975,234.010437 
	C210.364258,234.015640 209.926422,234.692337 214.111755,245.346603 
M398.537323,255.985611 
	C399.970276,251.033432 401.407532,246.082474 402.835144,241.128754 
	C404.560608,235.141663 403.832184,234.050873 397.472351,234.040024 
	C382.997833,234.015335 368.522430,234.225983 354.048889,234.124985 
	C349.910736,234.096115 347.859192,235.701813 347.479553,239.767044 
	C346.660522,248.536316 345.941772,257.320740 344.834076,266.054840 
	C344.271393,270.491394 346.258179,271.708801 350.114319,271.721191 
	C359.263824,271.750580 368.412933,271.900330 377.562439,271.923035 
	C393.357819,271.962250 393.357880,271.937256 398.537323,255.985611 
M224.660522,363.934814 
	C226.781952,364.843964 228.824539,366.140656 231.039261,366.591248 
	C238.340759,368.076691 245.105652,363.053986 246.175064,355.637939 
	C247.283432,347.951721 242.497818,341.899048 234.687790,341.181061 
	C229.011292,340.659180 224.561600,342.683655 221.749008,347.770630 
	C218.543930,353.567444 220.272095,358.665222 224.660522,363.934814 
M396.493622,355.909241 
	C397.282440,350.419830 395.330170,346.046814 390.762085,343.051392 
	C384.468048,338.924194 375.649567,341.210663 372.199890,347.660461 
	C368.510773,354.557953 371.537811,363.206543 378.630798,366.034241 
	C386.412170,369.136414 393.599884,365.337219 396.493622,355.909241 
z"/>
<path fill="#383E41" opacity="1.000000" stroke="none" 
	d="
M123.066299,291.297791 
	C119.750885,291.223511 116.894646,291.394287 114.099388,291.058075 
	C109.295715,290.480377 106.446846,287.300842 106.281387,282.800720 
	C106.092628,277.667084 108.835159,274.136261 113.882614,273.267609 
	C115.840332,272.930664 117.861374,272.812225 119.851021,272.833466 
	C139.990616,273.048401 160.130280,273.274506 180.268555,273.586578 
	C186.415359,273.681793 190.220657,276.921936 190.267548,281.742401 
	C190.320419,287.178741 186.460251,290.710236 179.983139,290.790649 
	C161.173798,291.024109 142.363083,291.147858 123.066299,291.297791 
z"/>
<path fill="#383E41" opacity="1.000000" stroke="none" 
	d="
M115.014847,184.643250 
	C119.330223,184.673447 123.169342,184.516922 126.973831,184.809952 
	C133.123367,185.283600 136.423462,188.851486 136.228958,194.388290 
	C136.067169,198.994034 132.238663,202.569458 126.687012,202.613083 
	C105.904716,202.776337 85.120552,202.844650 64.338173,202.737564 
	C59.912247,202.714767 54.989326,202.603149 52.945190,197.393707 
	C50.143009,190.252457 54.447193,184.692490 62.641644,184.680038 
	C79.935417,184.653793 97.229240,184.663437 115.014847,184.643250 
z"/>
<path fill="#161619" opacity="1.000000" stroke="none" 
	d="
M105.004257,227.097534 
	C119.646378,227.099503 133.790298,227.022324 147.932037,227.164246 
	C151.043213,227.195450 154.282410,227.588074 157.223618,228.547256 
	C162.429855,230.245056 165.192612,234.599503 164.592102,239.101273 
	C163.974030,243.734482 159.859238,247.744858 154.626862,247.879425 
	C140.832047,248.234222 127.028999,248.321396 113.228630,248.386719 
	C104.929657,248.426010 96.603691,248.593750 88.338196,248.014236 
	C81.819756,247.557220 78.011826,243.437958 77.759331,238.081848 
	C77.520195,233.008881 81.508759,228.680542 88.086472,227.855545 
	C93.505859,227.175842 99.028435,227.318817 105.004257,227.097534 
M133.499420,246.177704 
	C140.796555,245.922852 148.130554,246.029831 155.378479,245.291718 
	C160.604721,244.759476 162.971451,240.839172 161.828049,236.040634 
	C160.624252,230.988556 156.649414,229.925003 152.235413,229.894562 
	C138.439743,229.799408 124.643402,229.779388 110.847305,229.773163 
	C103.368698,229.769791 95.885674,229.713425 88.412918,229.946365 
	C83.220726,230.108200 80.066505,233.366409 80.063705,237.970840 
	C80.061226,242.048172 83.423935,245.436264 88.125977,245.926315 
	C90.103607,246.132431 92.109962,246.104843 94.103447,246.110168 
	C106.902168,246.144302 119.700943,246.158096 133.499420,246.177704 
z"/>
<path fill="#020202" opacity="1.000000" stroke="none" 
	d="
M266.168121,196.845535 
	C266.761597,204.103607 267.247559,210.909332 267.927399,217.695648 
	C268.348724,221.901596 266.756683,224.005753 262.427338,223.994995 
	C245.779633,223.953705 229.131714,223.980408 212.484055,223.928085 
	C207.950729,223.913834 204.891983,221.408295 203.333252,217.386475 
	C199.546783,207.616669 196.015991,197.748032 192.330643,187.938599 
	C190.974808,184.329742 192.537704,182.872070 195.968109,182.871185 
	C217.437973,182.865662 238.907822,182.904022 260.377686,182.927170 
	C263.397125,182.930435 264.979004,184.475677 265.261902,187.444473 
	C265.545990,190.425537 265.848206,193.404892 266.168121,196.845535 
z"/>
<path fill="#020202" opacity="1.000000" stroke="none" 
	d="
M376.999756,223.942841 
	C369.001556,223.949585 361.502960,223.929214 354.004364,223.920288 
	C350.506226,223.916138 348.823730,222.431351 349.118256,218.695114 
	C349.890167,208.902756 350.685883,199.104324 351.066193,189.292572 
	C351.245422,184.667801 352.881134,182.718094 357.626190,182.758469 
	C376.284302,182.917221 394.944611,182.801086 413.603455,182.903290 
	C419.904175,182.937790 421.097107,184.542603 419.246307,190.560333 
	C416.751312,198.672516 413.807007,206.647919 411.374298,214.777405 
	C409.479675,221.108643 404.964050,223.419128 398.986633,223.624603 
	C391.829285,223.870651 384.662231,223.834412 376.999756,223.942841 
z"/>
<path fill="#020202" opacity="1.000000" stroke="none" 
	d="
M296.106720,223.778381 
	C293.289612,223.658569 290.459625,223.668442 287.658295,223.389893 
	C282.948151,222.921585 279.693939,220.162643 279.072937,215.632614 
	C277.788361,206.262558 276.985992,196.819763 276.226959,187.387436 
	C275.910339,183.452713 278.907837,182.906677 281.966339,182.894669 
	C293.453339,182.849564 304.940399,182.820953 316.427460,182.800812 
	C322.254333,182.790588 328.084015,182.923691 333.907318,182.782593 
	C338.447418,182.672577 340.191772,184.575760 339.803192,189.137939 
	C339.055084,197.921310 338.463531,206.724258 338.092743,215.531128 
	C337.880524,220.571579 335.541656,223.224594 329.864380,223.681274 
	C318.100830,223.642761 307.103790,223.710571 296.106720,223.778381 
z"/>
<path fill="#020202" opacity="1.000000" stroke="none" 
	d="
M293.044952,234.049988 
	C305.863312,234.072708 318.189148,234.052322 330.513855,234.160294 
	C336.256561,234.210602 337.067291,235.364334 336.447540,241.148666 
	C335.544128,249.580338 334.603210,258.013428 333.991241,266.468536 
	C333.700134,270.490845 331.908905,272.059174 328.024017,272.038727 
	C315.032806,271.970367 302.040833,271.973724 289.049591,272.037109 
	C285.051392,272.056580 282.829987,270.578827 282.625610,266.283356 
	C282.230255,257.973694 281.537292,249.678574 281.089844,241.370850 
	C280.749817,235.057587 281.388397,234.424942 287.557312,234.153152 
	C289.220337,234.079865 290.886993,234.088409 293.044952,234.049988 
z"/>
<path fill="#020202" opacity="1.000000" stroke="none" 
	d="
M213.955170,244.993866 
	C209.926422,234.692337 210.364258,234.015640 221.002975,234.010437 
	C234.501038,234.003815 247.999359,234.014801 261.497131,234.092682 
	C268.423035,234.132645 269.266266,235.020798 269.761932,241.707214 
	C270.363647,249.824219 271.020508,257.937225 271.677307,266.050018 
	C272.002411,270.066254 270.260132,271.817017 266.168274,271.775299 
	C254.338760,271.654694 242.507385,271.707489 230.676743,271.710083 
	C225.938690,271.711121 223.443726,268.790894 221.840302,264.849274 
	C219.205490,258.372223 216.682114,251.849869 213.955170,244.993866 
z"/>
<path fill="#020202" opacity="1.000000" stroke="none" 
	d="
M398.390015,256.356110 
	C393.357880,271.937256 393.357819,271.962250 377.562439,271.923035 
	C368.412933,271.900330 359.263824,271.750580 350.114319,271.721191 
	C346.258179,271.708801 344.271393,270.491394 344.834076,266.054840 
	C345.941772,257.320740 346.660522,248.536316 347.479553,239.767044 
	C347.859192,235.701813 349.910736,234.096115 354.048889,234.124985 
	C368.522430,234.225983 382.997833,234.015335 397.472351,234.040024 
	C403.832184,234.050873 404.560608,235.141663 402.835144,241.128754 
	C401.407532,246.082474 399.970276,251.033432 398.390015,256.356110 
z"/>
<path fill="#020202" opacity="1.000000" stroke="none" 
	d="
M224.390320,363.676575 
	C220.272095,358.665222 218.543930,353.567444 221.749008,347.770630 
	C224.561600,342.683655 229.011292,340.659180 234.687790,341.181061 
	C242.497818,341.899048 247.283432,347.951721 246.175064,355.637939 
	C245.105652,363.053986 238.340759,368.076691 231.039261,366.591248 
	C228.824539,366.140656 226.781952,364.843964 224.390320,363.676575 
z"/>
<path fill="#020202" opacity="1.000000" stroke="none" 
	d="
M396.409454,356.295410 
	C393.599884,365.337219 386.412170,369.136414 378.630798,366.034241 
	C371.537811,363.206543 368.510773,354.557953 372.199890,347.660461 
	C375.649567,341.210663 384.468048,338.924194 390.762085,343.051392 
	C395.330170,346.046814 397.282440,350.419830 396.409454,356.295410 
z"/>
<path fill="#000000" opacity="1.000000" stroke="none" 
	d="
M296.564453,223.837952 
	C307.103790,223.710571 318.100830,223.642761 329.484100,223.678925 
	C318.920929,223.821121 307.971588,223.859329 296.564453,223.837952 
z"/>
<path fill="#3A4043" opacity="1.000000" stroke="none" 
	d="
M132.999557,246.178131 
	C119.700943,246.158096 106.902168,246.144302 94.103447,246.110168 
	C92.109962,246.104843 90.103607,246.132431 88.125977,245.926315 
	C83.423935,245.436264 80.061226,242.048172 80.063705,237.970840 
	C80.066505,233.366409 83.220726,230.108200 88.412918,229.946365 
	C95.885674,229.713425 103.368698,229.769791 110.847305,229.773163 
	C124.643402,229.779388 138.439743,229.799408 152.235413,229.894562 
	C156.649414,229.925003 160.624252,230.988556 161.828049,236.040634 
	C162.971451,240.839172 160.604721,244.759476 155.378479,245.291718 
	C148.130554,246.029831 140.796555,245.922852 132.999557,246.178131 
z"/>
</svg>