<svg version="1.1" id="Layer_1" xmlns="http://www.w3.org/2000/svg" xmlns:xlink="http://www.w3.org/1999/xlink" x="0px" y="0px"
	 width="100%" viewBox="0 0 666 374" enable-background="new 0 0 666 374" xml:space="preserve">
<path fill="#000000" opacity="1.000000" stroke="none" 
	d="
M625.000000,375.000000 
	C416.716583,375.000000 208.933182,375.000000 1.074884,375.000000 
	C1.074884,250.413239 1.074884,125.826424 1.074884,1.119803 
	C222.999954,1.119803 444.999969,1.119803 666.994751,1.119803 
	C666.994751,125.733528 666.994751,250.366760 666.992188,375.000000 
	C653.159729,375.000000 639.329834,375.000000 625.000000,375.000000 
M439.824097,210.290680 
	C444.189697,210.199066 448.826294,211.034637 452.873047,209.852005 
	C468.651489,205.240829 484.213806,199.895752 499.922363,195.036484 
	C504.486572,193.624588 504.308105,190.189102 504.429779,186.688293 
	C504.543518,183.417252 504.378113,180.691254 500.245972,179.358383 
	C486.201538,174.828186 472.344818,169.715622 458.297455,165.195145 
	C453.499115,163.651031 448.362854,163.119095 443.355225,162.278183 
	C440.565460,161.809723 439.008911,162.603775 439.335388,166.054321 
	C439.710114,170.014557 439.340210,174.040421 439.400208,178.036194 
	C439.552246,188.165863 439.763794,198.294632 439.612213,208.774628 
	C439.493896,209.109619 439.541290,209.419174 439.824097,210.290680 
M246.836044,202.484283 
	C249.685760,204.386719 252.315826,206.824600 255.423096,208.099152 
	C269.068970,213.696411 283.080811,213.595413 296.810974,208.787430 
	C307.941132,204.889893 313.564209,196.564850 313.428009,186.349274 
	C313.295471,176.409302 307.144562,168.140228 296.005768,164.515427 
	C290.399658,162.691086 284.327972,161.822891 278.415619,161.519455 
	C268.159851,160.993103 258.117920,162.409866 249.472931,168.665833 
	C237.956543,176.999725 236.579575,192.284073 246.836044,202.484283 
M356.581573,209.844315 
	C364.486603,210.471573 372.508148,212.260620 380.272125,211.481842 
	C395.956787,209.908524 404.372040,201.232117 405.020630,187.646866 
	C405.345795,180.836014 404.972015,173.994537 405.154205,167.173294 
	C405.308136,161.410156 401.040955,162.780975 397.854584,162.327148 
	C394.025238,161.781723 393.914490,164.468216 393.881744,167.059097 
	C393.797577,173.717331 393.969604,180.383621 393.705231,187.033417 
	C393.441986,193.654739 390.158691,198.537491 383.732300,199.648178 
	C377.138763,200.787735 370.123352,201.220413 363.539459,200.263672 
	C354.333862,198.925980 350.959167,194.076950 350.697052,184.712433 
	C350.538757,179.056320 350.219208,173.350403 350.765045,167.744080 
	C351.316193,162.083710 347.745148,162.638306 344.266846,162.277481 
	C340.195618,161.855164 339.445618,164.328186 339.417145,167.479706 
	C339.364502,173.306412 339.368744,179.133896 339.385193,184.960938 
	C339.421600,197.856293 343.944427,204.611237 356.581573,209.844315 
M177.036255,180.500763 
	C177.036255,174.715759 177.036255,168.930756 177.036255,162.968063 
	C173.086990,162.968063 169.706894,162.968063 166.233032,162.968063 
	C166.233032,179.121048 166.233032,194.849792 166.233032,210.657715 
	C183.010971,210.657715 199.407654,210.657715 215.742447,210.657715 
	C217.284912,200.998154 216.953400,200.567001 207.898804,200.551010 
	C199.907120,200.536896 191.915314,200.577911 183.923569,200.597321 
	C177.049866,200.614014 177.047302,200.615738 177.038605,193.988449 
	C177.033142,189.825653 177.036728,185.662857 177.036255,180.500763 
z"/>
<path fill="#3AC835" opacity="1.000000" stroke="none" 
	d="
M246.588165,202.258224 
	C236.579575,192.284073 237.956543,176.999725 249.472931,168.665833 
	C258.117920,162.409866 268.159851,160.993103 278.415619,161.519455 
	C284.327972,161.822891 290.399658,162.691086 296.005768,164.515427 
	C307.144562,168.140228 313.295471,176.409302 313.428009,186.349274 
	C313.564209,196.564850 307.941132,204.889893 296.810974,208.787430 
	C283.080811,213.595413 269.068970,213.696411 255.423096,208.099152 
	C252.315826,206.824600 249.685760,204.386719 246.588165,202.258224 
M279.332031,171.878387 
	C272.409760,173.218857 265.347595,174.083557 258.613251,176.063324 
	C253.948502,177.434692 251.911499,181.638763 251.826584,186.644852 
	C251.736649,191.946945 254.313843,195.792740 258.816833,197.789871 
	C270.644043,203.035339 282.872833,203.119354 294.590118,197.849625 
	C304.100464,193.572403 304.501709,181.317841 295.356201,176.372620 
	C290.842407,173.931870 285.324066,173.348831 279.332031,171.878387 
z"/>
<path fill="#3AC535" opacity="1.000000" stroke="none" 
	d="
M356.210571,209.717926 
	C343.944427,204.611237 339.421600,197.856293 339.385193,184.960938 
	C339.368744,179.133896 339.364502,173.306412 339.417145,167.479706 
	C339.445618,164.328186 340.195618,161.855164 344.266846,162.277481 
	C347.745148,162.638306 351.316193,162.083710 350.765045,167.744080 
	C350.219208,173.350403 350.538757,179.056320 350.697052,184.712433 
	C350.959167,194.076950 354.333862,198.925980 363.539459,200.263672 
	C370.123352,201.220413 377.138763,200.787735 383.732300,199.648178 
	C390.158691,198.537491 393.441986,193.654739 393.705231,187.033417 
	C393.969604,180.383621 393.797577,173.717331 393.881744,167.059097 
	C393.914490,164.468216 394.025238,161.781723 397.854584,162.327148 
	C401.040955,162.780975 405.308136,161.410156 405.154205,167.173294 
	C404.972015,173.994537 405.345795,180.836014 405.020630,187.646866 
	C404.372040,201.232117 395.956787,209.908524 380.272125,211.481842 
	C372.508148,212.260620 364.486603,210.471573 356.210571,209.717926 
z"/>
<path fill="#49BB44" opacity="1.000000" stroke="none" 
	d="
M439.951538,208.423767 
	C439.763794,198.294632 439.552246,188.165863 439.400208,178.036194 
	C439.340210,174.040421 439.710114,170.014557 439.335388,166.054321 
	C439.008911,162.603775 440.565460,161.809723 443.355225,162.278183 
	C448.362854,163.119095 453.499115,163.651031 458.297455,165.195145 
	C472.344818,169.715622 486.201538,174.828186 500.245972,179.358383 
	C504.378113,180.691254 504.543518,183.417252 504.429779,186.688293 
	C504.308105,190.189102 504.486572,193.624588 499.922363,195.036484 
	C484.213806,199.895752 468.651489,205.240829 452.873047,209.852005 
	C448.826294,211.034637 444.189697,210.199066 439.820435,209.783966 
	C439.857086,208.992020 439.902039,208.707535 439.951538,208.423767 
M500.409210,182.021072 
	C483.448792,176.261475 466.570221,170.241562 449.487244,164.871918 
	C442.765717,162.759155 441.057526,164.579437 441.016144,171.565598 
	C440.958984,181.215927 440.972809,190.866806 440.988800,200.517395 
	C441.002258,208.632156 442.961487,210.245392 450.882721,208.689316 
	C452.019928,208.465897 453.129639,208.082214 454.235260,207.721191 
	C468.137909,203.181519 482.022552,198.586136 495.944244,194.105804 
	C502.588287,191.967606 503.891785,189.129120 500.409210,182.021072 
z"/>
<path fill="#49BB44" opacity="1.000000" stroke="none" 
	d="
M177.036255,181.000412 
	C177.036728,185.662857 177.033142,189.825653 177.038605,193.988449 
	C177.047302,200.615738 177.049866,200.614014 183.923569,200.597321 
	C191.915314,200.577911 199.907120,200.536896 207.898804,200.551010 
	C216.953400,200.567001 217.284912,200.998154 215.742447,210.657715 
	C199.407654,210.657715 183.010971,210.657715 166.233032,210.657715 
	C166.233032,194.849792 166.233032,179.121048 166.233032,162.968063 
	C169.706894,162.968063 173.086990,162.968063 177.036255,162.968063 
	C177.036255,168.930756 177.036255,174.715759 177.036255,181.000412 
M190.059341,209.878723 
	C196.373032,209.889496 202.687210,209.948822 209.000198,209.887421 
	C211.565872,209.862473 214.527969,210.474167 214.432739,206.114105 
	C214.344574,202.077332 211.703293,202.083176 208.983856,202.091064 
	C200.340668,202.116135 191.697739,202.226791 183.054703,202.302765 
	C176.947601,202.356445 176.031448,201.562622 175.970093,195.538956 
	C175.882050,186.895142 175.924072,178.249969 175.921112,169.605377 
	C175.920105,166.661469 175.286957,164.298080 171.643509,164.167587 
	C167.880875,164.032837 167.280121,166.453339 167.267822,169.378601 
	C167.218903,181.014069 167.215744,192.649796 167.136749,204.285034 
	C167.108337,208.470764 169.546188,209.760452 173.205276,209.785767 
	C178.522903,209.822571 183.840561,209.856277 190.059341,209.878723 
z"/>
<path fill="#3AC535" opacity="1.000000" stroke="none" 
	d="
M439.781860,208.599197 
	C439.902039,208.707535 439.857086,208.992020 439.785583,209.490265 
	C439.541290,209.419174 439.493896,209.109619 439.781860,208.599197 
z"/>
<path fill="#010601" opacity="1.000000" stroke="none" 
	d="
M279.796143,171.901794 
	C285.324066,173.348831 290.842407,173.931870 295.356201,176.372620 
	C304.501709,181.317841 304.100464,193.572403 294.590118,197.849625 
	C282.872833,203.119354 270.644043,203.035339 258.816833,197.789871 
	C254.313843,195.792740 251.736649,191.946945 251.826584,186.644852 
	C251.911499,181.638763 253.948502,177.434692 258.613251,176.063324 
	C265.347595,174.083557 272.409760,173.218857 279.796143,171.901794 
z"/>
<path fill="#35D330" opacity="1.000000" stroke="none" 
	d="
M500.677917,182.275299 
	C503.891785,189.129120 502.588287,191.967606 495.944244,194.105804 
	C482.022552,198.586136 468.137909,203.181519 454.235260,207.721191 
	C453.129639,208.082214 452.019928,208.465897 450.882721,208.689316 
	C442.961487,210.245392 441.002258,208.632156 440.988800,200.517395 
	C440.972809,190.866806 440.958984,181.215927 441.016144,171.565598 
	C441.057526,164.579437 442.765717,162.759155 449.487244,164.871918 
	C466.570221,170.241562 483.448792,176.261475 500.677917,182.275299 
M449.988220,199.223175 
	C451.063843,199.587357 452.281860,200.481140 453.193604,200.235962 
	C466.018341,196.787277 478.811279,193.218033 491.572998,189.542801 
	C492.460724,189.287140 493.610901,187.959412 493.603577,187.139465 
	C493.596344,186.326828 492.418121,185.061264 491.514435,184.789673 
	C478.478882,180.871887 465.424896,177.008057 452.294403,173.428070 
	C451.264832,173.147369 448.458527,175.083221 448.467590,175.968536 
	C448.545044,183.533951 449.082336,191.094650 449.988220,199.223175 
z"/>
<path fill="#35D330" opacity="1.000000" stroke="none" 
	d="
M189.608765,209.885010 
	C183.840561,209.856277 178.522903,209.822571 173.205276,209.785767 
	C169.546188,209.760452 167.108337,208.470764 167.136749,204.285034 
	C167.215744,192.649796 167.218903,181.014069 167.267822,169.378601 
	C167.280121,166.453339 167.880875,164.032837 171.643509,164.167587 
	C175.286957,164.298080 175.920105,166.661469 175.921112,169.605377 
	C175.924072,178.249969 175.882050,186.895142 175.970093,195.538956 
	C176.031448,201.562622 176.947601,202.356445 183.054703,202.302765 
	C191.697739,202.226791 200.340668,202.116135 208.983856,202.091064 
	C211.703293,202.083176 214.344574,202.077332 214.432739,206.114105 
	C214.527969,210.474167 211.565872,209.862473 209.000198,209.887421 
	C202.687210,209.948822 196.373032,209.889496 189.608765,209.885010 
z"/>
<path fill="#49BB44" opacity="1.000000" stroke="none" 
	d="
M449.735138,198.939972 
	C449.082336,191.094650 448.545044,183.533951 448.467590,175.968536 
	C448.458527,175.083221 451.264832,173.147369 452.294403,173.428070 
	C465.424896,177.008057 478.478882,180.871887 491.514435,184.789673 
	C492.418121,185.061264 493.596344,186.326828 493.603577,187.139465 
	C493.610901,187.959412 492.460724,189.287140 491.572998,189.542801 
	C478.811279,193.218033 466.018341,196.787277 453.193604,200.235962 
	C452.281860,200.481140 451.063843,199.587357 449.735138,198.939972 
M450.190857,193.075012 
	C450.455353,194.926071 450.719849,196.777130 451.068756,199.218811 
	C464.589447,195.336884 477.365997,191.668610 490.142517,188.000336 
	C490.086487,187.320816 490.030426,186.641312 489.974396,185.961807 
	C477.001526,181.999542 464.028625,178.037277 450.129150,173.792007 
	C450.129150,180.928970 450.129150,186.545105 450.190857,193.075012 
z"/>
<path fill="#020B02" opacity="1.000000" stroke="none" 
	d="
M450.160004,192.618134 
	C450.129150,186.545105 450.129150,180.928970 450.129150,173.792007 
	C464.028625,178.037277 477.001526,181.999542 489.974396,185.961807 
	C490.030426,186.641312 490.086487,187.320816 490.142517,188.000336 
	C477.365997,191.668610 464.589447,195.336884 451.068756,199.218811 
	C450.719849,196.777130 450.455353,194.926071 450.160004,192.618134 
z"/>
</svg>