<svg version="1.1" id="Layer_1" xmlns="http://www.w3.org/2000/svg" xmlns:xlink="http://www.w3.org/1999/xlink" x="0px" y="0px"
	 width="100%" viewBox="0 0 183 148" enable-background="new 0 0 183 148" xml:space="preserve">
<path fill="#000000" opacity="1.000000" stroke="none" 
	d="
M108.000000,149.000000 
	C72.000008,149.000000 36.500008,149.000000 1.000010,149.000000 
	C1.000006,99.666679 1.000006,50.333355 1.000003,1.000023 
	C61.999985,1.000015 122.999969,1.000015 183.999969,1.000008 
	C183.999969,50.333309 183.999969,99.666618 183.999985,148.999969 
	C158.833328,149.000000 133.666672,149.000000 108.000000,149.000000 
M62.923553,83.497864 
	C62.923553,88.924156 62.923553,94.350449 62.923553,100.435463 
	C67.876503,100.073219 72.193985,100.501320 76.036102,99.347092 
	C92.272400,94.469490 108.390198,89.189728 124.472496,83.820892 
	C125.841614,83.363831 127.065910,81.304283 127.567436,79.736450 
	C128.099045,78.074547 127.533218,76.094833 127.721481,74.282471 
	C128.047379,71.145256 126.916145,69.673058 123.736633,68.634987 
	C107.937927,63.476883 92.314102,57.776897 76.473061,52.759022 
	C72.410461,51.472134 67.782646,51.969570 62.923550,51.611042 
	C62.923550,62.574394 62.923550,72.536415 62.923553,83.497864 
z"/>
<path fill="#34D02E" opacity="1.000000" stroke="none" 
	d="
M62.923553,82.998154 
	C62.923550,72.536415 62.923550,62.574394 62.923550,51.611042 
	C67.782646,51.969570 72.410461,51.472134 76.473061,52.759022 
	C92.314102,57.776897 107.937927,63.476883 123.736633,68.634987 
	C126.916145,69.673058 128.047379,71.145256 127.721481,74.282471 
	C127.533218,76.094833 128.099045,78.074547 127.567436,79.736450 
	C127.065910,81.304283 125.841614,83.363831 124.472496,83.820892 
	C108.390198,89.189728 92.272400,94.469490 76.036102,99.347092 
	C72.193985,100.501320 67.876503,100.073219 62.923553,100.435463 
	C62.923553,94.350449 62.923553,88.924156 62.923553,82.998154 
M74.385612,64.252167 
	C74.385612,72.106415 74.385612,79.960663 74.385612,88.345520 
	C88.244431,84.454758 101.678749,80.683167 115.113060,76.911575 
	C115.114670,76.570686 115.116272,76.229797 115.117882,75.888901 
	C101.820473,71.931892 88.523064,67.974876 74.385612,64.252167 
z"/>
<path fill="#010401" opacity="1.000000" stroke="none" 
	d="
M74.805634,64.135010 
	C88.523064,67.974876 101.820473,71.931892 115.117882,75.888901 
	C115.116272,76.229797 115.114670,76.570686 115.113060,76.911575 
	C101.678749,80.683167 88.244431,84.454758 74.385612,88.345520 
	C74.385612,79.960663 74.385612,72.106415 74.805634,64.135010 
z"/>
</svg>