<svg version="1.1" id="Layer_1" xmlns="http://www.w3.org/2000/svg" xmlns:xlink="http://www.w3.org/1999/xlink" x="0px" y="0px"
	 width="100%" viewBox="0 0 1400 788" enable-background="new 0 0 1400 788" xml:space="preserve">
<path fill="#000000" opacity="1.000000" stroke="none" 
	d="
M1296.000000,789.000000 
	C864.049194,789.000000 432.598389,789.000000 1.073802,789.000000 
	C1.073802,526.412476 1.073802,263.824982 1.073802,1.118727 
	C467.666656,1.118727 934.333313,1.118727 1400.993408,1.118727 
	C1400.993408,263.735229 1400.993408,526.367615 1400.990234,789.000000 
	C1366.157959,789.000000 1331.328979,789.000000 1296.000000,789.000000 
M505.588959,406.947479 
	C510.349426,422.506561 521.414978,431.959656 535.878784,438.023438 
	C550.106628,443.988342 565.145081,445.713562 580.377319,445.706787 
	C598.180115,445.698883 615.634644,443.508392 631.628540,434.845032 
	C665.642761,416.420624 667.150635,372.760010 634.499634,352.079590 
	C623.017517,344.807068 610.290894,341.033936 596.910645,339.590240 
	C573.662842,337.081879 550.896851,338.599762 529.929932,350.196564 
	C507.950928,362.353149 499.635223,381.717651 505.588959,406.947479 
M1001.634766,360.046875 
	C985.716980,354.669312 969.642761,349.705658 953.937073,343.767059 
	C943.650024,339.877350 933.359558,341.585785 922.721924,341.095612 
	C922.721924,375.252655 922.721924,408.956360 922.721924,442.468719 
	C931.205322,442.468719 940.037415,444.401184 947.618774,442.140015 
	C983.798096,431.349396 1019.627808,419.388977 1055.617920,407.957977 
	C1058.381226,407.080322 1059.179077,405.746643 1059.090820,402.973145 
	C1058.889648,396.653290 1058.804932,390.311584 1059.117065,384.000732 
	C1059.287598,380.549103 1058.130249,379.065582 1054.875977,377.995239 
	C1037.336426,372.226135 1019.877502,366.212280 1001.634766,360.046875 
M800.886230,444.281372 
	C806.519104,442.831055 812.347473,441.894257 817.749878,439.838318 
	C837.369385,432.371887 848.849182,418.130432 849.865845,397.020691 
	C850.722595,379.232513 850.105042,361.373077 850.111023,343.545166 
	C850.111267,342.781921 849.819092,342.018585 849.680786,341.341705 
	C842.095215,341.341705 834.828979,341.341705 827.022400,341.341705 
	C827.022400,343.401550 827.022400,345.185669 827.022339,346.969788 
	C827.021790,361.966705 827.064880,376.963776 827.007019,391.960449 
	C826.959839,404.186371 821.417419,413.378418 810.233398,418.047089 
	C791.062561,426.049866 771.469727,425.856201 752.411133,417.703796 
	C741.320374,412.959686 735.813110,403.776886 735.866516,391.478851 
	C735.930969,376.648865 735.881165,361.818359 735.880920,346.988098 
	C735.880859,345.203003 735.880859,343.417877 735.880859,341.349304 
	C727.941833,341.349304 720.555176,341.349304 713.184082,341.349304 
	C713.007874,342.060577 712.785461,342.541504 712.784607,343.022827 
	C712.753052,359.685364 712.540771,376.350800 712.777344,393.009796 
	C713.108643,416.340332 724.724304,432.425903 746.727905,440.227203 
	C764.082764,446.380249 781.964539,446.762939 800.886230,444.281372 
M347.619232,371.499451 
	C347.619232,395.255829 347.619232,419.012238 347.619232,442.909424 
	C383.142029,442.909424 418.048676,442.909424 453.191772,442.909424 
	C453.191772,435.778107 453.191772,428.883942 453.191772,421.359314 
	C425.690063,421.359314 398.501526,421.359314 370.790344,421.359314 
	C370.790344,394.348450 370.790344,367.963715 370.790344,341.337769 
	C362.872223,341.337769 355.487762,341.337769 347.619232,341.337769 
	C347.619232,351.239655 347.619232,360.869537 347.619232,371.499451 
z"/>
<path fill="#35D32F" opacity="1.000000" stroke="none" 
	d="
M505.450714,406.568634 
	C499.635223,381.717651 507.950928,362.353149 529.929932,350.196564 
	C550.896851,338.599762 573.662842,337.081879 596.910645,339.590240 
	C610.290894,341.033936 623.017517,344.807068 634.499634,352.079590 
	C667.150635,372.760010 665.642761,416.420624 631.628540,434.845032 
	C615.634644,443.508392 598.180115,445.698883 580.377319,445.706787 
	C565.145081,445.713562 550.106628,443.988342 535.878784,438.023438 
	C521.414978,431.959656 510.349426,422.506561 505.450714,406.568634 
M609.200562,419.884064 
	C613.671326,417.716064 618.542725,416.113281 622.541382,413.279144 
	C637.366089,402.771851 637.620483,383.014099 623.059692,372.185089 
	C618.992981,369.160583 614.213745,366.800537 609.418701,365.104553 
	C595.646057,360.233307 581.359802,359.929382 566.994141,361.609924 
	C557.300476,362.743896 548.026855,365.289856 539.863647,370.891266 
	C523.120605,382.380127 523.529053,404.009247 540.827454,414.694458 
	C544.596130,417.022308 548.851929,418.870392 553.130859,420.009857 
	C571.513367,424.904968 589.987000,424.771545 609.200562,419.884064 
z"/>
<path fill="#35D32F" opacity="1.000000" stroke="none" 
	d="
M1002.012756,360.164856 
	C1019.877502,366.212280 1037.336426,372.226135 1054.875977,377.995239 
	C1058.130249,379.065582 1059.287598,380.549103 1059.117065,384.000732 
	C1058.804932,390.311584 1058.889648,396.653290 1059.090820,402.973145 
	C1059.179077,405.746643 1058.381226,407.080322 1055.617920,407.957977 
	C1019.627808,419.388977 983.798096,431.349396 947.618774,442.140015 
	C940.037415,444.401184 931.205322,442.468719 922.721924,442.468719 
	C922.721924,408.956360 922.721924,375.252655 922.721924,341.095612 
	C933.359558,341.585785 943.650024,339.877350 953.937073,343.767059 
	C969.642761,349.705658 985.716980,354.669312 1002.012756,360.164856 
M945.759216,375.543823 
	C945.759216,389.792267 945.759216,404.040741 945.759216,418.852844 
	C975.933655,410.362854 1005.345093,402.087555 1034.756592,393.812256 
	C1034.705444,393.341156 1034.654419,392.870087 1034.603271,392.398987 
	C1005.233032,383.479462 975.862793,374.559906 945.759216,365.417664 
	C945.759216,368.976166 945.759216,371.768158 945.759216,375.543823 
z"/>
<path fill="#35D32F" opacity="1.000000" stroke="none" 
	d="
M800.455933,444.359406 
	C781.964539,446.762939 764.082764,446.380249 746.727905,440.227203 
	C724.724304,432.425903 713.108643,416.340332 712.777344,393.009796 
	C712.540771,376.350800 712.753052,359.685364 712.784607,343.022827 
	C712.785461,342.541504 713.007874,342.060577 713.184082,341.349304 
	C720.555176,341.349304 727.941833,341.349304 735.880859,341.349304 
	C735.880859,343.417877 735.880859,345.203003 735.880920,346.988098 
	C735.881165,361.818359 735.930969,376.648865 735.866516,391.478851 
	C735.813110,403.776886 741.320374,412.959686 752.411133,417.703796 
	C771.469727,425.856201 791.062561,426.049866 810.233398,418.047089 
	C821.417419,413.378418 826.959839,404.186371 827.007019,391.960449 
	C827.064880,376.963776 827.021790,361.966705 827.022339,346.969788 
	C827.022400,345.185669 827.022400,343.401550 827.022400,341.341705 
	C834.828979,341.341705 842.095215,341.341705 849.680786,341.341705 
	C849.819092,342.018585 850.111267,342.781921 850.111023,343.545166 
	C850.105042,361.373077 850.722595,379.232513 849.865845,397.020691 
	C848.849182,418.130432 837.369385,432.371887 817.749878,439.838318 
	C812.347473,441.894257 806.519104,442.831055 800.455933,444.359406 
z"/>
<path fill="#35D32F" opacity="1.000000" stroke="none" 
	d="
M347.619232,370.999420 
	C347.619232,360.869537 347.619232,351.239655 347.619232,341.337769 
	C355.487762,341.337769 362.872223,341.337769 370.790344,341.337769 
	C370.790344,367.963715 370.790344,394.348450 370.790344,421.359314 
	C398.501526,421.359314 425.690063,421.359314 453.191772,421.359314 
	C453.191772,428.883942 453.191772,435.778107 453.191772,442.909424 
	C418.048676,442.909424 383.142029,442.909424 347.619232,442.909424 
	C347.619232,419.012238 347.619232,395.255829 347.619232,370.999420 
z"/>
<path fill="#000100" opacity="1.000000" stroke="none" 
	d="
M608.813232,419.987244 
	C589.987000,424.771545 571.513367,424.904968 553.130859,420.009857 
	C548.851929,418.870392 544.596130,417.022308 540.827454,414.694458 
	C523.529053,404.009247 523.120605,382.380127 539.863647,370.891266 
	C548.026855,365.289856 557.300476,362.743896 566.994141,361.609924 
	C581.359802,359.929382 595.646057,360.233307 609.418701,365.104553 
	C614.213745,366.800537 618.992981,369.160583 623.059692,372.185089 
	C637.620483,383.014099 637.366089,402.771851 622.541382,413.279144 
	C618.542725,416.113281 613.671326,417.716064 608.813232,419.987244 
z"/>
<path fill="#000100" opacity="1.000000" stroke="none" 
	d="
M945.759216,375.052002 
	C945.759216,371.768158 945.759216,368.976166 945.759216,365.417664 
	C975.862793,374.559906 1005.233032,383.479462 1034.603271,392.398987 
	C1034.654419,392.870087 1034.705444,393.341156 1034.756592,393.812256 
	C1005.345093,402.087555 975.933655,410.362854 945.759216,418.852844 
	C945.759216,404.040741 945.759216,389.792267 945.759216,375.052002 
z"/>
</svg>