<svg version="1.1" id="Layer_1" xmlns="http://www.w3.org/2000/svg" xmlns:xlink="http://www.w3.org/1999/xlink" x="0px" y="0px"
	 width="100%" viewBox="0 0 400 400" enable-background="new 0 0 400 400" xml:space="preserve">
<path fill="#000000" opacity="1.000000" stroke="none" 
	d="
M184.000000,401.000000 
	C122.685677,401.000000 61.871349,401.000000 1.028511,401.000000 
	C1.028511,267.727325 1.028511,134.454666 1.028511,1.091000 
	C134.230957,1.091000 267.461975,1.091000 400.846497,1.091000 
	C400.846497,134.333191 400.846497,267.666565 400.846497,401.000000 
	C328.788086,401.000000 256.644043,401.000000 184.000000,401.000000 
M120.615387,126.869194 
	C113.026009,127.126999 113.023560,127.126999 113.023331,134.616837 
	C113.022339,166.927078 113.010155,199.237335 113.029198,231.547577 
	C113.036758,244.371262 113.177063,257.195221 113.115479,270.018372 
	C113.100739,273.087189 114.046928,274.733612 117.305153,274.750793 
	C132.406464,274.830414 147.281616,275.119110 162.075134,269.892853 
	C189.199753,260.310242 216.800552,252.077072 244.191620,243.246552 
	C265.092316,236.508438 285.963470,229.678284 306.880859,222.992615 
	C309.829193,222.050278 311.234283,220.604889 311.186401,217.350082 
	C311.041931,207.527390 311.070923,197.700150 311.190826,187.876617 
	C311.236450,184.137619 309.715485,182.047348 306.098816,181.012894 
	C300.510803,179.414566 294.982666,177.591644 289.477783,175.720795 
	C251.407181,162.782333 213.259125,150.063049 175.327271,136.729111 
	C157.801636,130.568451 140.433502,124.658447 120.615387,126.869194 
z"/>
<path fill="#26E51A" opacity="1.000000" stroke="none" 
	d="
M121.041306,126.880753 
	C140.433502,124.658447 157.801636,130.568451 175.327271,136.729111 
	C213.259125,150.063049 251.407181,162.782333 289.477783,175.720795 
	C294.982666,177.591644 300.510803,179.414566 306.098816,181.012894 
	C309.715485,182.047348 311.236450,184.137619 311.190826,187.876617 
	C311.070923,197.700150 311.041931,207.527390 311.186401,217.350082 
	C311.234283,220.604889 309.829193,222.050278 306.880859,222.992615 
	C285.963470,229.678284 265.092316,236.508438 244.191620,243.246552 
	C216.800552,252.077072 189.199753,260.310242 162.075134,269.892853 
	C147.281616,275.119110 132.406464,274.830414 117.305153,274.750793 
	C114.046928,274.733612 113.100739,273.087189 113.115479,270.018372 
	C113.177063,257.195221 113.036758,244.371262 113.029198,231.547577 
	C113.010155,199.237335 113.022339,166.927078 113.023331,134.616837 
	C113.023560,127.126999 113.026009,127.126999 121.041306,126.880753 
M179.612030,258.064484 
	C182.409348,259.487885 185.076797,260.147369 187.785217,257.656708 
	C188.689651,256.825043 190.335220,256.854919 191.403915,256.136688 
	C195.994064,253.051788 203.355423,255.301575 205.126694,250.108948 
	C209.733765,249.497925 213.307327,249.411636 216.654892,248.497635 
	C223.211761,246.707352 229.646393,244.467331 236.124741,242.392014 
	C245.192551,239.487152 254.254440,236.563751 263.314423,233.634689 
	C263.434387,233.595901 263.496735,233.378983 263.712311,233.055725 
	C262.873901,232.138916 261.990173,231.172577 260.872833,229.950760 
	C265.735870,227.367950 272.706146,238.101624 274.981293,227.516708 
	C287.428009,227.394501 297.862854,222.460938 308.357330,216.968475 
	C307.625214,215.327927 306.627197,214.140182 306.651886,212.974106 
	C306.795654,206.189758 306.750427,199.354736 307.621887,192.647644 
	C308.287842,187.522141 306.737427,184.938614 301.919739,183.302078 
	C288.971771,178.903748 276.165009,174.090469 263.226562,169.662842 
	C261.024017,168.909103 258.430786,169.368546 256.049744,169.038620 
	C254.577881,168.834641 253.070816,168.388184 251.742950,167.723969 
	C244.381485,164.041534 237.471985,159.367462 228.483002,160.279205 
	C225.807419,160.550598 222.137512,159.448471 220.296051,157.604599 
	C217.281113,154.585739 214.722717,153.330643 210.644608,155.036057 
	C209.754013,155.408493 208.004517,154.065369 206.805054,153.277252 
	C205.226242,152.239914 203.938828,150.688095 202.274261,149.869797 
	C200.062653,148.782578 197.662033,147.917709 195.247116,147.439072 
	C189.768356,146.353165 185.110443,141.699341 178.656189,144.228683 
	C177.007751,144.874680 172.363617,145.269455 172.781845,140.236328 
	C172.834610,139.601334 171.093491,138.598221 170.024429,138.125259 
	C163.884781,135.409012 156.072311,138.184128 150.844391,132.298309 
	C150.500229,131.910843 149.555649,132.101059 148.918076,131.923172 
	C140.284576,129.514252 131.659470,130.309036 122.811455,130.698837 
	C116.283234,130.986404 116.893364,133.687363 116.894295,137.729477 
	C116.903976,179.712143 116.889412,221.694794 116.889320,263.677460 
	C116.889320,265.342346 116.689110,267.080841 117.104500,268.646454 
	C117.386154,269.708069 118.557678,271.306976 119.374367,271.333405 
	C127.343681,271.591614 135.444534,272.458832 143.264450,271.382996 
	C151.550934,270.242981 159.693466,267.532928 167.660156,264.810120 
	C171.727905,263.419891 175.273026,260.500519 179.612030,258.064484 
z"/>
<path fill="#11FE02" opacity="1.000000" stroke="none" 
	d="
M179.333191,258.168396 
	C175.273026,260.500519 171.727905,263.419891 167.660156,264.810120 
	C159.693466,267.532928 151.550934,270.242981 143.264450,271.382996 
	C135.444534,272.458832 127.343681,271.591614 119.374367,271.333405 
	C118.557678,271.306976 117.386154,269.708069 117.104500,268.646454 
	C116.689110,267.080841 116.889320,265.342346 116.889320,263.677460 
	C116.889412,221.694794 116.903976,179.712143 116.894295,137.729477 
	C116.893364,133.687363 116.283234,130.986404 122.811455,130.698837 
	C131.659470,130.309036 140.284576,129.514252 148.918076,131.923172 
	C149.555649,132.101059 150.500229,131.910843 150.844391,132.298309 
	C156.072311,138.184128 163.884781,135.409012 170.024429,138.125259 
	C171.093491,138.598221 172.834610,139.601334 172.781845,140.236328 
	C172.363617,145.269455 177.007751,144.874680 178.656189,144.228683 
	C185.110443,141.699341 189.768356,146.353165 195.247116,147.439072 
	C197.662033,147.917709 200.062653,148.782578 202.274261,149.869797 
	C203.938828,150.688095 205.226242,152.239914 206.805054,153.277252 
	C208.004517,154.065369 209.754013,155.408493 210.644608,155.036057 
	C214.722717,153.330643 217.281113,154.585739 220.296051,157.604599 
	C222.137512,159.448471 225.807419,160.550598 228.483002,160.279205 
	C237.471985,159.367462 244.381485,164.041534 251.742950,167.723969 
	C253.070816,168.388184 254.577881,168.834641 256.049744,169.038620 
	C258.430786,169.368546 261.024017,168.909103 263.226562,169.662842 
	C276.165009,174.090469 288.971771,178.903748 301.919739,183.302078 
	C306.737427,184.938614 308.287842,187.522141 307.621887,192.647644 
	C306.750427,199.354736 306.795654,206.189758 306.651886,212.974106 
	C306.627197,214.140182 307.625214,215.327927 308.357330,216.968475 
	C297.862854,222.460938 287.428009,227.394501 274.981293,227.516708 
	C272.706146,238.101624 265.735870,227.367950 260.872833,229.950760 
	C261.990173,231.172577 262.873901,232.138916 263.712311,233.055725 
	C263.496735,233.378983 263.434387,233.595901 263.314423,233.634689 
	C254.254440,236.563751 245.192551,239.487152 236.124741,242.392014 
	C229.646393,244.467331 223.211761,246.707352 216.654892,248.497635 
	C213.307327,249.411636 209.733765,249.497925 205.126694,250.108948 
	C203.355423,255.301575 195.994064,253.051788 191.403915,256.136688 
	C190.335220,256.854919 188.689651,256.825043 187.785217,257.656708 
	C185.076797,260.147369 182.409348,259.487885 179.333191,258.168396 
M279.830811,207.678131 
	C280.727570,206.145294 281.490662,204.510040 282.562500,203.111359 
	C283.454407,201.947433 284.708954,201.061386 285.694244,200.152496 
	C282.497772,199.857178 279.942810,200.085831 277.732758,199.319611 
	C273.218781,197.754593 268.870514,195.698959 264.493652,193.756134 
	C262.239380,192.755493 260.103546,191.488800 257.852722,190.479370 
	C255.775162,189.547638 253.647858,188.199265 251.485870,188.082520 
	C245.083588,187.736786 238.851105,187.093155 232.191238,183.791809 
	C234.845901,182.246292 236.587662,181.232269 238.329422,180.218246 
	C235.512405,179.406128 233.014450,179.777145 230.508026,180.077515 
	C228.903732,180.269775 227.164917,180.812851 225.695450,180.418915 
	C215.740768,177.750259 205.847107,174.854843 195.923218,172.070145 
	C187.152298,169.608917 178.384338,167.134125 169.583633,164.782990 
	C163.276428,163.097992 156.992599,160.887482 150.562027,160.215210 
	C142.837128,159.407593 140.997650,161.603653 141.110245,169.305817 
	C141.338806,184.938156 141.871078,200.566833 142.005478,216.199371 
	C142.062531,222.835495 141.360764,229.475235 141.151825,236.117996 
	C141.068314,238.772842 141.728027,241.418732 145.098724,241.354660 
	C152.701920,241.210129 160.300415,240.814407 167.899872,240.497757 
	C168.204300,240.485062 168.648163,240.317795 168.776184,240.084717 
	C171.946716,234.312714 178.158340,235.433701 183.125290,233.790939 
	C184.946121,233.188705 188.088760,232.182449 188.638733,232.895386 
	C191.098633,236.084152 193.570206,234.747147 196.096313,233.666321 
	C200.461166,231.798813 204.742233,229.736603 209.084686,227.815384 
	C221.439285,222.349442 233.581161,215.904160 247.893982,219.234131 
	C248.461990,219.366302 249.133133,219.055237 249.989380,218.911560 
	C249.709595,217.689926 249.481949,216.695969 249.372681,216.218811 
	C253.372314,215.480103 257.892700,215.902435 260.596191,213.887283 
	C266.438721,209.532379 272.863373,208.720688 279.830811,207.678131 
M247.307205,182.770874 
	C247.390732,182.004196 247.615173,180.583481 247.537155,180.566681 
	C245.674286,180.165359 243.778946,179.914658 241.889526,179.636566 
	C241.783615,180.370575 241.677704,181.104568 241.571808,181.838562 
	C243.267944,182.176468 244.964081,182.514389 247.307205,182.770874 
M260.703064,176.437424 
	C258.579498,175.968735 256.455963,175.500061 254.332397,175.031372 
	C254.276733,175.898560 254.221069,176.765747 254.165405,177.632935 
	C256.270538,177.419724 258.375641,177.206497 260.703064,176.437424 
M215.339844,245.814331 
	C214.144836,245.404037 212.949844,244.993729 211.754837,244.583435 
	C211.664261,245.238968 211.573669,245.894501 211.483078,246.550034 
	C212.633011,246.417435 213.782959,246.284821 215.339844,245.814331 
M195.661346,152.054321 
	C195.484680,151.590012 195.308014,151.125717 195.131348,150.661407 
	C194.821198,150.894531 194.511063,151.127670 194.200912,151.360794 
	C194.568878,151.618210 194.936859,151.875626 195.661346,152.054321 
M168.955292,259.914001 
	C168.713318,260.269470 168.471329,260.624969 168.229340,260.980438 
	C168.641190,261.052460 169.053040,261.124451 169.464890,261.196472 
	C169.418076,260.749939 169.371277,260.303375 168.955292,259.914001 
z"/>
<path fill="#23E917" opacity="1.000000" stroke="none" 
	d="
M279.710327,207.923645 
	C272.863373,208.720688 266.438721,209.532379 260.596191,213.887283 
	C257.892700,215.902435 253.372314,215.480103 249.372681,216.218811 
	C249.481949,216.695969 249.709595,217.689926 249.989380,218.911560 
	C249.133133,219.055237 248.461990,219.366302 247.893982,219.234131 
	C233.581161,215.904160 221.439285,222.349442 209.084686,227.815384 
	C204.742233,229.736603 200.461166,231.798813 196.096313,233.666321 
	C193.570206,234.747147 191.098633,236.084152 188.638733,232.895386 
	C188.088760,232.182449 184.946121,233.188705 183.125290,233.790939 
	C178.158340,235.433701 171.946716,234.312714 168.776184,240.084717 
	C168.648163,240.317795 168.204300,240.485062 167.899872,240.497757 
	C160.300415,240.814407 152.701920,241.210129 145.098724,241.354660 
	C141.728027,241.418732 141.068314,238.772842 141.151825,236.117996 
	C141.360764,229.475235 142.062531,222.835495 142.005478,216.199371 
	C141.871078,200.566833 141.338806,184.938156 141.110245,169.305817 
	C140.997650,161.603653 142.837128,159.407593 150.562027,160.215210 
	C156.992599,160.887482 163.276428,163.097992 169.583633,164.782990 
	C178.384338,167.134125 187.152298,169.608917 195.923218,172.070145 
	C205.847107,174.854843 215.740768,177.750259 225.695450,180.418915 
	C227.164917,180.812851 228.903732,180.269775 230.508026,180.077515 
	C233.014450,179.777145 235.512405,179.406128 238.329422,180.218246 
	C236.587662,181.232269 234.845901,182.246292 232.191238,183.791809 
	C238.851105,187.093155 245.083588,187.736786 251.485870,188.082520 
	C253.647858,188.199265 255.775162,189.547638 257.852722,190.479370 
	C260.103546,191.488800 262.239380,192.755493 264.493652,193.756134 
	C268.870514,195.698959 273.218781,197.754593 277.732758,199.319611 
	C279.942810,200.085831 282.497772,199.857178 285.694244,200.152496 
	C284.708954,201.061386 283.454407,201.947433 282.562500,203.111359 
	C281.490662,204.510040 280.727570,206.145294 279.710327,207.923645 
M146.248184,201.499878 
	C146.243607,212.155319 146.232193,222.810760 146.237000,233.466202 
	C146.239944,240.022583 146.354904,240.167999 152.677551,238.410400 
	C192.562622,227.322906 232.440445,216.209229 272.300537,205.032394 
	C273.961304,204.566727 275.422028,203.387665 276.975922,202.540939 
	C276.904816,201.965179 276.833740,201.389404 276.762634,200.813629 
	C233.741577,187.795319 190.720505,174.777008 146.248184,161.319550 
	C146.248184,175.099625 146.248184,187.799744 146.248184,201.499878 
z"/>
<path fill="#23E917" opacity="1.000000" stroke="none" 
	d="
M246.983704,182.811584 
	C244.964081,182.514389 243.267944,182.176468 241.571808,181.838562 
	C241.677704,181.104568 241.783615,180.370575 241.889526,179.636566 
	C243.778946,179.914658 245.674286,180.165359 247.537155,180.566681 
	C247.615173,180.583481 247.390732,182.004196 246.983704,182.811584 
z"/>
<path fill="#16FB07" opacity="1.000000" stroke="none" 
	d="
M260.591919,176.715347 
	C258.375641,177.206497 256.270538,177.419724 254.165405,177.632935 
	C254.221069,176.765747 254.276733,175.898560 254.332397,175.031372 
	C256.455963,175.500061 258.579498,175.968735 260.591919,176.715347 
z"/>
<path fill="#26E51A" opacity="1.000000" stroke="none" 
	d="
M215.136368,245.983276 
	C213.782959,246.284821 212.633011,246.417435 211.483078,246.550034 
	C211.573669,245.894501 211.664261,245.238968 211.754837,244.583435 
	C212.949844,244.993729 214.144836,245.404037 215.136368,245.983276 
z"/>
<path fill="#26E51A" opacity="1.000000" stroke="none" 
	d="
M195.483093,152.093689 
	C194.936859,151.875626 194.568878,151.618210 194.200912,151.360794 
	C194.511063,151.127670 194.821198,150.894531 195.131348,150.661407 
	C195.308014,151.125717 195.484680,151.590012 195.483093,152.093689 
z"/>
<path fill="#26E51A" opacity="1.000000" stroke="none" 
	d="
M169.139877,259.885437 
	C169.371277,260.303375 169.418076,260.749939 169.464890,261.196472 
	C169.053040,261.124451 168.641190,261.052460 168.229340,260.980438 
	C168.471329,260.624969 168.713318,260.269470 169.139877,259.885437 
z"/>
<path fill="#010601" opacity="1.000000" stroke="none" 
	d="
M146.248184,200.999878 
	C146.248184,187.799744 146.248184,175.099625 146.248184,161.319550 
	C190.720505,174.777008 233.741577,187.795319 276.762634,200.813629 
	C276.833740,201.389404 276.904816,201.965179 276.975922,202.540939 
	C275.422028,203.387665 273.961304,204.566727 272.300537,205.032394 
	C232.440445,216.209229 192.562622,227.322906 152.677551,238.410400 
	C146.354904,240.167999 146.239944,240.022583 146.237000,233.466202 
	C146.232193,222.810760 146.243607,212.155319 146.248184,200.999878 
z"/>
</svg>