<svg version="1.1" id="Layer_1" xmlns="http://www.w3.org/2000/svg" xmlns:xlink="http://www.w3.org/1999/xlink" x="0px" y="0px"
	 width="100%" viewBox="0 0 256 256" enable-background="new 0 0 256 256" xml:space="preserve">
<path fill="#E90129" opacity="1.000000" stroke="none" 
	d="
M142.000000,257.000000 
	C134.645752,257.000000 127.291496,257.000000 119.197067,256.763794 
	C115.907875,255.868195 113.394745,254.950745 110.804115,254.590378 
	C91.022377,251.838669 73.047913,244.532867 56.583054,233.347580 
	C52.634274,230.664993 48.696663,227.965958 44.874268,225.144836 
	C44.994621,225.015167 44.748775,225.268753 44.673706,224.935089 
	C41.226166,220.957764 37.770775,217.386932 34.495167,213.658157 
	C17.598969,194.424438 6.692368,172.420502 3.514637,146.797195 
	C3.225207,144.463409 1.863676,142.262573 1.000001,140.000000 
	C1.000000,132.979050 1.000000,125.958107 1.267563,118.251129 
	C2.067948,114.030396 2.600769,110.495682 3.124379,106.664322 
	C3.145116,105.973595 3.175063,105.579514 3.480129,104.962891 
	C4.171540,103.671150 4.728711,102.634323 4.982842,101.527893 
	C8.418731,86.568810 14.127018,72.596634 22.697428,59.805115 
	C24.862408,56.573830 26.582920,53.044754 28.513302,49.610512 
	C28.518927,49.568501 28.595268,49.531658 28.928894,49.470711 
	C34.230392,43.995335 39.198269,38.580906 44.288918,33.058022 
	C44.411694,32.949566 44.691151,32.778557 45.032867,32.735294 
	C46.762794,31.324684 48.151005,29.957338 49.557060,28.552151 
	C49.574898,28.514309 49.657887,28.503613 50.000362,28.525530 
	C51.983650,27.172508 53.624462,25.797567 55.332336,24.324947 
	C55.399391,24.227264 55.597336,24.096981 55.807762,24.112991 
	C56.321205,24.042858 56.504383,23.845486 56.667198,23.403410 
	C56.766674,23.269936 56.992565,23.025362 57.358635,22.982063 
	C59.381462,22.170485 61.142040,21.568361 62.678829,20.608093 
	C77.259003,11.497619 93.131134,5.972820 110.044754,3.196921 
	C112.419395,2.807190 114.684303,1.748851 117.000000,1.000000 
	C125.354233,1.000000 133.708466,1.000000 142.703339,1.305690 
	C145.917145,2.208222 148.473267,2.894807 151.066177,3.387970 
	C175.826462,8.097321 197.612717,18.652973 216.042740,36.018143 
	C236.690018,55.472473 249.469803,79.134827 254.678757,106.981239 
	C254.886795,108.093315 256.201141,108.998444 257.000000,110.000000 
	C257.000000,120.687561 257.000000,131.375122 256.693420,142.702881 
	C255.869751,145.256668 255.174210,147.141678 254.862534,149.088150 
	C250.720825,174.953995 239.840332,197.486145 221.651245,216.408798 
	C217.535812,220.690201 213.325699,224.880585 209.128647,229.107529 
	C209.098129,229.102188 209.108398,229.163300 208.764297,229.209106 
	C207.715973,229.687500 206.976334,230.071930 206.312698,230.559738 
	C192.508942,240.705994 177.508057,248.342285 160.773911,252.375397 
	C154.508347,253.885437 148.257538,255.456665 142.000000,257.000000 
M192.603317,79.575218 
	C191.505203,78.887886 190.491669,77.864914 189.296249,77.563652 
	C171.885910,73.176018 154.498215,68.675301 136.982010,64.750946 
	C133.556137,63.983410 129.327591,64.827812 125.958435,66.163078 
	C117.316689,69.587975 108.911690,73.626228 100.505440,77.616058 
	C98.808594,78.421432 97.523483,80.094330 95.887680,81.506287 
	C95.887680,81.506287 95.682899,81.449097 94.856880,81.318001 
	C93.880226,81.484299 92.818077,81.457718 91.940178,81.846817 
	C83.432518,85.617516 74.929840,89.402649 66.504700,93.352081 
	C65.509270,93.818703 64.987152,95.295013 64.083321,96.202057 
	C64.083321,96.202057 64.240479,96.289032 63.436951,96.163879 
	C55.227394,97.363892 53.013279,99.574394 54.658836,106.040115 
	C60.161850,127.662567 65.906494,149.223526 71.559761,170.807739 
	C72.591164,174.745636 75.236969,176.125549 79.103035,175.538895 
	C80.584824,175.314041 82.074310,174.788330 83.538109,174.858994 
	C89.033195,175.124329 90.395485,172.197968 89.984543,167.334152 
	C89.004227,155.731277 88.186325,144.114563 87.330231,132.501419 
	C87.235214,131.212585 87.317390,129.910675 87.317390,128.614838 
	C87.745537,128.611038 88.173676,128.607254 88.601822,128.603470 
	C89.067726,130.667191 89.609192,132.717209 89.986877,134.796951 
	C91.950752,145.610764 93.961861,156.417358 95.766586,167.258087 
	C96.508438,171.714218 99.011612,173.085510 103.159485,172.532730 
	C107.774841,171.917648 112.389175,171.249420 117.024918,170.844116 
	C123.011070,170.320724 124.336327,169.225967 123.925896,163.043411 
	C123.099342,150.592453 121.936676,138.164062 120.978340,125.721298 
	C120.853745,124.103508 121.117226,122.455826 121.200951,120.821983 
	C122.621132,121.756783 123.063408,122.651947 123.232407,123.596024 
	C125.519356,136.371567 127.879616,149.135681 129.977814,161.942581 
	C130.965424,167.970673 131.444870,168.634689 137.675964,167.964722 
	C142.804550,167.413300 147.898117,166.428314 153.036652,166.108215 
	C157.908386,165.804718 159.738785,163.955963 159.169968,158.859589 
	C157.619949,144.972290 156.465164,131.040146 155.241989,117.118019 
	C155.075317,115.220909 155.412399,113.279533 155.516235,111.358658 
	C155.956131,111.354767 156.396027,111.350876 156.835922,111.346985 
	C157.206146,112.734421 157.680618,114.103378 157.930450,115.512169 
	C160.401733,129.447464 163.022476,143.360474 165.185715,157.344025 
	C166.015594,162.708694 168.683640,164.509293 173.667389,163.819107 
	C178.276581,163.180801 182.860580,162.199554 187.489532,161.909760 
	C192.277374,161.609985 194.164062,159.654678 194.127182,154.739548 
	C193.954727,131.750259 194.082001,108.758827 193.993301,85.768578 
	C193.985992,83.873772 193.163895,81.982101 192.844971,80.127579 
	C192.844971,80.127579 192.805862,80.252029 192.603317,79.575218 
M163.919952,188.277130 
	C172.119278,189.691315 180.302475,191.216919 188.534088,192.407974 
	C189.877319,192.602341 192.673294,191.372986 192.701981,190.710876 
	C193.008484,183.636505 192.892517,176.543854 192.892517,168.984085 
	C190.123032,169.229614 188.157944,169.350128 186.206680,169.585358 
	C170.841522,171.437683 155.465378,173.211990 140.132339,175.301666 
	C138.140076,175.573181 135.148773,177.189606 134.751190,178.732269 
	C133.843384,182.254684 136.401001,183.891708 139.900970,184.399002 
	C147.639175,185.520538 155.342377,186.883743 163.919952,188.277130 
z"/>
<path fill="#030000" opacity="1.000000" stroke="none" 
	d="
M101.000000,257.000000 
	C67.737946,257.000000 34.475891,257.000000 1.000000,257.000000 
	C1.000000,222.312729 1.000000,187.625031 1.380875,152.476196 
	C2.257975,153.374008 2.913390,154.697327 3.226376,156.097229 
	C7.445245,174.966782 14.915178,192.398087 27.179461,207.413513 
	C32.438953,213.852844 38.857075,219.345810 44.748772,225.268753 
	C44.748775,225.268753 44.994621,225.015167 44.954247,225.470154 
	C45.215317,226.320831 45.457958,226.784805 45.826683,227.102417 
	C60.429222,239.681686 77.195183,248.100021 95.700417,253.295120 
	C97.659256,253.845047 99.242508,255.732864 101.000000,257.000000 
z"/>
<path fill="#020000" opacity="1.000000" stroke="none" 
	d="
M44.691151,32.778557 
	C44.691151,32.778557 44.411694,32.949566 43.946915,33.090099 
	C38.519848,38.664307 33.557556,44.097980 28.595268,49.531658 
	C28.595268,49.531658 28.518927,49.568501 28.214930,49.739632 
	C23.446840,56.628807 18.412197,63.044197 14.650862,70.135017 
	C8.844209,81.081650 4.268257,92.606255 3.205010,105.185440 
	C3.175063,105.579514 3.145116,105.973595 2.771173,106.789070 
	C1.951451,107.140312 1.475726,107.070152 1.000000,107.000000 
	C1.000000,71.740768 1.000000,36.481544 1.000000,1.000000 
	C35.020573,1.000000 69.041626,1.000000 103.493401,1.378403 
	C95.955772,4.434810 87.705299,6.493618 80.096397,9.960502 
	C72.075928,13.614909 64.668068,18.613846 56.992565,23.025360 
	C56.992565,23.025362 56.766674,23.269936 56.449474,23.370579 
	C55.797546,23.546167 55.619232,23.754753 55.597336,24.096981 
	C55.597336,24.096981 55.399391,24.227264 55.002522,24.341141 
	C52.956398,25.804546 51.307140,27.154078 49.657887,28.503613 
	C49.657887,28.503613 49.574898,28.514309 49.234161,28.629946 
	C47.492664,30.089907 46.091908,31.434231 44.691151,32.778557 
z"/>
<path fill="#030000" opacity="1.000000" stroke="none" 
	d="
M257.000000,154.000000 
	C257.000000,188.260269 257.000000,222.520554 257.000000,257.000000 
	C222.979416,257.000000 188.958374,257.000000 154.583542,256.658813 
	C155.574524,255.752121 156.870804,254.976181 158.271484,254.653412 
	C173.141403,251.226852 187.038010,245.488388 199.711548,236.983765 
	C203.077438,234.725067 205.988510,231.788589 209.108398,229.163300 
	C209.108398,229.163300 209.098129,229.102188 209.478821,229.098557 
	C210.976868,228.406097 212.223831,227.863785 213.192459,227.006882 
	C233.837036,208.743179 247.939102,186.490723 254.365326,159.527832 
	C254.828094,157.586212 256.102783,155.838089 257.000000,154.000000 
z"/>
<path fill="#010000" opacity="1.000000" stroke="none" 
	d="
M157.000000,1.000000 
	C190.260269,1.000000 223.520523,1.000000 257.000000,1.000000 
	C257.000000,34.020573 257.000000,67.041626 256.637329,100.457962 
	C255.490173,99.262703 254.441544,97.748047 253.959747,96.070580 
	C240.237259,48.292416 209.312973,17.801609 161.700485,3.956246 
	C159.991608,3.459316 158.560547,2.007037 157.000000,1.000000 
z"/>
<path fill="#58040F" opacity="1.000000" stroke="none" 
	d="
M156.535355,1.000000 
	C158.560547,2.007037 159.991608,3.459316 161.700485,3.956246 
	C209.312973,17.801609 240.237259,48.292416 253.959747,96.070580 
	C254.441544,97.748047 255.490173,99.262703 256.637329,100.926620 
	C257.000000,103.700012 257.000000,106.400032 257.000000,109.550018 
	C256.201141,108.998444 254.886795,108.093315 254.678757,106.981239 
	C249.469803,79.134827 236.690018,55.472473 216.042740,36.018143 
	C197.612717,18.652973 175.826462,8.097321 151.066177,3.387970 
	C148.473267,2.894807 145.917145,2.208222 143.171982,1.305690 
	C147.356903,1.000000 151.713806,1.000000 156.535355,1.000000 
z"/>
<path fill="#8D0E23" opacity="1.000000" stroke="none" 
	d="
M44.673702,224.935089 
	C38.857075,219.345810 32.438953,213.852844 27.179461,207.413513 
	C14.915178,192.398087 7.445245,174.966782 3.226376,156.097229 
	C2.913390,154.697327 2.257975,153.374008 1.380875,152.007538 
	C1.000000,148.307098 1.000000,144.614182 1.000001,140.460632 
	C1.863676,142.262573 3.225207,144.463409 3.514637,146.797195 
	C6.692368,172.420502 17.598969,194.424438 34.495167,213.658157 
	C37.770775,217.386932 41.226166,220.957764 44.673702,224.935089 
z"/>
<path fill="#59040F" opacity="1.000000" stroke="none" 
	d="
M257.000000,153.541931 
	C256.102783,155.838089 254.828094,157.586212 254.365326,159.527832 
	C247.939102,186.490723 233.837036,208.743179 213.192459,227.006882 
	C212.223831,227.863785 210.976868,228.406097 209.509338,229.103897 
	C213.325699,224.880585 217.535812,220.690201 221.651245,216.408798 
	C239.840332,197.486145 250.720825,174.953995 254.862534,149.088150 
	C255.174210,147.141678 255.869751,145.256668 256.693420,143.171539 
	C257.000000,146.361282 257.000000,149.722580 257.000000,153.541931 
z"/>
<path fill="#8D0E23" opacity="1.000000" stroke="none" 
	d="
M101.467941,257.000000 
	C99.242508,255.732864 97.659256,253.845047 95.700417,253.295120 
	C77.195183,248.100021 60.429222,239.681686 45.826683,227.102417 
	C45.457958,226.784805 45.215317,226.320831 44.833893,225.599808 
	C48.696663,227.965958 52.634274,230.664993 56.583054,233.347580 
	C73.047913,244.532867 91.022377,251.838669 110.804115,254.590378 
	C113.394745,254.950745 115.907875,255.868195 118.728455,256.763794 
	C113.311958,257.000000 107.623917,257.000000 101.467941,257.000000 
z"/>
<path fill="#76091A" opacity="1.000000" stroke="none" 
	d="
M57.358635,22.982063 
	C64.668068,18.613846 72.075928,13.614909 80.096397,9.960502 
	C87.705299,6.493618 95.955772,4.434810 103.962059,1.378403 
	C108.024544,1.000000 112.049088,1.000000 116.536819,1.000000 
	C114.684303,1.748851 112.419395,2.807190 110.044754,3.196921 
	C93.131134,5.972820 77.259003,11.497619 62.678829,20.608093 
	C61.142040,21.568361 59.381462,22.170485 57.358635,22.982063 
z"/>
<path fill="#59040F" opacity="1.000000" stroke="none" 
	d="
M208.764297,229.209106 
	C205.988510,231.788589 203.077438,234.725067 199.711548,236.983765 
	C187.038010,245.488388 173.141403,251.226852 158.271484,254.653412 
	C156.870804,254.976181 155.574524,255.752121 154.114883,256.658813 
	C150.307098,257.000000 146.614182,257.000000 142.460632,257.000000 
	C148.257538,255.456665 154.508347,253.885437 160.773911,252.375397 
	C177.508057,248.342285 192.508942,240.705994 206.312698,230.559738 
	C206.976334,230.071930 207.715973,229.687500 208.764297,229.209106 
z"/>
<path fill="#8D0E23" opacity="1.000000" stroke="none" 
	d="
M1.000000,107.458069 
	C1.475726,107.070152 1.951451,107.140312 2.780383,107.085724 
	C2.600769,110.495682 2.067948,114.030396 1.267563,117.782555 
	C1.000000,114.638710 1.000000,111.277428 1.000000,107.458069 
z"/>
<path fill="#050001" opacity="1.000000" stroke="none" 
	d="
M95.682899,81.449097 
	C95.682899,81.449097 95.887680,81.506287 96.359848,81.411980 
	C107.577400,76.472710 118.265457,71.492500 129.115631,66.894867 
	C131.333221,65.955193 134.309982,65.819267 136.680710,66.385353 
	C155.424118,70.860931 174.105438,75.596443 192.805862,80.252029 
	C192.805862,80.252029 192.844971,80.127579 192.767609,80.574203 
	C192.706070,105.503990 192.643524,129.987717 192.819122,154.469742 
	C192.846619,158.303833 191.574341,159.877579 187.839050,160.172501 
	C182.367020,160.604568 176.918579,161.342941 171.463791,161.982559 
	C168.740356,162.301910 167.554031,161.091248 167.212280,158.406799 
	C166.687347,154.283569 165.890564,150.194092 165.176147,146.096039 
	C163.089844,134.128662 161.049225,122.152443 158.800095,110.215607 
	C158.561325,108.948372 157.063278,107.918411 156.149445,106.778374 
	C155.140121,108.230324 153.994797,109.611923 153.189209,111.169266 
	C152.872284,111.781937 153.337723,112.785347 153.407623,113.614128 
	C154.652603,128.374237 155.737747,143.150299 157.218719,157.886612 
	C157.708664,162.761871 155.960587,164.473160 151.319550,164.668579 
	C147.007690,164.850143 142.656693,165.332840 138.440903,166.234512 
	C133.787262,167.229828 132.161331,165.263550 131.473938,161.026733 
	C129.289047,147.560104 126.977859,134.112061 124.484276,120.699829 
	C124.168144,118.999451 122.477409,117.554626 121.423515,115.991409 
	C120.585983,117.729805 119.514503,119.401596 118.993835,121.230209 
	C118.651070,122.434006 119.079178,123.865898 119.201096,125.192070 
	C120.343948,137.624344 121.500732,150.055313 122.639984,162.487915 
	C122.908478,165.417953 123.159050,168.279800 118.977486,168.709396 
	C113.516869,169.270386 108.069778,169.972214 102.625557,170.680298 
	C99.437035,171.094986 97.650032,170.152283 97.217422,166.614410 
	C96.551628,161.169586 95.460724,155.776596 94.544022,150.362656 
	C93.322250,143.147079 92.217010,135.907639 90.762810,128.739105 
	C90.482841,127.358994 88.824409,126.258514 87.801880,125.029037 
	C86.865250,126.544403 85.537842,127.957489 85.106598,129.605133 
	C84.709297,131.123077 85.257477,132.894775 85.419220,134.551758 
	C86.470451,145.320892 87.416115,156.102264 88.646019,166.851059 
	C89.099541,170.814590 88.064758,172.958710 83.810860,172.917130 
	C82.653214,172.905792 81.473358,173.038086 80.337807,173.270859 
	C75.877663,174.185150 73.861664,172.509659 72.730705,167.934784 
	C68.099205,149.199783 63.188019,130.529770 58.075073,111.919548 
	C55.193653,101.431694 54.926243,101.505165 64.240479,96.289032 
	C64.240479,96.289032 64.083321,96.202057 64.524391,96.193405 
	C75.204613,91.272873 85.443756,86.360985 95.682899,81.449097 
z"/>
<path fill="#B3122E" opacity="1.000000" stroke="none" 
	d="
M63.838715,96.226456 
	C54.926243,101.505165 55.193653,101.431694 58.075073,111.919548 
	C63.188019,130.529770 68.099205,149.199783 72.730705,167.934784 
	C73.861664,172.509659 75.877663,174.185150 80.337807,173.270859 
	C81.473358,173.038086 82.653214,172.905792 83.810860,172.917130 
	C88.064758,172.958710 89.099541,170.814590 88.646019,166.851059 
	C87.416115,156.102264 86.470451,145.320892 85.419220,134.551758 
	C85.257477,132.894775 84.709297,131.123077 85.106598,129.605133 
	C85.537842,127.957489 86.865250,126.544403 87.801880,125.029037 
	C88.824409,126.258514 90.482841,127.358994 90.762810,128.739105 
	C92.217010,135.907639 93.322250,143.147079 94.544022,150.362656 
	C95.460724,155.776596 96.551628,161.169586 97.217422,166.614410 
	C97.650032,170.152283 99.437035,171.094986 102.625557,170.680298 
	C108.069778,169.972214 113.516869,169.270386 118.977486,168.709396 
	C123.159050,168.279800 122.908478,165.417953 122.639984,162.487915 
	C121.500732,150.055313 120.343948,137.624344 119.201096,125.192070 
	C119.079178,123.865898 118.651070,122.434006 118.993835,121.230209 
	C119.514503,119.401596 120.585983,117.729805 121.423515,115.991409 
	C122.477409,117.554626 124.168144,118.999451 124.484276,120.699829 
	C126.977859,134.112061 129.289047,147.560104 131.473938,161.026733 
	C132.161331,165.263550 133.787262,167.229828 138.440903,166.234512 
	C142.656693,165.332840 147.007690,164.850143 151.319550,164.668579 
	C155.960587,164.473160 157.708664,162.761871 157.218719,157.886612 
	C155.737747,143.150299 154.652603,128.374237 153.407623,113.614128 
	C153.337723,112.785347 152.872284,111.781937 153.189209,111.169266 
	C153.994797,109.611923 155.140121,108.230324 156.149445,106.778374 
	C157.063278,107.918411 158.561325,108.948372 158.800095,110.215607 
	C161.049225,122.152443 163.089844,134.128662 165.176147,146.096039 
	C165.890564,150.194092 166.687347,154.283569 167.212280,158.406799 
	C167.554031,161.091248 168.740356,162.301910 171.463791,161.982559 
	C176.918579,161.342941 182.367020,160.604568 187.839050,160.172501 
	C191.574341,159.877579 192.846619,158.303833 192.819122,154.469742 
	C192.643524,129.987717 192.706070,105.503990 192.705307,80.554901 
	C193.163895,81.982101 193.985992,83.873772 193.993301,85.768578 
	C194.082001,108.758827 193.954727,131.750259 194.127182,154.739548 
	C194.164062,159.654678 192.277374,161.609985 187.489532,161.909760 
	C182.860580,162.199554 178.276581,163.180801 173.667389,163.819107 
	C168.683640,164.509293 166.015594,162.708694 165.185715,157.344025 
	C163.022476,143.360474 160.401733,129.447464 157.930450,115.512169 
	C157.680618,114.103378 157.206146,112.734421 156.835922,111.346985 
	C156.396027,111.350876 155.956131,111.354767 155.516235,111.358658 
	C155.412399,113.279533 155.075317,115.220909 155.241989,117.118019 
	C156.465164,131.040146 157.619949,144.972290 159.169968,158.859589 
	C159.738785,163.955963 157.908386,165.804718 153.036652,166.108215 
	C147.898117,166.428314 142.804550,167.413300 137.675964,167.964722 
	C131.444870,168.634689 130.965424,167.970673 129.977814,161.942581 
	C127.879616,149.135681 125.519356,136.371567 123.232407,123.596024 
	C123.063408,122.651947 122.621132,121.756783 121.200951,120.821983 
	C121.117226,122.455826 120.853745,124.103508 120.978340,125.721298 
	C121.936676,138.164062 123.099342,150.592453 123.925896,163.043411 
	C124.336327,169.225967 123.011070,170.320724 117.024918,170.844116 
	C112.389175,171.249420 107.774841,171.917648 103.159485,172.532730 
	C99.011612,173.085510 96.508438,171.714218 95.766586,167.258087 
	C93.961861,156.417358 91.950752,145.610764 89.986877,134.796951 
	C89.609192,132.717209 89.067726,130.667191 88.601822,128.603470 
	C88.173676,128.607254 87.745537,128.611038 87.317390,128.614838 
	C87.317390,129.910675 87.235214,131.212585 87.330231,132.501419 
	C88.186325,144.114563 89.004227,155.731277 89.984543,167.334152 
	C90.395485,172.197968 89.033195,175.124329 83.538109,174.858994 
	C82.074310,174.788330 80.584824,175.314041 79.103035,175.538895 
	C75.236969,176.125549 72.591164,174.745636 71.559761,170.807739 
	C65.906494,149.223526 60.161850,127.662567 54.658836,106.040115 
	C53.013279,99.574394 55.227394,97.363892 63.838715,96.226456 
z"/>
<path fill="#0C0001" opacity="1.000000" stroke="none" 
	d="
M163.489899,188.212769 
	C155.342377,186.883743 147.639175,185.520538 139.900970,184.399002 
	C136.401001,183.891708 133.843384,182.254684 134.751190,178.732269 
	C135.148773,177.189606 138.140076,175.573181 140.132339,175.301666 
	C155.465378,173.211990 170.841522,171.437683 186.206680,169.585358 
	C188.157944,169.350128 190.123032,169.229614 192.892517,168.984085 
	C192.892517,176.543854 193.008484,183.636505 192.701981,190.710876 
	C192.673294,191.372986 189.877319,192.602341 188.534088,192.407974 
	C180.302475,191.216919 172.119278,189.691315 163.489899,188.212769 
z"/>
<path fill="#B3122E" opacity="1.000000" stroke="none" 
	d="
M192.704590,79.913620 
	C174.105438,75.596443 155.424118,70.860931 136.680710,66.385353 
	C134.309982,65.819267 131.333221,65.955193 129.115631,66.894867 
	C118.265457,71.492500 107.577400,76.472710 96.440285,81.342468 
	C97.523483,80.094330 98.808594,78.421432 100.505440,77.616058 
	C108.911690,73.626228 117.316689,69.587975 125.958435,66.163078 
	C129.327591,64.827812 133.556137,63.983410 136.982010,64.750946 
	C154.498215,68.675301 171.885910,73.176018 189.296249,77.563652 
	C190.491669,77.864914 191.505203,78.887886 192.704590,79.913620 
z"/>
<path fill="#8D0E23" opacity="1.000000" stroke="none" 
	d="
M3.480129,104.962891 
	C4.268257,92.606255 8.844209,81.081650 14.650862,70.135017 
	C18.412197,63.044197 23.446840,56.628807 28.209305,49.781643 
	C26.582920,53.044754 24.862408,56.573830 22.697428,59.805115 
	C14.127018,72.596634 8.418731,86.568810 4.982842,101.527893 
	C4.728711,102.634323 4.171540,103.671150 3.480129,104.962891 
z"/>
<path fill="#B3122E" opacity="1.000000" stroke="none" 
	d="
M95.269890,81.383545 
	C85.443756,86.360985 75.204613,91.272873 64.605545,96.244019 
	C64.987152,95.295013 65.509270,93.818703 66.504700,93.352081 
	C74.929840,89.402649 83.432518,85.617516 91.940178,81.846817 
	C92.818077,81.457718 93.880226,81.484299 95.269890,81.383545 
z"/>
<path fill="#8D0E23" opacity="1.000000" stroke="none" 
	d="
M28.928892,49.470711 
	C33.557556,44.097980 38.519848,38.664307 43.824142,33.198555 
	C39.198269,38.580906 34.230392,43.995335 28.928892,49.470711 
z"/>
<path fill="#8D0E23" opacity="1.000000" stroke="none" 
	d="
M50.000362,28.525528 
	C51.307140,27.154078 52.956398,25.804546 54.935463,24.438822 
	C53.624462,25.797567 51.983650,27.172508 50.000362,28.525528 
z"/>
<path fill="#8D0E23" opacity="1.000000" stroke="none" 
	d="
M45.032867,32.735294 
	C46.091908,31.434231 47.492664,30.089907 49.216320,28.667788 
	C48.151005,29.957338 46.762794,31.324684 45.032867,32.735294 
z"/>
<path fill="#8D0E23" opacity="1.000000" stroke="none" 
	d="
M55.807762,24.112991 
	C55.619232,23.754753 55.797546,23.546167 56.349998,23.504055 
	C56.504383,23.845486 56.321205,24.042858 55.807762,24.112991 
z"/>
</svg>