<svg version="1.1" id="Layer_1" xmlns="http://www.w3.org/2000/svg" xmlns:xlink="http://www.w3.org/1999/xlink" x="0px" y="0px"
	 width="100%" viewBox="0 0 148 148" enable-background="new 0 0 148 148" xml:space="preserve">
<path fill="#EB032A" opacity="1.000000" stroke="none" 
	d="
M88.000000,149.000000 
	C79.312439,149.000000 70.624870,149.000000 61.451645,148.619995 
	C60.395287,147.928909 59.859249,147.479248 59.248940,147.326630 
	C29.393936,139.861328 10.633003,121.213654 2.791389,91.481567 
	C2.548577,90.560928 1.612744,89.823074 1.000000,89.000000 
	C1.000000,79.979103 1.000000,70.958206 1.380007,61.451645 
	C2.071094,60.395290 2.520586,59.859261 2.673392,59.248943 
	C10.146386,29.401581 28.778692,10.625440 58.518436,2.791351 
	C59.439034,2.548845 60.176926,1.612743 61.000000,0.999999 
	C69.687561,1.000000 78.375130,1.000000 87.597298,1.374217 
	C88.737968,1.995932 89.323921,2.326234 89.952980,2.479047 
	C120.509773,9.901958 139.685898,28.791487 147.361389,59.331837 
	C147.604080,60.297504 148.440414,61.113976 149.000000,62.000000 
	C149.000000,70.687561 149.000000,79.375130 148.619995,88.548355 
	C147.929230,89.603378 147.480804,90.138077 147.327484,90.747070 
	C139.730759,120.920387 120.863396,139.784424 90.674988,147.359833 
	C89.707085,147.602722 88.888298,148.439865 88.000000,149.000000 
M102.350723,44.238842 
	C94.921173,42.380276 87.501816,40.479019 80.052963,38.701336 
	C78.663826,38.369812 76.921341,38.014507 75.739159,38.548916 
	C61.207970,45.117741 46.750740,51.850174 32.112534,58.615128 
	C35.878231,72.981934 39.533695,86.928169 43.277111,101.209969 
	C46.402565,100.769653 49.089668,100.391090 51.892464,99.996231 
	C51.136940,90.593529 50.430054,81.796120 49.723164,72.998718 
	C50.436401,72.924995 51.149635,72.851273 51.862869,72.777550 
	C53.626850,81.601006 55.390827,90.424461 57.201649,99.482208 
	C62.352722,98.858757 66.912056,98.306923 71.672142,97.730789 
	C70.745270,88.442558 69.813698,79.756668 69.090027,71.053490 
	C68.997017,69.934898 69.983482,68.726540 70.953224,66.400360 
	C73.167259,77.708939 75.027832,87.212196 76.962852,97.095650 
	C82.100883,96.472862 86.816711,95.901253 91.828789,95.293732 
	C90.987000,85.448547 90.145363,76.184708 89.451370,66.909821 
	C89.337532,65.388466 89.873398,63.818501 90.109001,62.271004 
	C90.620766,62.350090 91.132530,62.429176 91.644295,62.508263 
	C93.567215,73.083015 95.490143,83.657761 97.471405,94.553329 
	C102.532745,93.925850 107.090660,93.360779 112.043488,92.746750 
	C112.043488,80.240906 112.043495,68.110016 112.043495,55.979118 
	C112.043495,46.534794 112.043488,46.534794 102.350723,44.238842 
M112.061760,104.524155 
	C112.061760,102.435326 112.061760,100.346504 112.061760,97.929192 
	C100.260727,99.400909 89.254974,100.773438 77.315559,102.262413 
	C78.426422,104.226105 78.969513,106.462639 79.901794,106.638733 
	C90.419281,108.625290 100.996483,110.295708 112.061760,112.134727 
	C112.061760,109.404343 112.061760,107.435173 112.061760,104.524155 
z"/>
<path fill="#FFFCFC" opacity="1.000000" stroke="none" 
	d="
M149.000000,61.531342 
	C148.440414,61.113976 147.604080,60.297504 147.361389,59.331837 
	C139.685898,28.791487 120.509773,9.901958 89.952980,2.479047 
	C89.323921,2.326234 88.737968,1.995932 88.065948,1.374217 
	C108.260147,1.000000 128.520294,1.000000 149.000000,1.000000 
	C149.000000,21.020359 149.000000,41.041523 149.000000,61.531342 
z"/>
<path fill="#FFFCFC" opacity="1.000000" stroke="none" 
	d="
M88.468658,149.000000 
	C88.888298,148.439865 89.707085,147.602722 90.674988,147.359833 
	C120.863396,139.784424 139.730759,120.920387 147.327484,90.747070 
	C147.480804,90.138077 147.929230,89.603378 148.619995,89.017014 
	C149.000000,108.927414 149.000000,128.854828 149.000000,149.000000 
	C128.979630,149.000000 108.958473,149.000000 88.468658,149.000000 
z"/>
<path fill="#FFFCFC" opacity="1.000000" stroke="none" 
	d="
M60.531342,0.999999 
	C60.176926,1.612743 59.439034,2.548845 58.518436,2.791351 
	C28.778692,10.625440 10.146386,29.401581 2.673392,59.248943 
	C2.520586,59.859261 2.071094,60.395290 1.380007,60.982986 
	C1.000000,41.073193 1.000000,21.146381 1.000000,1.000000 
	C20.687017,1.000000 40.374851,1.000000 60.531342,0.999999 
z"/>
<path fill="#FFFCFC" opacity="1.000000" stroke="none" 
	d="
M1.000000,89.468658 
	C1.612744,89.823074 2.548577,90.560928 2.791389,91.481567 
	C10.633003,121.213654 29.393936,139.861328 59.248940,147.326630 
	C59.859249,147.479248 60.395287,147.928909 60.982986,148.619995 
	C41.073189,149.000000 21.146378,149.000000 1.000000,149.000000 
	C1.000000,129.312988 1.000000,109.625153 1.000000,89.468658 
z"/>
<path fill="#F1F0ED" opacity="1.000000" stroke="none" 
	d="
M102.747498,44.344357 
	C112.043488,46.534794 112.043495,46.534794 112.043495,55.979118 
	C112.043495,68.110016 112.043488,80.240906 112.043488,92.746750 
	C107.090660,93.360779 102.532745,93.925850 97.471405,94.553329 
	C95.490143,83.657761 93.567215,73.083015 91.644295,62.508263 
	C91.132530,62.429176 90.620766,62.350090 90.109001,62.271004 
	C89.873398,63.818501 89.337532,65.388466 89.451370,66.909821 
	C90.145363,76.184708 90.987000,85.448547 91.828789,95.293732 
	C86.816711,95.901253 82.100883,96.472862 76.962852,97.095650 
	C75.027832,87.212196 73.167259,77.708939 70.953224,66.400360 
	C69.983482,68.726540 68.997017,69.934898 69.090027,71.053490 
	C69.813698,79.756668 70.745270,88.442558 71.672142,97.730789 
	C66.912056,98.306923 62.352722,98.858757 57.201649,99.482208 
	C55.390827,90.424461 53.626850,81.601006 51.862869,72.777550 
	C51.149635,72.851273 50.436401,72.924995 49.723164,72.998718 
	C50.430054,81.796120 51.136940,90.593529 51.892464,99.996231 
	C49.089668,100.391090 46.402565,100.769653 43.277111,101.209969 
	C39.533695,86.928169 35.878231,72.981934 32.112534,58.615128 
	C46.750740,51.850174 61.207970,45.117741 75.739159,38.548916 
	C76.921341,38.014507 78.663826,38.369812 80.052963,38.701336 
	C87.501816,40.479019 94.921173,42.380276 102.747498,44.344357 
z"/>
<path fill="#F1E9E7" opacity="1.000000" stroke="none" 
	d="
M112.061760,104.995071 
	C112.061760,107.435173 112.061760,109.404343 112.061760,112.134727 
	C100.996483,110.295708 90.419281,108.625290 79.901794,106.638733 
	C78.969513,106.462639 78.426422,104.226105 77.315559,102.262413 
	C89.254974,100.773438 100.260727,99.400909 112.061760,97.929192 
	C112.061760,100.346504 112.061760,102.435326 112.061760,104.995071 
z"/>
</svg>