<svg version="1.1" id="Layer_1" xmlns="http://www.w3.org/2000/svg" xmlns:xlink="http://www.w3.org/1999/xlink" x="0px" y="0px"
	 width="100%" viewBox="0 0 148 148" enable-background="new 0 0 148 148" xml:space="preserve">
<path fill="#F9F8FB" opacity="1.000000" stroke="none" 
	d="
M1.000000,64.000000 
	C1.000000,42.684273 1.000000,21.868546 1.000000,1.026409 
	C50.274025,1.026409 99.548073,1.026409 148.911057,1.026409 
	C148.911057,50.232204 148.911057,99.464622 148.911057,148.848511 
	C99.667023,148.848511 50.333565,148.848511 1.000000,148.848511 
	C1.000000,120.785637 1.000000,92.642815 1.000000,64.000000 
M108.500000,3.999573 
	C78.190430,3.999861 47.880844,3.982171 17.571304,4.011452 
	C8.542710,4.020174 4.018682,8.516465 4.012278,17.509262 
	C3.984878,55.979145 3.978286,94.449081 4.018966,132.918945 
	C4.027787,141.260193 8.702827,145.970032 17.007635,145.979446 
	C55.644028,146.023209 94.280518,146.021301 132.916916,145.981125 
	C141.227768,145.972473 145.970367,141.261749 145.979645,132.984009 
	C146.022919,94.347618 146.021637,55.711121 145.980911,17.074722 
	C145.972122,8.740473 141.288040,4.090300 132.981491,4.016083 
	C125.154907,3.946154 117.327209,4.000114 108.500000,3.999573 
z"/>
<path fill="#6643A6" opacity="1.000000" stroke="none" 
	d="
M109.000000,3.999573 
	C117.327209,4.000114 125.154907,3.946154 132.981491,4.016083 
	C141.288040,4.090300 145.972122,8.740473 145.980911,17.074722 
	C146.021637,55.711121 146.022919,94.347618 145.979645,132.984009 
	C145.970367,141.261749 141.227768,145.972473 132.916916,145.981125 
	C94.280518,146.021301 55.644028,146.023209 17.007635,145.979446 
	C8.702827,145.970032 4.027787,141.260193 4.018966,132.918945 
	C3.978286,94.449081 3.984878,55.979145 4.012278,17.509262 
	C4.018682,8.516465 8.542710,4.020174 17.571304,4.011452 
	C47.880844,3.982171 78.190430,3.999861 109.000000,3.999573 
M53.193237,108.398643 
	C53.383434,108.690269 53.644424,108.888878 54.126522,109.890495 
	C54.126522,112.870041 54.126522,115.849586 54.126522,118.740135 
	C63.441883,120.902153 65.784538,120.363152 70.457191,113.471786 
	C72.982658,109.747154 75.800995,108.193634 80.248848,108.686783 
	C88.121689,109.559654 94.609650,107.150642 99.830383,100.741241 
	C103.804657,95.862122 108.547050,91.575874 113.187614,87.285332 
	C115.729477,84.935196 116.624214,82.421249 116.607224,78.988510 
	C116.529778,63.347042 116.717590,47.704258 117.180145,31.845541 
	C117.001457,31.593462 116.822769,31.341385 115.920578,30.798294 
	C91.314941,30.692297 66.709320,30.565508 42.103630,30.550406 
	C41.032707,30.549747 39.260796,31.349537 39.001106,32.157536 
	C36.991791,38.409378 33.986858,44.699600 33.711567,51.082367 
	C32.924038,69.341621 33.281303,87.650253 32.818542,106.146492 
	C32.979206,106.405334 33.139874,106.664185 33.979927,107.344223 
	C40.315189,107.544044 46.650448,107.743866 53.193237,108.398643 
z"/>
<path fill="#FBFBFD" opacity="1.000000" stroke="none" 
	d="
M116.810028,32.061951 
	C116.717590,47.704258 116.529778,63.347042 116.607224,78.988510 
	C116.624214,82.421249 115.729477,84.935196 113.187614,87.285332 
	C108.547050,91.575874 103.804657,95.862122 99.830383,100.741241 
	C94.609650,107.150642 88.121689,109.559654 80.248848,108.686783 
	C75.800995,108.193634 72.982658,109.747154 70.457191,113.471786 
	C65.784538,120.363152 63.441883,120.902153 54.126522,118.740135 
	C54.126522,115.849586 54.126522,112.870041 54.062183,109.140160 
	C53.660465,108.241112 53.323090,108.092392 52.985710,107.943680 
	C46.650448,107.743866 40.315189,107.544044 33.665314,106.881699 
	C33.296597,106.259270 33.242489,106.099373 33.188381,105.939468 
	C33.281303,87.650253 32.924038,69.341621 33.711567,51.082367 
	C33.986858,44.699600 36.991791,38.409378 39.001106,32.157536 
	C39.260796,31.349537 41.032707,30.549747 42.103630,30.550406 
	C66.709320,30.565508 91.314941,30.692297 116.278458,31.194691 
	C116.694237,31.748041 116.752129,31.904997 116.810028,32.061951 
M70.500107,39.610573 
	C62.249073,39.610573 53.998035,39.610573 45.710526,39.610573 
	C45.710526,58.666054 45.710526,77.037224 45.710526,95.931076 
	C51.654846,95.931076 57.225891,95.931076 63.350624,95.931076 
	C63.350624,99.776131 63.350624,103.106064 63.350624,106.436005 
	C70.021584,97.834145 77.996117,93.949966 88.702713,95.594254 
	C90.803612,95.916901 93.514984,94.181999 95.533936,92.797089 
	C105.595001,85.895645 109.869690,76.444077 107.620270,64.239632 
	C107.323662,62.630360 107.579529,60.919258 107.579529,59.255318 
	C107.579529,52.831112 107.579536,46.406906 107.579536,39.610264 
	C95.081978,39.610264 83.291054,39.610264 70.500107,39.610573 
z"/>
<path fill="#5930A0" opacity="1.000000" stroke="none" 
	d="
M116.995087,31.953747 
	C116.752129,31.904997 116.694237,31.748041 116.640213,31.340197 
	C116.822769,31.341385 117.001457,31.593462 116.995087,31.953747 
z"/>
<path fill="#5930A0" opacity="1.000000" stroke="none" 
	d="
M33.003464,106.042984 
	C33.242489,106.099373 33.296597,106.259270 33.325623,106.671097 
	C33.139874,106.664185 32.979206,106.405334 33.003464,106.042984 
z"/>
<path fill="#5B34A1" opacity="1.000000" stroke="none" 
	d="
M53.089474,108.171158 
	C53.323090,108.092392 53.660465,108.241112 53.987030,108.692139 
	C53.644424,108.888878 53.383434,108.690269 53.089474,108.171158 
z"/>
<path fill="#6644A6" opacity="1.000000" stroke="none" 
	d="
M71.000114,39.610420 
	C83.291054,39.610264 95.081978,39.610264 107.579536,39.610264 
	C107.579536,46.406906 107.579529,52.831112 107.579529,59.255318 
	C107.579529,60.919258 107.323662,62.630360 107.620270,64.239632 
	C109.869690,76.444077 105.595001,85.895645 95.533936,92.797089 
	C93.514984,94.181999 90.803612,95.916901 88.702713,95.594254 
	C77.996117,93.949966 70.021584,97.834145 63.350624,106.436005 
	C63.350624,103.106064 63.350624,99.776131 63.350624,95.931076 
	C57.225891,95.931076 51.654846,95.931076 45.710526,95.931076 
	C45.710526,77.037224 45.710526,58.666054 45.710526,39.610573 
	C53.998035,39.610573 62.249073,39.610573 71.000114,39.610420 
M92.873306,57.794209 
	C92.431679,50.503620 87.236572,55.757717 84.203476,53.817841 
	C84.203476,62.625057 84.203476,70.641029 84.203476,79.320412 
	C87.320976,78.692368 90.056602,78.141251 92.873756,77.573708 
	C92.873756,70.962593 92.873756,64.848145 92.873306,57.794209 
M75.033798,64.520813 
	C75.033798,61.133125 75.033798,57.745438 75.033798,54.445801 
	C71.594955,54.445801 69.022339,54.445801 66.401306,54.445801 
	C66.401306,62.774208 66.401306,70.781067 66.401306,79.165588 
	C69.429825,78.588005 72.078804,78.082809 75.033813,77.519249 
	C75.033813,73.405701 75.033813,69.457458 75.033798,64.520813 
z"/>
<path fill="#FAF9FC" opacity="1.000000" stroke="none" 
	d="
M92.873535,58.263954 
	C92.873756,64.848145 92.873756,70.962593 92.873756,77.573708 
	C90.056602,78.141251 87.320976,78.692368 84.203476,79.320412 
	C84.203476,70.641029 84.203476,62.625057 84.203476,53.817841 
	C87.236572,55.757717 92.431679,50.503620 92.873535,58.263954 
z"/>
<path fill="#FAF9FC" opacity="1.000000" stroke="none" 
	d="
M75.033806,65.015015 
	C75.033813,69.457458 75.033813,73.405701 75.033813,77.519249 
	C72.078804,78.082809 69.429825,78.588005 66.401306,79.165588 
	C66.401306,70.781067 66.401306,62.774208 66.401306,54.445801 
	C69.022339,54.445801 71.594955,54.445801 75.033798,54.445801 
	C75.033798,57.745438 75.033798,61.133125 75.033806,65.015015 
z"/>
</svg>