<svg version="1.1" id="Layer_1" xmlns="http://www.w3.org/2000/svg" xmlns:xlink="http://www.w3.org/1999/xlink" x="0px" y="0px"
	 width="100%" viewBox="0 0 500 500" enable-background="new 0 0 500 500" xml:space="preserve">
<path fill="#9047FC" opacity="1.000000" stroke="none" 
	d="
M127.000000,1.000001 
	C239.022018,1.000000 351.044037,1.000000 463.537964,1.468637 
	C464.009583,82.910294 464.010406,163.883316 464.002106,244.856339 
	C464.001892,246.854004 463.900543,248.851685 463.532562,250.955353 
	C461.762421,252.658127 460.306091,254.254898 458.547852,255.958389 
	C457.445801,256.992737 456.645630,257.920410 455.528870,258.952545 
	C453.756714,260.653778 452.301178,262.250549 450.542786,263.952362 
	C449.442200,264.988007 448.644440,265.918610 447.517853,266.955444 
	C445.951874,268.850861 444.714752,270.640045 443.434021,272.409790 
	C443.390442,272.390411 443.431885,272.476379 443.075378,272.413300 
	C439.302399,276.046356 435.885956,279.742523 432.373718,283.359344 
	C432.277954,283.280029 432.435516,283.472473 432.076935,283.411041 
	C429.122314,286.205872 426.526276,289.062103 423.962646,291.957092 
	C423.995087,291.995819 423.917297,291.931305 423.560608,291.942566 
	C421.125977,294.294922 419.048035,296.635986 416.984436,298.987305 
	C416.998779,298.997559 416.975281,298.970428 416.630859,298.969543 
	C415.139679,300.313507 413.992950,301.658295 412.696594,303.292175 
	C408.974670,307.365784 405.402374,311.150330 401.591370,314.972046 
	C401.035706,315.191772 400.896942,315.464813 400.685608,315.825134 
	C400.271484,315.857422 400.108093,315.892944 399.584900,315.923431 
	C398.133820,317.275604 397.042572,318.632812 395.887817,320.222290 
	C395.824341,320.454529 395.828705,320.936035 395.589905,320.973389 
	C395.034149,321.193390 394.895386,321.466553 394.609680,321.933838 
	C390.133026,326.336639 385.981415,330.635803 381.553528,334.995117 
	C380.828827,335.634155 380.380432,336.213074 379.643677,336.868439 
	C379.171692,337.281647 378.988068,337.618378 378.856262,337.943512 
	C378.908081,337.931885 378.881287,337.829163 378.565796,337.949280 
	C375.625336,340.819244 373.000366,343.569031 370.357971,346.333221 
	C370.340576,346.347626 370.311707,346.382416 370.009644,346.490295 
	C368.415070,348.043701 367.122589,349.489258 365.564972,350.982117 
	C364.862671,351.340332 364.425476,351.651276 363.637360,351.966187 
	C362.509460,352.975800 361.732483,353.981476 360.794495,355.249084 
	C360.032257,356.318939 359.431091,357.126923 358.590881,357.972412 
	C358.034729,358.192780 357.895660,358.466217 357.614227,358.929321 
	C355.805878,360.663879 354.317963,362.299347 352.534607,364.013123 
	C351.468018,365.007538 350.696869,365.923645 349.627533,366.917542 
	C348.540527,367.645538 347.751709,368.295776 346.612488,368.956177 
	C345.505432,369.991547 344.748749,371.016785 343.796387,372.306274 
	C340.732208,375.367615 337.863739,378.164734 334.644043,380.964142 
	C333.515778,381.976105 332.738739,382.985748 331.816010,384.236755 
	C331.390900,384.948364 331.111481,385.418549 330.869812,385.894714 
	C330.907562,385.900635 330.881409,385.828827 330.569153,385.939209 
	C328.792175,387.669006 327.327484,389.288452 325.900391,390.922119 
	C325.938049,390.936371 325.908142,390.861633 325.631897,390.915527 
	C324.902283,391.300140 324.448883,391.630890 323.644958,391.963654 
	C322.518890,392.976135 321.743408,393.986603 320.922913,395.203491 
	C320.877869,395.409912 320.936340,395.828400 320.697388,395.826263 
	C320.458405,395.824127 319.999176,395.956665 319.637970,395.953064 
	C318.172882,397.299805 317.069031,398.650146 315.832153,400.233276 
	C315.444305,400.920807 315.189484,401.375519 314.617493,401.926575 
	C313.143524,403.326904 311.986786,404.630859 310.588928,405.969360 
	C310.026398,406.187622 309.888580,406.463196 309.635254,406.909393 
	C308.546448,407.638763 307.756714,408.289246 306.547089,408.963379 
	C302.710602,409.416748 299.285553,409.789795 295.880585,410.297394 
	C293.840332,410.601562 291.831421,411.116119 289.541626,411.587311 
	C288.915436,411.601624 288.556122,411.564789 288.169098,411.339478 
	C287.693298,411.278473 287.245209,411.405914 286.532410,411.584534 
	C285.911530,411.601624 285.555359,411.567474 285.173553,411.344543 
	C284.698639,411.279846 284.249298,411.403870 283.534912,411.575836 
	C282.914001,411.594421 282.558167,411.565094 282.176056,411.346558 
	C281.699310,411.282135 281.248810,411.406921 280.534363,411.586304 
	C279.915070,411.604950 279.559723,411.569000 279.176392,411.343689 
	C278.695953,411.280579 278.243561,411.406860 277.528015,411.590027 
	C276.909668,411.609100 276.554413,411.571228 276.173553,411.344543 
	C275.698639,411.279816 275.249298,411.403870 274.534912,411.575836 
	C273.914001,411.594421 273.558167,411.565094 273.176056,411.346558 
	C272.699310,411.282135 272.248810,411.406921 271.534363,411.586304 
	C270.915070,411.604980 270.559723,411.569000 270.176392,411.343689 
	C269.695953,411.280579 269.243561,411.406860 268.528015,411.590027 
	C267.909668,411.609070 267.554413,411.571198 267.173553,411.344543 
	C266.698639,411.279846 266.249298,411.403870 265.534912,411.575867 
	C264.914001,411.594452 264.558167,411.565125 264.176056,411.346588 
	C263.699310,411.282135 263.248840,411.406921 262.534363,411.586304 
	C261.915070,411.604980 261.559723,411.569000 261.176392,411.343689 
	C260.695953,411.280579 260.243561,411.406830 259.528015,411.590027 
	C258.909668,411.609100 258.554413,411.571228 258.173553,411.344574 
	C257.698639,411.279846 257.249298,411.403900 256.534882,411.575867 
	C255.913925,411.594452 255.558060,411.565125 255.175964,411.346588 
	C254.699249,411.282135 254.248779,411.406891 253.534332,411.586304 
	C252.915070,411.604950 252.559738,411.568970 252.176407,411.343689 
	C251.695969,411.280579 251.243546,411.406830 250.528015,411.590027 
	C249.909668,411.609100 249.554398,411.571198 249.173553,411.344574 
	C248.698669,411.279846 248.249359,411.403900 247.534943,411.575867 
	C246.913956,411.594452 246.558075,411.565125 246.175964,411.346588 
	C245.699249,411.282135 245.248779,411.406921 244.532654,411.586304 
	C243.909500,411.604858 243.551971,411.568787 243.046509,411.283081 
	C241.907654,411.197052 240.916718,411.360657 239.529572,411.579346 
	C237.287216,411.594910 235.441055,411.555328 233.229126,411.454590 
	C230.962708,413.345978 229.062073,415.298462 227.034698,417.425903 
	C226.907944,417.600830 226.547577,417.839172 226.347992,417.854675 
	C225.875504,418.020477 225.770721,418.248108 225.714767,418.733948 
	C225.595459,418.914856 225.246964,419.172516 224.892883,419.200500 
	C220.086716,423.907104 215.634628,428.585693 211.047668,433.434265 
	C210.912796,433.604248 210.547577,433.839172 210.347931,433.854614 
	C209.875214,434.020325 209.770477,434.247986 209.718231,434.733765 
	C209.602386,434.914520 209.265518,435.180725 208.919739,435.218445 
	C206.894165,437.166504 205.214355,439.076874 203.367508,441.191315 
	C202.442795,442.132538 201.685120,442.869690 200.667145,443.513245 
	C199.341873,444.685516 198.276901,445.951385 197.105972,447.108643 
	C197.000000,447.000000 197.211624,447.217133 196.884399,447.228546 
	C196.093170,447.911835 195.629181,448.583710 195.017334,449.484558 
	C194.331467,450.197479 193.793472,450.681427 192.996490,451.241577 
	C192.562088,451.619385 192.386688,451.921021 192.105942,452.111328 
	C192.000610,452.000000 192.212479,452.222351 191.883392,452.234070 
	C191.083984,452.907166 190.613678,453.568481 189.969559,454.497009 
	C188.715439,455.789856 187.635147,456.815460 186.351135,457.858887 
	C185.868637,458.030090 185.762253,458.262390 185.787598,458.783325 
	C185.746948,458.993103 185.829910,459.412384 185.510193,459.534454 
	C184.799103,460.195709 184.407715,460.734924 183.711914,461.332458 
	C182.631012,462.320587 181.854553,463.250427 180.817413,464.205750 
	C180.136597,464.540070 179.716461,464.848846 178.951630,465.183960 
	C178.122391,465.910767 177.637848,466.611237 177.058502,467.505493 
	C176.785202,467.940186 176.551498,468.100647 175.910889,468.180786 
	C174.754028,469.197113 173.948837,470.213348 173.023605,471.417542 
	C172.903549,471.605530 172.536163,471.858582 172.334198,471.902252 
	C171.877426,472.130280 171.789246,472.374664 171.679932,472.907684 
	C171.177002,473.372345 170.861816,473.608398 170.351364,473.856018 
	C169.888016,474.015747 169.788300,474.239105 169.734924,474.722717 
	C169.612885,474.907867 169.253601,475.167847 168.924774,475.210693 
	C168.111740,475.912292 167.627533,476.571045 167.001251,477.464172 
	C166.315536,478.180603 165.771912,478.662689 164.898132,479.174103 
	C164.100342,479.887451 163.632721,480.571503 163.018463,481.485901 
	C162.332291,482.200165 161.792770,482.684113 160.902222,483.194458 
	C158.756058,485.232269 156.960938,487.243713 155.017654,489.484375 
	C154.330856,490.198334 153.792206,490.683075 152.924713,491.210632 
	C152.111633,491.912201 151.627380,492.570923 151.035339,493.423035 
	C150.743347,493.857513 150.510086,494.033722 149.881683,494.157654 
	C148.761047,495.186005 147.986511,496.201752 147.141571,497.114136 
	C147.071152,497.010803 147.232101,497.202820 146.859680,497.017303 
	C145.986816,494.859192 145.060638,492.888641 145.051193,490.913696 
	C144.947403,469.189423 144.986008,447.464508 144.986816,425.739746 
	C144.986954,421.926025 145.093384,418.108704 144.957855,414.299866 
	C144.864731,411.683105 144.119751,409.559509 140.464722,411.593933 
	C131.107941,411.612061 122.097099,411.567688 112.807472,411.232513 
	C109.992989,411.135590 107.457291,411.329468 104.489670,411.583923 
	C101.734406,411.603912 99.411072,411.563324 96.820023,411.236572 
	C93.971420,411.144806 91.390518,411.339172 88.412727,411.589783 
	C79.881874,411.605469 71.747910,411.564941 63.664104,411.388184 
	C63.714264,411.251923 63.377354,411.162598 63.377354,411.162598 
	C63.377354,411.162598 63.355762,411.526825 63.089645,411.584534 
	C62.283813,411.605804 61.744106,411.569427 61.176384,411.343689 
	C60.695950,411.280579 60.243523,411.406830 59.528000,411.590027 
	C58.909649,411.609100 58.554394,411.571198 58.173538,411.344543 
	C57.698635,411.279816 57.249336,411.403870 56.534920,411.575836 
	C55.913933,411.594421 55.558060,411.565125 55.175934,411.346588 
	C54.699223,411.282135 54.248768,411.406921 53.529724,411.590118 
	C52.716557,411.606445 52.171982,411.564301 51.671787,411.384216 
	C51.716167,411.246277 51.376926,411.157715 51.376926,411.157715 
	C51.376926,411.157715 51.352978,411.520050 50.964378,411.583740 
	C48.079437,411.606537 45.583092,411.565674 42.933044,411.289703 
	C42.157646,411.211121 41.535957,411.367676 40.494656,411.580719 
	C39.233173,411.585510 38.391304,411.533783 37.668835,410.988129 
	C37.828163,408.830414 37.902943,407.166565 37.903034,405.502747 
	C37.908482,304.055756 37.878262,202.608765 38.002129,101.161926 
	C38.007832,96.490784 39.391605,91.821327 40.363319,86.912018 
	C43.281208,84.057869 45.969334,81.442780 48.939667,78.734177 
	C49.521442,78.154152 49.821011,77.667641 50.358753,76.949562 
	C52.621151,74.752907 54.645370,72.787827 57.024361,70.780807 
	C58.202316,69.726067 59.025494,68.713272 60.005730,67.429192 
	C61.664932,65.713013 63.167080,64.268112 65.005920,62.766090 
	C65.845009,62.039070 66.347397,61.369186 66.893143,60.540295 
	C66.936501,60.381287 67.151939,60.131809 67.504013,60.118412 
	C70.182770,57.629631 72.509445,55.154247 74.885849,52.525223 
	C74.935562,52.371586 75.151947,52.131817 75.505493,52.116234 
	C76.848297,50.955719 77.837563,49.810783 78.929382,48.391056 
	C79.729065,47.448235 80.426186,46.780205 81.463120,46.093132 
	C82.579681,45.099831 83.356422,44.125576 84.356689,42.924335 
	C85.761253,41.502281 86.942307,40.307209 88.463623,39.078159 
	C89.474068,38.246357 90.144249,37.448532 90.943794,36.420151 
	C91.609375,35.737480 92.145607,35.285366 93.017563,34.789787 
	C93.844559,34.052761 94.335838,33.359196 94.920380,32.406658 
	C95.565491,31.706228 96.117348,31.264771 97.002846,30.764954 
	C97.836494,30.030567 98.336494,29.354536 98.886108,28.524933 
	C98.935715,28.371361 99.151985,28.131750 99.504333,28.116583 
	C100.925880,26.749039 101.995071,25.396664 103.174271,23.832596 
	C103.480621,23.356949 103.734215,23.171152 104.394226,23.062397 
	C105.513802,22.058914 106.284248,21.056549 107.027344,20.027092 
	C107.000000,20.000000 107.054344,20.054407 107.412445,20.070234 
	C108.787781,18.946320 109.805008,17.806576 110.956818,16.440895 
	C111.613441,15.752544 112.135460,15.290131 112.939621,14.734152 
	C113.521362,14.154104 113.820961,13.667623 114.358749,12.949562 
	C116.621025,10.753072 118.645111,8.788159 121.002930,6.765191 
	C121.836411,6.031048 122.336174,5.354962 122.987869,4.431766 
	C123.819122,3.498046 124.498444,2.811437 125.449875,2.081393 
	C126.147987,1.691973 126.573990,1.345987 127.000000,1.000001 
M261.438751,329.937805 
	C268.619110,322.763824 275.899628,315.685944 282.926361,308.364502 
	C285.436279,305.749329 288.031464,304.654114 291.675476,304.680450 
	C312.501495,304.831085 333.329681,304.819214 354.155457,304.654236 
	C356.227722,304.637817 358.845551,303.779633 360.271912,302.365692 
	C382.625427,280.206116 404.862976,257.928711 426.976624,235.529755 
	C428.514221,233.972321 429.653015,231.247940 429.657959,229.063217 
	C429.799744,166.743271 429.730499,104.422859 429.861908,42.102879 
	C429.871094,37.745148 428.315125,36.792076 424.325439,36.794968 
	C332.680634,36.861332 241.035767,36.848866 149.391052,36.727837 
	C145.140564,36.722218 143.626312,37.747993 143.633011,42.283089 
	C143.759720,127.931908 143.750885,213.580978 143.653793,299.229858 
	C143.648941,303.512085 144.818253,304.896118 149.289276,304.852051 
	C172.614212,304.622040 195.942749,304.773285 219.269806,304.712982 
	C222.281799,304.705200 224.268051,304.920959 224.260742,308.882233 
	C224.229721,325.700226 224.490906,342.518707 224.639954,359.337097 
	C224.657684,361.336731 224.642365,363.336639 224.642365,366.850311 
	C237.482468,353.974792 249.214401,342.210480 261.438751,329.937805 
z"/>
<path fill="#000001" opacity="1.000000" stroke="none" 
	d="
M161.253235,483.168091 
	C161.792770,482.684113 162.332291,482.200165 163.336639,481.437103 
	C164.277084,480.486938 164.752701,479.815857 165.228302,479.144806 
	C165.771912,478.662689 166.315536,478.180603 167.319031,477.413452 
	C168.270462,476.474884 168.762024,475.821350 169.253601,475.167847 
	C169.253601,475.167847 169.612885,474.907867 169.966095,474.839264 
	C170.484924,474.818665 170.650574,474.866699 171.119858,474.913971 
	C171.887100,474.247864 172.350693,473.582550 172.766907,472.646729 
	C172.658417,472.203705 172.597290,472.031158 172.536163,471.858582 
	C172.536163,471.858582 172.903549,471.605530 173.348633,471.363342 
	C174.616669,470.140961 175.439606,469.160797 176.262543,468.180634 
	C176.551498,468.100647 176.785202,467.940186 177.269241,467.585907 
	C177.574814,467.472534 178.019928,467.543793 178.065628,467.848999 
	C178.941696,468.553162 179.772064,468.952118 180.602448,469.351074 
	C180.760986,467.627472 180.919540,465.903839 181.078094,464.180237 
	C181.854553,463.250427 182.631012,462.320587 183.833191,461.564667 
	C184.782578,460.963165 185.306244,460.187775 185.829910,459.412384 
	C185.829910,459.412384 185.746948,458.993103 186.005127,458.789734 
	C186.573730,458.421387 186.670914,458.172974 186.554871,457.841064 
	C187.635147,456.815460 188.715439,455.789856 190.279938,454.451843 
	C191.246918,453.500397 191.729691,452.861359 192.212463,452.222351 
	C192.212479,452.222351 192.000610,452.000000 192.387207,452.067413 
	C192.934372,451.811676 193.094940,451.488556 193.255493,451.165405 
	C193.793472,450.681427 194.331467,450.197479 195.329071,449.441589 
	C196.262985,448.518829 196.737305,447.867981 197.211624,447.217133 
	C197.211624,447.217133 197.000000,447.000000 197.415283,447.071136 
	C198.819305,446.400848 199.808014,445.659424 201.179230,444.909912 
	C202.677658,443.536011 203.793594,442.170227 205.019089,440.524597 
	C206.021759,439.466034 206.914871,438.687286 208.211975,437.922729 
	C212.309433,438.119568 213.185516,435.944824 213.037262,432.513367 
	C214.712891,430.783478 216.260590,429.346100 218.206543,427.918671 
	C221.559250,428.041260 222.096161,426.215363 222.004333,423.545227 
	C222.669403,422.824158 223.238754,422.366425 224.213196,421.922668 
	C228.319351,422.121857 229.172653,419.924164 229.036407,416.509583 
	C230.388885,415.126923 231.622375,414.033478 233.179779,413.129852 
	C238.476028,413.764160 243.440826,414.434692 248.422440,414.600891 
	C256.125397,414.857880 263.857971,415.125305 271.544617,414.733704 
	C280.050232,414.300385 288.518280,413.130341 297.346497,412.211853 
	C298.150269,412.173065 298.610229,412.203522 299.323120,412.389130 
	C300.693878,412.440918 301.811707,412.337585 303.237122,412.124817 
	C303.979065,411.990570 304.413452,411.965759 305.226746,411.929291 
	C308.704224,411.630768 309.963196,409.778564 309.934326,406.830536 
	C309.888580,406.463196 310.026398,406.187622 310.969543,405.958435 
	C312.705719,404.552063 313.820190,403.191162 314.934662,401.830231 
	C315.189484,401.375519 315.444305,400.920807 316.129089,400.190979 
	C317.074707,399.620453 317.590393,399.325073 318.454193,398.981079 
	C319.513641,397.897797 320.224976,396.863098 320.936340,395.828400 
	C320.936340,395.828400 320.877869,395.409912 321.207275,395.234619 
	C321.727051,395.048981 321.917358,395.038605 322.468964,394.993103 
	C323.856201,393.592560 324.882172,392.227081 325.908142,390.861633 
	C325.908142,390.861633 325.938049,390.936371 326.278473,390.919922 
	C329.717987,390.621613 330.985748,388.801483 330.881409,385.828827 
	C330.881409,385.828827 330.907562,385.900635 331.224304,385.889252 
	C332.417969,384.967743 333.294922,384.057617 334.566650,383.119568 
	C337.293121,383.264496 339.624847,383.437347 342.393250,383.642578 
	C340.754028,379.802948 340.742432,376.995361 344.928467,376.360107 
	C344.654022,378.226105 344.451141,379.731995 344.248260,381.237854 
	C344.747314,381.537354 345.246399,381.836853 345.745453,382.136353 
	C346.957275,380.770599 348.169067,379.404846 349.380859,378.039124 
	C347.920593,377.359436 346.460297,376.679718 345.080688,375.659180 
	C346.117554,374.276367 346.882904,372.803131 348.068085,372.278809 
	C350.873169,371.037781 351.230865,369.310059 349.925720,366.839752 
	C350.696869,365.923645 351.468018,365.007538 352.914612,364.004395 
	C356.695923,363.637360 357.962494,361.786530 357.934662,358.830200 
	C357.895660,358.466217 358.034729,358.192780 358.986664,357.980042 
	C363.091339,358.147064 364.140320,356.148895 364.037903,352.810638 
	C364.030426,352.338684 364.009369,352.150452 363.988281,351.962219 
	C364.425476,351.651276 364.862671,351.340332 365.948822,350.972839 
	C369.248505,350.562256 370.954254,349.434143 370.311707,346.382416 
	C370.311707,346.382416 370.340576,346.347626 370.732117,346.429260 
	C372.800812,347.192383 374.439636,348.003479 376.167236,348.514465 
	C377.550262,348.923584 379.041138,348.967987 380.484161,349.174255 
	C380.619537,347.705261 381.357941,345.287140 380.789459,344.926025 
	C377.780975,343.014679 378.806244,340.357513 378.881287,337.829163 
	C378.881287,337.829163 378.908081,337.931885 379.077728,337.782898 
	C379.475586,337.353241 379.703827,337.072601 379.932068,336.791962 
	C380.380432,336.213074 380.828827,335.634155 381.972900,335.009338 
	C385.194855,333.843170 387.721161,332.722931 391.144440,331.204895 
	C390.529144,330.811615 391.009460,331.283905 391.579254,331.451111 
	C393.136169,331.908020 394.730865,332.236298 396.310577,332.615540 
	C396.214508,330.970886 396.213257,329.313660 395.998016,327.684753 
	C395.738434,325.720734 395.297302,323.780670 394.934753,321.830231 
	C394.895386,321.466553 395.034149,321.193390 395.950073,320.954285 
	C397.237885,320.113129 397.926666,319.328400 398.620667,318.583649 
	C398.625854,318.623627 398.545502,318.616974 398.906494,318.606750 
	C399.823761,317.673798 400.380035,316.751099 400.936340,315.828369 
	C400.896942,315.464813 401.035706,315.191772 401.959045,314.968292 
	C404.432617,315.184387 406.303131,315.419800 408.165924,315.705170 
	C409.711884,315.942017 411.248810,316.237579 412.789734,316.507141 
	C412.574493,314.778412 412.413483,313.040405 412.118774,311.325317 
	C411.990936,310.581421 411.587830,309.884857 411.495758,309.647095 
	C413.911652,307.455475 417.101257,305.939911 417.757843,303.686340 
	C419.233582,298.621338 422.897858,297.785309 427.028381,297.315857 
	C427.535370,298.314758 428.014008,298.997772 428.492645,299.680786 
	C428.828064,299.326080 429.163483,298.971375 429.498871,298.616669 
	C428.665924,298.077759 427.832977,297.538879 427.029907,296.599731 
	C427.364288,293.791473 427.668762,291.383545 427.983307,288.986237 
	C427.993378,288.996887 427.975311,288.973877 428.328247,288.941956 
	C429.284882,288.093903 429.888580,287.277802 430.544617,286.687561 
	C430.597015,286.913422 430.474579,286.460022 430.745972,286.528320 
	C431.347870,286.065491 431.678375,285.534393 432.066284,284.741791 
	C432.227600,284.144348 432.331543,283.808411 432.435516,283.472473 
	C432.435516,283.472473 432.277954,283.280029 432.641815,283.323914 
	C433.341278,283.245026 433.676849,283.122253 434.374725,282.973999 
	C435.824493,281.636414 436.911987,280.324371 438.079102,278.767517 
	C438.443298,278.348328 438.727783,278.173889 439.374634,277.973969 
	C440.824524,276.636444 441.912048,275.324402 443.058044,273.750000 
	C443.221649,273.150574 443.326752,272.813477 443.431885,272.476379 
	C443.431885,272.476379 443.390442,272.390411 443.721832,272.340210 
	C444.705353,271.860809 445.357483,271.431610 446.335022,271.142944 
	C451.422333,272.431610 451.007904,269.497375 450.733765,266.716492 
	C450.823334,266.803101 450.642975,266.634155 450.889832,266.587646 
	C453.315582,267.388367 455.288910,268.160919 457.323456,268.704346 
	C458.315399,268.969269 459.591675,269.145203 460.420685,268.728149 
	C461.055267,268.408905 461.725891,266.572144 461.464874,266.305054 
	C458.514191,263.285583 459.180573,261.076538 462.381287,258.698303 
	C463.071777,258.185272 462.467499,255.929703 462.611481,254.640442 
	C462.763367,254.804108 462.468597,254.483948 462.874573,254.527039 
	C464.089813,253.121948 464.899078,251.673752 465.631165,249.811676 
	C465.537506,167.907166 465.518677,86.416542 465.525146,4.925921 
	C465.525269,3.617268 465.834839,2.308640 466.000000,1.000000 
	C477.660919,1.000000 489.321808,1.000000 500.987061,1.000000 
	C500.991364,167.578720 500.991364,334.157440 500.991364,501.000000 
	C383.645905,501.000000 266.291595,501.000000 148.441681,500.548401 
	C147.882950,499.494904 147.819855,498.893005 147.629517,498.191772 
	C147.531677,497.741486 147.441620,497.444946 147.232101,497.202820 
	C147.232101,497.202820 147.071152,497.010803 147.463898,497.063965 
	C148.647018,496.126404 149.437408,495.135712 150.227783,494.145020 
	C150.510086,494.033722 150.743347,493.857513 151.353180,493.372375 
	C152.270355,492.474884 152.761948,491.821350 153.253540,491.167786 
	C153.792206,490.683075 154.330856,490.198334 155.352737,489.424316 
	C157.641739,487.146057 159.447495,485.157074 161.253235,483.168091 
M364.457214,359.595642 
	C363.115051,360.968536 361.609192,362.232391 360.563049,363.802521 
	C360.342621,364.133392 361.830841,366.404388 362.493469,366.386169 
	C365.760162,366.296448 367.052185,362.744781 364.457214,359.595642 
M329.143890,397.148773 
	C330.658234,396.176788 332.172577,395.204803 333.686920,394.232819 
	C332.949585,393.568695 332.148407,392.283508 331.486328,392.351532 
	C329.049103,392.602112 327.476593,393.820923 329.143890,397.148773 
M318.373291,411.056946 
	C317.999268,410.175629 317.625244,409.294342 317.251190,408.413055 
	C315.980316,409.347443 314.613586,410.185608 313.508331,411.286285 
	C313.243774,411.549744 313.849823,412.687439 314.055450,413.423035 
	C315.397339,412.844971 316.739258,412.266907 318.373291,411.056946 
M441.663269,281.046814 
	C441.402954,282.321289 441.142639,283.595795 440.882324,284.870270 
	C441.911133,284.842621 443.289917,285.213928 443.885071,284.691895 
	C444.734406,283.946869 445.009552,282.547302 445.529938,281.427307 
	C444.434265,281.167694 443.338593,280.908112 441.663269,281.046814 
z"/>
<path fill="#010103" opacity="1.000000" stroke="none" 
	d="
M92.681831,34.833252 
	C92.145607,35.285366 91.609375,35.737480 90.616035,36.468987 
	C89.480400,37.536293 88.801880,38.324215 88.123352,39.112137 
	C86.942307,40.307209 85.761253,41.502281 84.030136,42.931992 
	C82.694481,44.148479 81.908897,45.130329 81.123314,46.112175 
	C80.426186,46.780205 79.729065,47.448235 78.590347,48.431202 
	C77.149826,49.874699 76.150887,51.003262 75.151947,52.131821 
	C75.151947,52.131817 74.935562,52.371586 74.534500,52.556171 
	C71.806267,55.204441 69.479103,57.668125 67.151939,60.131805 
	C67.151939,60.131809 66.936501,60.381287 66.556091,60.585281 
	C65.673531,61.467262 65.171379,62.145241 64.669228,62.823219 
	C63.167080,64.268112 61.664932,65.713013 59.670353,67.498291 
	C58.341812,68.833374 57.505703,69.828056 56.669590,70.822746 
	C54.645370,72.787827 52.621151,74.752907 50.043938,76.970200 
	C49.213116,77.757507 48.935287,78.292595 48.657455,78.827690 
	C45.969334,81.442780 43.281208,84.057869 40.000092,86.953117 
	C38.392735,89.880249 36.495201,92.525940 36.491364,95.174377 
	C36.341061,198.922943 36.357597,302.671753 36.412163,406.420502 
	C36.413048,408.107880 37.153889,409.794891 37.549431,411.482056 
	C38.391304,411.533783 39.233173,411.585510 40.662964,411.768097 
	C41.862839,411.774231 42.474792,411.649506 43.086746,411.524811 
	C45.583092,411.565674 48.079437,411.606537 51.032753,411.639099 
	C51.489723,411.630737 51.627407,411.522186 51.627407,411.522186 
	C52.171982,411.564301 52.716557,411.606445 53.880650,411.703979 
	C54.734177,411.684845 54.968185,411.610321 55.202190,411.535797 
	C55.558060,411.565125 55.913933,411.594421 56.884510,411.701050 
	C57.732525,411.696655 57.965832,411.614990 58.199135,411.533325 
	C58.554394,411.571198 58.909649,411.609100 59.881630,411.689331 
	C60.733696,411.665466 60.969048,411.599243 61.204395,411.533020 
	C61.744106,411.569427 62.283813,411.605804 63.154976,411.634521 
	C63.486427,411.626862 63.613945,411.524414 63.613945,411.524414 
	C71.747910,411.564941 79.881874,411.605469 88.811996,411.778748 
	C92.101349,411.781921 94.594543,411.652344 97.087730,411.522766 
	C99.411072,411.563324 101.734406,411.603912 104.822693,411.771515 
	C108.087173,411.773468 110.586716,411.648407 113.086258,411.523315 
	C122.097099,411.567688 131.107941,411.612061 140.848694,411.825562 
	C142.177795,414.076935 143.286331,416.156342 143.297943,418.241882 
	C143.423752,440.855927 143.341171,463.471069 143.406281,486.085632 
	C143.420593,491.057648 143.792664,496.028564 144.000000,501.000000 
	C96.360535,501.000000 48.721062,501.000000 1.040798,501.000000 
	C1.040798,334.455627 1.040798,167.911270 1.040798,1.000000 
	C42.020164,1.000000 83.041428,1.000000 124.540344,1.286807 
	C125.071259,1.757350 125.124512,1.941087 125.177765,2.124826 
	C124.498444,2.811437 123.819122,3.498046 122.650337,4.475736 
	C121.663651,5.452292 121.166428,6.137769 120.669205,6.823246 
	C118.645111,8.788159 116.621025,10.753072 114.043922,12.970201 
	C113.213104,13.757516 112.935287,14.292614 112.657471,14.827715 
	C112.135460,15.290131 111.613441,15.752544 110.619987,16.480282 
	C109.117157,17.848541 108.085747,18.951475 107.054344,20.054407 
	C107.054344,20.054407 107.000000,20.000000 106.708832,20.074406 
	C105.626808,21.120378 104.835945,22.091944 104.045074,23.063511 
	C103.734215,23.171152 103.480621,23.356949 102.849533,23.898090 
	C101.327179,25.494101 100.239586,26.812927 99.151993,28.131752 
	C99.151985,28.131750 98.935715,28.371361 98.544098,28.554615 
	C97.658051,29.433014 97.163628,30.128162 96.669197,30.823311 
	C96.117348,31.264771 95.565491,31.706228 94.579758,32.450531 
	C93.657860,33.446667 93.169846,34.139957 92.681831,34.833252 
z"/>
<path fill="#784BC0" opacity="1.000000" stroke="none" 
	d="
M465.666687,1.000000 
	C465.834839,2.308640 465.525269,3.617268 465.525146,4.925921 
	C465.518677,86.416542 465.537506,167.907166 465.414795,250.007294 
	C465.044769,250.924194 464.813965,251.231613 464.398804,251.366760 
	C464.091766,251.079437 463.969055,250.964386 463.846375,250.849350 
	C463.900543,248.851685 464.001892,246.854004 464.002106,244.856339 
	C464.010406,163.883316 464.009583,82.910294 464.004944,1.468637 
	C464.444458,1.000000 464.888885,1.000000 465.666687,1.000000 
z"/>
<path fill="#6941A9" opacity="1.000000" stroke="none" 
	d="
M144.250000,501.000000 
	C143.792664,496.028564 143.420593,491.057648 143.406281,486.085632 
	C143.341171,463.471069 143.423752,440.855927 143.297943,418.241882 
	C143.286331,416.156342 142.177795,414.076935 141.194641,411.763031 
	C144.119751,409.559509 144.864731,411.683105 144.957855,414.299866 
	C145.093384,418.108704 144.986954,421.926025 144.986816,425.739746 
	C144.986008,447.464508 144.947403,469.189423 145.051193,490.913696 
	C145.060638,492.888641 145.986816,494.859192 146.859680,497.017303 
	C147.441620,497.444946 147.531677,497.741486 147.308701,498.302063 
	C146.410095,499.341156 145.705048,500.170593 145.000000,501.000000 
	C145.000000,501.000000 144.500000,501.000000 144.250000,501.000000 
z"/>
<path fill="#010103" opacity="1.000000" stroke="none" 
	d="
M145.375000,501.000000 
	C145.705048,500.170593 146.410095,499.341156 147.435944,498.401428 
	C147.819855,498.893005 147.882950,499.494904 147.973022,500.548401 
	C147.250000,501.000000 146.500000,501.000000 145.375000,501.000000 
z"/>
<path fill="#6941A9" opacity="1.000000" stroke="none" 
	d="
M125.449875,2.081391 
	C125.124512,1.941087 125.071259,1.757350 125.009003,1.286807 
	C125.444443,1.000000 125.888893,1.000000 126.666672,1.000001 
	C126.573990,1.345987 126.147987,1.691973 125.449875,2.081391 
z"/>
<path fill="#010002" opacity="1.000000" stroke="none" 
	d="
M261.192566,330.192017 
	C249.214401,342.210480 237.482468,353.974792 224.642365,366.850311 
	C224.642365,363.336639 224.657684,361.336731 224.639954,359.337097 
	C224.490906,342.518707 224.229721,325.700226 224.260742,308.882233 
	C224.268051,304.920959 222.281799,304.705200 219.269806,304.712982 
	C195.942749,304.773285 172.614212,304.622040 149.289276,304.852051 
	C144.818253,304.896118 143.648941,303.512085 143.653793,299.229858 
	C143.750885,213.580978 143.759720,127.931908 143.633011,42.283089 
	C143.626312,37.747993 145.140564,36.722218 149.391052,36.727837 
	C241.035767,36.848866 332.680634,36.861332 424.325439,36.794968 
	C428.315125,36.792076 429.871094,37.745148 429.861908,42.102879 
	C429.730499,104.422859 429.799744,166.743271 429.657959,229.063217 
	C429.653015,231.247940 428.514221,233.972321 426.976624,235.529755 
	C404.862976,257.928711 382.625427,280.206116 360.271912,302.365692 
	C358.845551,303.779633 356.227722,304.637817 354.155457,304.654236 
	C333.329681,304.819214 312.501495,304.831085 291.675476,304.680450 
	C288.031464,304.654114 285.436279,305.749329 282.926361,308.364502 
	C275.899628,315.685944 268.619110,322.763824 261.192566,330.192017 
M242.132416,111.522949 
	C242.132401,140.804779 242.131989,170.086624 242.132706,199.368454 
	C242.132874,206.246262 242.134628,206.258392 249.233154,206.267761 
	C256.719818,206.277649 264.206543,206.280350 271.693054,206.243195 
	C273.625183,206.233612 275.556488,206.062714 277.319275,205.974380 
	C277.542755,205.107391 277.695496,204.791153 277.695740,204.474777 
	C277.724152,170.701263 277.709534,136.927643 277.810944,103.154373 
	C277.820404,100.009323 276.527130,99.093925 273.661835,99.139343 
	C266.850525,99.247337 260.036957,99.216393 253.224289,99.236359 
	C242.132385,99.268860 242.132385,99.267097 242.132416,111.522949 
M352.516571,206.274109 
	C360.124786,206.274109 367.733032,206.274109 375.508728,206.274109 
	C375.723969,204.754410 375.976959,203.799072 375.977600,202.843552 
	C375.999664,169.733704 375.966980,136.623779 376.048187,103.514114 
	C376.056152,100.269592 374.887939,99.071220 371.686462,99.121674 
	C363.047974,99.257805 354.395416,99.472130 345.770691,99.116287 
	C341.261902,98.930267 340.159790,100.402367 340.182770,104.735603 
	C340.342560,134.849380 340.251495,164.964493 340.243408,195.079178 
	C340.240417,206.237381 340.243469,206.237381 352.516571,206.274109 
z"/>
<path fill="#6941A9" opacity="1.000000" stroke="none" 
	d="
M37.668831,410.988159 
	C37.153889,409.794891 36.413048,408.107880 36.412163,406.420502 
	C36.357597,302.671753 36.341061,198.922943 36.491364,95.174377 
	C36.495201,92.525940 38.392735,89.880249 39.770325,87.192184 
	C39.391605,91.821327 38.007832,96.490784 38.002129,101.161926 
	C37.878262,202.608765 37.908482,304.055756 37.903034,405.502747 
	C37.902943,407.166565 37.828163,408.830414 37.668831,410.988159 
z"/>
<path fill="#010103" opacity="1.000000" stroke="none" 
	d="
M297.002686,412.281128 
	C288.518280,413.130341 280.050232,414.300385 271.544617,414.733704 
	C263.857971,415.125305 256.125397,414.857880 248.422440,414.600891 
	C243.440826,414.434692 238.476028,413.764160 233.287521,412.881866 
	C233.245865,412.134644 233.420380,411.825226 233.594910,411.515747 
	C235.441055,411.555328 237.287216,411.594910 239.825806,411.759521 
	C241.410309,411.767273 242.302383,411.649963 243.194443,411.532684 
	C243.551971,411.568787 243.909500,411.604858 244.883606,411.700165 
	C245.734192,411.684845 245.968201,411.610321 246.202209,411.535797 
	C246.558075,411.565125 246.913956,411.594452 247.884521,411.701050 
	C248.732529,411.696655 248.965836,411.614990 249.199142,411.533325 
	C249.554398,411.571198 249.909668,411.609100 250.881653,411.689331 
	C251.733719,411.665466 251.969070,411.599243 252.204422,411.533020 
	C252.559738,411.568970 252.915070,411.604950 253.885284,411.700134 
	C254.734192,411.684845 254.968201,411.610321 255.202209,411.535797 
	C255.558060,411.565125 255.913925,411.594452 256.884521,411.701050 
	C257.732513,411.696655 257.965820,411.614990 258.199158,411.533325 
	C258.554413,411.571228 258.909668,411.609100 259.881653,411.689331 
	C260.733673,411.665466 260.969025,411.599243 261.204376,411.533020 
	C261.559723,411.569000 261.915070,411.604980 262.885315,411.700134 
	C263.734283,411.684845 263.968292,411.610321 264.202332,411.535797 
	C264.558167,411.565125 264.914001,411.594452 265.884521,411.701050 
	C266.732513,411.696655 266.965820,411.614990 267.199158,411.533325 
	C267.554413,411.571198 267.909668,411.609070 268.881653,411.689331 
	C269.733673,411.665466 269.969025,411.599243 270.204376,411.533020 
	C270.559723,411.569000 270.915070,411.604980 271.885315,411.700134 
	C272.734283,411.684845 272.968292,411.610321 273.202332,411.535767 
	C273.558167,411.565094 273.914001,411.594421 274.884521,411.701050 
	C275.732513,411.696655 275.965820,411.614990 276.199158,411.533325 
	C276.554413,411.571228 276.909668,411.609100 277.881653,411.689331 
	C278.733673,411.665466 278.969025,411.599243 279.204376,411.533020 
	C279.559723,411.569000 279.915070,411.604950 280.885315,411.700134 
	C281.734283,411.684845 281.968292,411.610321 282.202332,411.535767 
	C282.558167,411.565094 282.914001,411.594421 283.884521,411.701050 
	C284.732513,411.696655 284.965820,411.614990 285.199158,411.533325 
	C285.555359,411.567474 285.911530,411.601624 286.883087,411.707031 
	C287.731232,411.694824 287.964020,411.611359 288.196777,411.527924 
	C288.556122,411.564789 288.915436,411.601624 289.965027,411.766174 
	C292.771057,412.022949 294.886871,412.152039 297.002686,412.281128 
z"/>
<path fill="#010103" opacity="1.000000" stroke="none" 
	d="
M427.029907,296.599731 
	C422.897858,297.785309 419.233582,298.621338 417.757843,303.686340 
	C417.101257,305.939911 413.911652,307.455475 411.495758,309.647095 
	C411.587830,309.884857 411.990936,310.581421 412.118774,311.325317 
	C412.413483,313.040405 412.574493,314.778412 412.789734,316.507141 
	C411.248810,316.237579 409.711884,315.942017 408.165924,315.705170 
	C406.303131,315.419800 404.432617,315.184387 402.197784,314.931091 
	C405.402374,311.150330 408.974670,307.365784 413.020569,303.208984 
	C414.654541,301.547943 415.814911,300.259186 416.975281,298.970428 
	C416.975281,298.970428 416.998779,298.997559 417.297607,298.871155 
	C419.703369,296.473602 421.810333,294.202454 423.917297,291.931274 
	C423.917297,291.931305 423.995087,291.995819 424.273438,291.881805 
	C425.692261,290.837067 426.832764,289.906311 427.973236,288.975586 
	C427.668762,291.383545 427.364288,293.791473 427.029907,296.599731 
z"/>
<path fill="#010103" opacity="1.000000" stroke="none" 
	d="
M394.609680,321.933838 
	C395.297302,323.780670 395.738434,325.720734 395.998016,327.684753 
	C396.213257,329.313660 396.214508,330.970886 396.310577,332.615540 
	C394.730865,332.236298 393.136169,331.908020 391.579254,331.451111 
	C391.009460,331.283905 390.529144,330.811615 391.144440,331.204895 
	C387.721161,332.722931 385.194855,333.843170 382.249207,334.949219 
	C385.981415,330.635803 390.133026,326.336639 394.609680,321.933838 
z"/>
<path fill="#010103" opacity="1.000000" stroke="none" 
	d="
M349.627533,366.917542 
	C351.230865,369.310059 350.873169,371.037781 348.068085,372.278809 
	C346.882904,372.803131 346.117554,374.276367 345.080688,375.659180 
	C340.742432,376.995361 340.754028,379.802948 342.393250,383.642578 
	C339.624847,383.437347 337.293121,383.264496 334.529297,383.088806 
	C334.097229,383.085938 334.023438,383.023438 334.139404,382.757385 
	C334.502045,381.981537 334.748657,381.471680 334.995270,380.961853 
	C337.863739,378.164734 340.732208,375.367615 344.114014,372.244354 
	C345.405823,370.927460 346.184326,369.936707 346.962891,368.945984 
	C347.751709,368.295776 348.540527,367.645538 349.627533,366.917542 
z"/>
<path fill="#010103" opacity="1.000000" stroke="none" 
	d="
M378.565796,337.949280 
	C378.806244,340.357513 377.780975,343.014679 380.789459,344.926025 
	C381.357941,345.287140 380.619537,347.705261 380.484161,349.174255 
	C379.041138,348.967987 377.550262,348.923584 376.167236,348.514465 
	C374.439636,348.003479 372.800812,347.192383 370.749512,346.414856 
	C373.000366,343.569031 375.625336,340.819244 378.565796,337.949280 
z"/>
<path fill="#6941A9" opacity="1.000000" stroke="none" 
	d="
M223.808121,421.908691 
	C223.238754,422.366425 222.669403,422.824158 221.702972,423.673584 
	C220.140015,425.346405 218.974152,426.627594 217.808289,427.908752 
	C216.260590,429.346100 214.712891,430.783478 212.748795,432.601105 
	C211.949112,433.075684 211.565826,433.169983 211.182526,433.264282 
	C215.634628,428.585693 220.086716,423.907104 224.852325,419.514038 
	C224.713257,420.502625 224.260681,421.205658 223.808121,421.908691 
z"/>
<path fill="#6941A9" opacity="1.000000" stroke="none" 
	d="
M297.346497,412.211853 
	C294.886871,412.152039 292.771057,412.022949 290.231842,411.714966 
	C291.831421,411.116119 293.840332,410.601562 295.880585,410.297394 
	C299.285553,409.789795 302.710602,409.416748 306.484985,409.273041 
	C306.177826,410.353027 305.512817,411.147003 304.847809,411.940979 
	C304.413452,411.965759 303.979065,411.990570 302.854797,412.056580 
	C301.133301,412.143188 300.101715,412.188599 299.070160,412.233978 
	C298.610229,412.203522 298.150269,412.173065 297.346497,412.211853 
z"/>
<path fill="#784BC0" opacity="1.000000" stroke="none" 
	d="
M443.075348,272.413300 
	C443.326752,272.813477 443.221649,273.150574 442.758850,273.862579 
	C441.271545,275.491486 440.141907,276.745453 439.012299,277.999451 
	C438.727783,278.173889 438.443298,278.348328 437.779907,278.880066 
	C436.271484,280.491425 435.141937,281.745453 434.012421,282.999512 
	C433.676849,283.122253 433.341278,283.245026 432.737610,283.403229 
	C435.885956,279.742523 439.302399,276.046356 443.075348,272.413300 
z"/>
<path fill="#784BC0" opacity="1.000000" stroke="none" 
	d="
M427.983307,288.986237 
	C426.832764,289.906311 425.692261,290.837067 424.241028,291.843079 
	C426.526276,289.062103 429.122314,286.205872 432.076935,283.411041 
	C432.331543,283.808411 432.227600,284.144348 431.802155,284.827271 
	C431.145294,285.602844 430.809937,286.031433 430.474579,286.460022 
	C430.474579,286.460022 430.597015,286.913422 430.271423,286.815491 
	C429.289001,287.469666 428.632141,288.221771 427.975311,288.973877 
	C427.975311,288.973877 427.993378,288.996887 427.983307,288.986237 
z"/>
<path fill="#6941A9" opacity="1.000000" stroke="none" 
	d="
M67.504013,60.118408 
	C69.479103,57.668125 71.806267,55.204441 74.484787,52.709808 
	C72.509445,55.154247 70.182770,57.629631 67.504013,60.118408 
z"/>
<path fill="#784BC0" opacity="1.000000" stroke="none" 
	d="
M423.560608,291.942566 
	C421.810333,294.202454 419.703369,296.473602 417.283264,298.860901 
	C419.048035,296.635986 421.125977,294.294922 423.560608,291.942566 
z"/>
<path fill="#010103" opacity="1.000000" stroke="none" 
	d="
M180.817413,464.205750 
	C180.919540,465.903839 180.760986,467.627472 180.602448,469.351074 
	C179.772064,468.952118 178.941696,468.553162 178.228180,467.548401 
	C178.662125,466.347595 178.979202,465.752594 179.296310,465.157593 
	C179.716461,464.848846 180.136597,464.540070 180.817413,464.205750 
z"/>
<path fill="#6941A9" opacity="1.000000" stroke="none" 
	d="
M207.807953,437.908539 
	C206.914871,438.687286 206.021759,439.466034 204.677673,440.586853 
	C203.995956,440.948395 203.765244,440.967804 203.534546,440.987244 
	C205.214355,439.076874 206.894165,437.166504 208.879456,435.532715 
	C208.725952,436.509003 208.266953,437.208771 207.807953,437.908539 
z"/>
<path fill="#010103" opacity="1.000000" stroke="none" 
	d="
M208.211975,437.922729 
	C208.266953,437.208771 208.725952,436.509003 209.225235,435.494995 
	C209.265518,435.180725 209.602386,434.914520 209.932404,434.741943 
	C210.570526,434.409149 210.665573,434.165741 210.547577,433.839172 
	C210.547577,433.839172 210.912796,433.604248 211.047668,433.434265 
	C211.565826,433.169983 211.949112,433.075684 212.620880,432.893646 
	C213.185516,435.944824 212.309433,438.119568 208.211975,437.922729 
z"/>
<path fill="#6941A9" opacity="1.000000" stroke="none" 
	d="
M112.807472,411.232513 
	C110.586716,411.648407 108.087173,411.773468 105.254608,411.710938 
	C107.457291,411.329468 109.992989,411.135590 112.807472,411.232513 
z"/>
<path fill="#010103" opacity="1.000000" stroke="none" 
	d="
M224.213196,421.922668 
	C224.260681,421.205658 224.713257,420.502625 225.206390,419.486053 
	C225.246964,419.172516 225.595459,418.914856 225.928940,418.742126 
	C226.570526,418.409149 226.665573,418.165741 226.547577,417.839172 
	C226.547577,417.839172 226.907944,417.600830 227.340515,417.410919 
	C228.154526,417.080292 228.535965,416.939575 228.917419,416.798859 
	C229.172653,419.924164 228.319351,422.121857 224.213196,421.922668 
z"/>
<path fill="#6941A9" opacity="1.000000" stroke="none" 
	d="
M229.036407,416.509583 
	C228.535965,416.939575 228.154526,417.080292 227.467255,417.235962 
	C229.062073,415.298462 230.962708,413.345978 233.229126,411.454620 
	C233.420380,411.825226 233.245865,412.134644 232.963608,412.692078 
	C231.622375,414.033478 230.388885,415.126923 229.036407,416.509583 
z"/>
<path fill="#6941A9" opacity="1.000000" stroke="none" 
	d="
M160.902206,483.194458 
	C159.447495,485.157074 157.641739,487.146057 155.500900,489.195129 
	C156.960938,487.243713 158.756058,485.232269 160.902206,483.194458 
z"/>
<path fill="#6941A9" opacity="1.000000" stroke="none" 
	d="
M96.820023,411.236572 
	C94.594543,411.652344 92.101349,411.781921 89.208893,411.722534 
	C91.390518,411.339172 93.971420,411.144806 96.820023,411.236572 
z"/>
<path fill="#010103" opacity="1.000000" stroke="none" 
	d="
M364.024323,353.094391 
	C364.140320,356.148895 363.091339,358.147064 359.225708,357.942505 
	C359.431091,357.126923 360.032257,356.318939 361.097900,355.193115 
	C362.383026,354.281647 363.203674,353.688019 364.024323,353.094391 
z"/>
<path fill="#784BC0" opacity="1.000000" stroke="none" 
	d="
M458.849762,255.851685 
	C460.306091,254.254898 461.762421,252.658127 463.532562,250.955353 
	C463.969055,250.964386 464.091766,251.079437 464.261597,251.640656 
	C463.695312,252.885880 463.081970,253.684921 462.468628,254.483948 
	C462.468597,254.483948 462.763367,254.804108 462.345642,254.766052 
	C461.145142,255.335266 460.362335,255.942551 459.396973,256.375397 
	C459.092896,256.084564 458.971313,255.968124 458.849762,255.851685 
z"/>
<path fill="#784BC0" opacity="1.000000" stroke="none" 
	d="
M446.009644,271.002380 
	C445.357483,271.431610 444.705353,271.860809 443.765442,272.359619 
	C444.714752,270.640045 445.951874,268.850861 447.697052,267.133911 
	C448.324493,267.325287 448.443878,267.444366 448.422607,267.839050 
	C447.524536,269.077209 446.767090,270.039795 446.009644,271.002380 
z"/>
<path fill="#784BC0" opacity="1.000000" stroke="none" 
	d="
M450.845642,263.847290 
	C452.301178,262.250549 453.756714,260.653778 455.708679,259.130920 
	C456.324921,259.323853 456.444733,259.442871 456.413788,259.847656 
	C454.702209,261.605194 453.141418,263.077026 451.396790,264.373596 
	C451.090515,264.081299 450.968079,263.964294 450.845642,263.847290 
z"/>
<path fill="#010103" opacity="1.000000" stroke="none" 
	d="
M357.614227,358.929321 
	C357.962494,361.786530 356.695923,363.637360 353.210022,363.926086 
	C354.317963,362.299347 355.805878,360.663879 357.614227,358.929321 
z"/>
<path fill="#010103" opacity="1.000000" stroke="none" 
	d="
M330.569153,385.939209 
	C330.985748,388.801483 329.717987,390.621613 326.240845,390.905701 
	C327.327484,389.288452 328.792175,387.669006 330.569153,385.939209 
z"/>
<path fill="#010103" opacity="1.000000" stroke="none" 
	d="
M305.226746,411.929291 
	C305.512817,411.147003 306.177826,410.353027 306.904907,409.249390 
	C307.756714,408.289246 308.546448,407.638763 309.635254,406.909393 
	C309.963196,409.778564 308.704224,411.630768 305.226746,411.929291 
z"/>
<path fill="#010103" opacity="1.000000" stroke="none" 
	d="
M370.009644,346.490295 
	C370.954254,349.434143 369.248505,350.562256 366.213928,350.925537 
	C367.122589,349.489258 368.415070,348.043701 370.009644,346.490295 
z"/>
<path fill="#784BC0" opacity="1.000000" stroke="none" 
	d="
M416.630859,298.969543 
	C415.814911,300.259186 414.654541,301.547943 413.170197,302.919922 
	C413.992950,301.658295 415.139679,300.313507 416.630859,298.969543 
z"/>
<path fill="#6B43AB" opacity="1.000000" stroke="none" 
	d="
M395.951355,319.990051 
	C397.042572,318.632812 398.133820,317.275604 399.548553,316.232361 
	C399.429871,317.236572 398.987701,317.926788 398.545532,318.616974 
	C398.545502,318.616974 398.625854,318.623627 398.337585,318.702393 
	C397.350006,319.184143 396.650665,319.587097 395.951355,319.990051 
z"/>
<path fill="#010103" opacity="1.000000" stroke="none" 
	d="
M203.367493,441.191284 
	C203.765244,440.967804 203.995956,440.948395 204.568115,440.866699 
	C203.793594,442.170227 202.677658,443.536011 201.226852,444.583679 
	C200.903809,444.045959 200.915619,443.826385 200.927444,443.606842 
	C201.685120,442.869690 202.442795,442.132538 203.367493,441.191284 
z"/>
<path fill="#6941A9" opacity="1.000000" stroke="none" 
	d="
M200.667145,443.513245 
	C200.915619,443.826385 200.903809,444.045959 200.844360,444.591797 
	C199.808014,445.659424 198.819305,446.400848 197.521271,447.179749 
	C198.276901,445.951385 199.341873,444.685516 200.667145,443.513245 
z"/>
<path fill="#6941A9" opacity="1.000000" stroke="none" 
	d="
M318.106079,399.029694 
	C317.590393,399.325073 317.074707,399.620453 316.262085,399.958130 
	C317.069031,398.650146 318.172882,397.299805 319.582336,396.257263 
	C319.293945,397.386566 318.700012,398.208130 318.106079,399.029694 
z"/>
<path fill="#010103" opacity="1.000000" stroke="none" 
	d="
M314.617493,401.926575 
	C313.820190,403.191162 312.705719,404.552063 311.210632,405.923889 
	C311.986786,404.630859 313.143524,403.326904 314.617493,401.926575 
z"/>
<path fill="#6941A9" opacity="1.000000" stroke="none" 
	d="
M99.504341,28.116585 
	C100.239586,26.812927 101.327179,25.494101 102.739517,24.109781 
	C101.995071,25.396664 100.925880,26.749039 99.504341,28.116585 
z"/>
<path fill="#010103" opacity="1.000000" stroke="none" 
	d="
M325.631897,390.915527 
	C324.882172,392.227081 323.856201,393.592560 322.578827,394.708282 
	C322.883453,393.626251 323.439484,392.793945 323.995544,391.961639 
	C324.448883,391.630890 324.902283,391.300140 325.631897,390.915527 
z"/>
<path fill="#6941A9" opacity="1.000000" stroke="none" 
	d="
M75.505493,52.116234 
	C76.150887,51.003262 77.149826,49.874699 78.487793,48.705994 
	C77.837563,49.810783 76.848297,50.955719 75.505493,52.116234 
z"/>
<path fill="#6941A9" opacity="1.000000" stroke="none" 
	d="
M107.412445,20.070234 
	C108.085747,18.951475 109.117157,17.848541 110.485397,16.706221 
	C109.805008,17.806576 108.787781,18.946320 107.412445,20.070234 
z"/>
<path fill="#784BC0" opacity="1.000000" stroke="none" 
	d="
M448.025909,267.027710 
	C448.644440,265.918610 449.442200,264.988007 450.542786,263.952362 
	C450.968079,263.964294 451.090515,264.081299 451.259827,264.617554 
	C451.025360,265.512939 450.743988,265.989044 450.462646,266.465179 
	C450.642975,266.634155 450.823334,266.803101 450.478149,266.816467 
	C449.489471,266.961731 449.026367,267.262604 448.563232,267.563477 
	C448.443878,267.444366 448.324493,267.325287 448.025909,267.027710 
z"/>
<path fill="#6941A9" opacity="1.000000" stroke="none" 
	d="
M57.024361,70.780807 
	C57.505703,69.828056 58.341812,68.833374 59.513298,67.769577 
	C59.025494,68.713272 58.202316,69.726067 57.024361,70.780807 
z"/>
<path fill="#6941A9" opacity="1.000000" stroke="none" 
	d="
M175.910873,468.180786 
	C175.439606,469.160797 174.616669,470.140961 173.468689,471.175354 
	C173.948837,470.213348 174.754028,469.197113 175.910873,468.180786 
z"/>
<path fill="#6941A9" opacity="1.000000" stroke="none" 
	d="
M149.881683,494.157654 
	C149.437408,495.135712 148.647018,496.126404 147.534317,497.167297 
	C147.986511,496.201752 148.761047,495.186005 149.881683,494.157654 
z"/>
<path fill="#784BC0" opacity="1.000000" stroke="none" 
	d="
M456.025330,259.026489 
	C456.645630,257.920410 457.445801,256.992737 458.547852,255.958389 
	C458.971313,255.968124 459.092896,256.084564 459.237396,256.638062 
	C458.361755,257.904053 457.463135,258.732971 456.564545,259.561890 
	C456.444733,259.442871 456.324921,259.323853 456.025330,259.026489 
z"/>
<path fill="#010103" opacity="1.000000" stroke="none" 
	d="
M318.454224,398.981079 
	C318.700012,398.208130 319.293945,397.386566 319.943542,396.260834 
	C319.999176,395.956665 320.458405,395.824127 320.697357,395.826263 
	C320.224976,396.863098 319.513641,397.897797 318.454224,398.981079 
z"/>
<path fill="#6941A9" opacity="1.000000" stroke="none" 
	d="
M104.394218,23.062393 
	C104.835945,22.091944 105.626808,21.120378 106.736176,20.101498 
	C106.284248,21.056549 105.513802,22.058914 104.394218,23.062393 
z"/>
<path fill="#6941A9" opacity="1.000000" stroke="none" 
	d="
M323.644958,391.963654 
	C323.439484,392.793945 322.883453,393.626251 322.217560,394.743408 
	C321.917358,395.038605 321.727051,395.048981 321.252319,395.028198 
	C321.743408,393.986603 322.518890,392.976135 323.644958,391.963654 
z"/>
<path fill="#010103" opacity="1.000000" stroke="none" 
	d="
M334.134552,383.116699 
	C333.294922,384.057617 332.417969,384.967743 331.186523,385.883301 
	C331.111481,385.418549 331.390900,384.948364 332.104797,384.199158 
	C333.034027,383.621246 333.528717,383.322357 334.023438,383.023438 
	C334.023438,383.023438 334.097229,383.085938 334.134552,383.116699 
z"/>
<path fill="#6941A9" opacity="1.000000" stroke="none" 
	d="
M334.139404,382.757385 
	C333.528717,383.322357 333.034027,383.621246 332.250488,383.957764 
	C332.738739,382.985748 333.515778,381.976105 334.644043,380.964142 
	C334.748657,381.471680 334.502045,381.981537 334.139404,382.757385 
z"/>
<path fill="#6941A9" opacity="1.000000" stroke="none" 
	d="
M346.612488,368.956146 
	C346.184326,369.936707 345.405823,370.927460 344.309662,371.980103 
	C344.748749,371.016785 345.505432,369.991547 346.612488,368.956146 
z"/>
<path fill="#6941A9" opacity="1.000000" stroke="none" 
	d="
M243.046509,411.283081 
	C242.302383,411.649963 241.410309,411.767273 240.222015,411.704407 
	C240.916718,411.360657 241.907654,411.197052 243.046509,411.283081 
z"/>
<path fill="#6B43AB" opacity="1.000000" stroke="none" 
	d="
M364.037903,352.810638 
	C363.203674,353.688019 362.383026,354.281647 361.258942,354.931213 
	C361.732483,353.981476 362.509460,352.975800 363.637360,351.966187 
	C364.009369,352.150452 364.030426,352.338684 364.037903,352.810638 
z"/>
<path fill="#6941A9" opacity="1.000000" stroke="none" 
	d="
M81.463120,46.093132 
	C81.908897,45.130329 82.694481,44.148479 83.806618,43.158974 
	C83.356422,44.125576 82.579681,45.099831 81.463120,46.093132 
z"/>
<path fill="#010103" opacity="1.000000" stroke="none" 
	d="
M172.814285,472.917206 
	C172.350693,473.582550 171.887100,474.247864 171.072327,474.641449 
	C170.662964,474.194641 170.604797,474.019562 170.546631,473.844452 
	C170.861816,473.608398 171.177002,473.372345 171.913300,472.980469 
	C172.334412,472.824707 172.814285,472.917206 172.814285,472.917206 
z"/>
<path fill="#010103" opacity="1.000000" stroke="none" 
	d="
M185.510193,459.534454 
	C185.306244,460.187775 184.782578,460.963165 184.137619,461.506348 
	C184.407715,460.734924 184.799103,460.195709 185.510193,459.534454 
z"/>
<path fill="#010103" opacity="1.000000" stroke="none" 
	d="
M395.887848,320.222290 
	C396.650665,319.587097 397.350006,319.184143 398.332397,318.662415 
	C397.926666,319.328400 397.237885,320.113129 396.188904,320.916962 
	C395.828705,320.936035 395.824341,320.454529 395.887848,320.222290 
z"/>
<path fill="#010103" opacity="1.000000" stroke="none" 
	d="
M398.906494,318.606750 
	C398.987701,317.926788 399.429871,317.236572 399.908386,316.237427 
	C400.108093,315.892944 400.271484,315.857422 400.685608,315.825134 
	C400.380035,316.751099 399.823761,317.673798 398.906494,318.606750 
z"/>
<path fill="#6941A9" opacity="1.000000" stroke="none" 
	d="
M88.463615,39.078156 
	C88.801880,38.324215 89.480400,37.536293 90.486679,36.699539 
	C90.144249,37.448532 89.474068,38.246357 88.463615,39.078156 
z"/>
<path fill="#6941A9" opacity="1.000000" stroke="none" 
	d="
M42.933044,411.289703 
	C42.474792,411.649506 41.862839,411.774231 41.082581,411.711578 
	C41.535957,411.367676 42.157646,411.211121 42.933044,411.289703 
z"/>
<path fill="#6941A9" opacity="1.000000" stroke="none" 
	d="
M196.884399,447.228546 
	C196.737305,447.867981 196.262985,448.518829 195.476944,449.212646 
	C195.629181,448.583710 196.093170,447.911835 196.884399,447.228546 
z"/>
<path fill="#6941A9" opacity="1.000000" stroke="none" 
	d="
M191.883377,452.234070 
	C191.729691,452.861359 191.246918,453.500397 190.453766,454.184631 
	C190.613678,453.568481 191.083984,452.907166 191.883377,452.234070 
z"/>
<path fill="#6941A9" opacity="1.000000" stroke="none" 
	d="
M65.005920,62.766090 
	C65.171379,62.145241 65.673531,61.467262 66.512726,60.744293 
	C66.347397,61.369186 65.845009,62.039070 65.005920,62.766090 
z"/>
<path fill="#6941A9" opacity="1.000000" stroke="none" 
	d="
M178.951599,465.183960 
	C178.979202,465.752594 178.662125,466.347595 178.182480,467.243195 
	C178.019928,467.543793 177.574814,467.472534 177.364075,467.392120 
	C177.637848,466.611237 178.122391,465.910767 178.951599,465.183960 
z"/>
<path fill="#6941A9" opacity="1.000000" stroke="none" 
	d="
M93.017563,34.789787 
	C93.169846,34.139957 93.657860,33.446667 94.486496,32.709503 
	C94.335838,33.359196 93.844559,34.052761 93.017563,34.789787 
z"/>
<path fill="#6941A9" opacity="1.000000" stroke="none" 
	d="
M97.002846,30.764954 
	C97.163628,30.128162 97.658051,29.433014 98.494492,28.708187 
	C98.336494,29.354536 97.836494,30.030567 97.002846,30.764954 
z"/>
<path fill="#6941A9" opacity="1.000000" stroke="none" 
	d="
M168.924774,475.210693 
	C168.762024,475.821350 168.270462,476.474884 167.461121,477.179108 
	C167.627533,476.571045 168.111740,475.912292 168.924774,475.210693 
z"/>
<path fill="#6941A9" opacity="1.000000" stroke="none" 
	d="
M164.898132,479.174103 
	C164.752701,479.815857 164.277084,480.486938 163.483276,481.206787 
	C163.632721,480.571503 164.100342,479.887451 164.898132,479.174103 
z"/>
<path fill="#6941A9" opacity="1.000000" stroke="none" 
	d="
M152.924713,491.210632 
	C152.761948,491.821350 152.270355,492.474884 151.460953,493.179047 
	C151.627380,492.570923 152.111633,491.912201 152.924713,491.210632 
z"/>
<path fill="#6941A9" opacity="1.000000" stroke="none" 
	d="
M121.002930,6.765190 
	C121.166428,6.137769 121.663651,5.452292 122.498398,4.722846 
	C122.336174,5.354962 121.836411,6.031048 121.002930,6.765190 
z"/>
<path fill="#6941A9" opacity="1.000000" stroke="none" 
	d="
M48.939667,78.734177 
	C48.935287,78.292595 49.213116,77.757507 49.805759,77.201775 
	C49.821011,77.667641 49.521442,78.154152 48.939667,78.734177 
z"/>
<path fill="#6941A9" opacity="1.000000" stroke="none" 
	d="
M112.939613,14.734149 
	C112.935287,14.292614 113.213104,13.757516 113.805740,13.201780 
	C113.820961,13.667623 113.521362,14.154104 112.939613,14.734149 
z"/>
<path fill="#6941A9" opacity="1.000000" stroke="none" 
	d="
M61.176384,411.343689 
	C60.969048,411.599243 60.733696,411.665466 60.144722,411.632385 
	C60.243523,411.406830 60.695950,411.280579 61.176384,411.343689 
z"/>
<path fill="#6941A9" opacity="1.000000" stroke="none" 
	d="
M279.176392,411.343689 
	C278.969025,411.599243 278.733673,411.665466 278.144745,411.632385 
	C278.243561,411.406860 278.695953,411.280579 279.176392,411.343689 
z"/>
<path fill="#6941A9" opacity="1.000000" stroke="none" 
	d="
M261.176392,411.343689 
	C260.969025,411.599243 260.733673,411.665466 260.144745,411.632385 
	C260.243561,411.406830 260.695953,411.280579 261.176392,411.343689 
z"/>
<path fill="#6941A9" opacity="1.000000" stroke="none" 
	d="
M258.173553,411.344574 
	C257.965820,411.614990 257.732513,411.696655 257.149597,411.653137 
	C257.249298,411.403900 257.698639,411.279846 258.173553,411.344574 
z"/>
<path fill="#6941A9" opacity="1.000000" stroke="none" 
	d="
M264.176056,411.346588 
	C263.968292,411.610321 263.734283,411.684845 263.149292,411.645538 
	C263.248840,411.406921 263.699310,411.282135 264.176056,411.346588 
z"/>
<path fill="#6941A9" opacity="1.000000" stroke="none" 
	d="
M267.173553,411.344543 
	C266.965820,411.614990 266.732513,411.696655 266.149597,411.653137 
	C266.249298,411.403870 266.698639,411.279846 267.173553,411.344543 
z"/>
<path fill="#6941A9" opacity="1.000000" stroke="none" 
	d="
M270.176392,411.343689 
	C269.969025,411.599243 269.733673,411.665466 269.144745,411.632385 
	C269.243561,411.406860 269.695953,411.280579 270.176392,411.343689 
z"/>
<path fill="#6941A9" opacity="1.000000" stroke="none" 
	d="
M273.176056,411.346558 
	C272.968292,411.610321 272.734283,411.684845 272.149292,411.645508 
	C272.248810,411.406921 272.699310,411.282135 273.176056,411.346558 
z"/>
<path fill="#6941A9" opacity="1.000000" stroke="none" 
	d="
M255.175964,411.346588 
	C254.968201,411.610321 254.734192,411.684845 254.149231,411.645508 
	C254.248779,411.406891 254.699249,411.282135 255.175964,411.346588 
z"/>
<path fill="#6941A9" opacity="1.000000" stroke="none" 
	d="
M276.173553,411.344543 
	C275.965820,411.614990 275.732513,411.696655 275.149597,411.653137 
	C275.249298,411.403870 275.698639,411.279816 276.173553,411.344543 
z"/>
<path fill="#6941A9" opacity="1.000000" stroke="none" 
	d="
M252.176407,411.343689 
	C251.969070,411.599243 251.733719,411.665466 251.144745,411.632385 
	C251.243546,411.406830 251.695969,411.280579 252.176407,411.343689 
z"/>
<path fill="#6941A9" opacity="1.000000" stroke="none" 
	d="
M282.176056,411.346558 
	C281.968292,411.610321 281.734283,411.684845 281.149292,411.645508 
	C281.248810,411.406921 281.699310,411.282135 282.176056,411.346558 
z"/>
<path fill="#6941A9" opacity="1.000000" stroke="none" 
	d="
M285.173553,411.344543 
	C284.965820,411.614990 284.732513,411.696655 284.149597,411.653137 
	C284.249298,411.403870 284.698639,411.279846 285.173553,411.344543 
z"/>
<path fill="#6941A9" opacity="1.000000" stroke="none" 
	d="
M288.169098,411.339478 
	C287.964020,411.611359 287.731232,411.694824 287.147766,411.655823 
	C287.245209,411.405914 287.693298,411.278473 288.169098,411.339478 
z"/>
<path fill="#6941A9" opacity="1.000000" stroke="none" 
	d="
M249.173553,411.344574 
	C248.965836,411.614990 248.732529,411.696655 248.149628,411.653137 
	C248.249359,411.403900 248.698669,411.279846 249.173553,411.344574 
z"/>
<path fill="#6941A9" opacity="1.000000" stroke="none" 
	d="
M58.173538,411.344543 
	C57.965832,411.614990 57.732525,411.696655 57.149628,411.653137 
	C57.249336,411.403870 57.698635,411.279816 58.173538,411.344543 
z"/>
<path fill="#6941A9" opacity="1.000000" stroke="none" 
	d="
M55.175934,411.346588 
	C54.968185,411.610321 54.734177,411.684845 54.149239,411.645508 
	C54.248768,411.406921 54.699223,411.282135 55.175934,411.346588 
z"/>
<path fill="#6941A9" opacity="1.000000" stroke="none" 
	d="
M246.175964,411.346588 
	C245.968201,411.610321 245.734192,411.684845 245.149231,411.645508 
	C245.248779,411.406921 245.699249,411.282135 246.175964,411.346588 
z"/>
<path fill="#6941A9" opacity="1.000000" stroke="none" 
	d="
M63.664104,411.388184 
	C63.613945,411.524414 63.486427,411.626862 63.421097,411.576843 
	C63.355762,411.526825 63.377354,411.162598 63.377354,411.162598 
	C63.377354,411.162598 63.714264,411.251923 63.664104,411.388184 
z"/>
<path fill="#6941A9" opacity="1.000000" stroke="none" 
	d="
M51.671787,411.384216 
	C51.627407,411.522186 51.489723,411.630737 51.421349,411.575378 
	C51.352978,411.520050 51.376926,411.157715 51.376926,411.157715 
	C51.376926,411.157715 51.716167,411.246277 51.671787,411.384216 
z"/>
<path fill="#6941A9" opacity="1.000000" stroke="none" 
	d="
M170.351364,473.856018 
	C170.604797,474.019562 170.662964,474.194641 170.768677,474.642212 
	C170.650574,474.866699 170.484924,474.818665 170.088135,474.654114 
	C169.788300,474.239105 169.888016,474.015747 170.351364,473.856018 
z"/>
<path fill="#6941A9" opacity="1.000000" stroke="none" 
	d="
M172.766907,472.646729 
	C172.814285,472.917206 172.334412,472.824707 172.101059,472.751892 
	C171.789246,472.374664 171.877426,472.130280 172.334198,471.902252 
	C172.597290,472.031158 172.658417,472.203705 172.766907,472.646729 
z"/>
<path fill="#6941A9" opacity="1.000000" stroke="none" 
	d="
M186.351135,457.858887 
	C186.670914,458.172974 186.573730,458.421387 186.045776,458.579926 
	C185.762253,458.262390 185.868637,458.030090 186.351135,457.858887 
z"/>
<path fill="#6941A9" opacity="1.000000" stroke="none" 
	d="
M192.996490,451.241577 
	C193.094940,451.488556 192.934372,451.811676 192.492538,452.178772 
	C192.386688,451.921021 192.562088,451.619385 192.996490,451.241577 
z"/>
<path fill="#6941A9" opacity="1.000000" stroke="none" 
	d="
M210.347931,433.854614 
	C210.665573,434.165741 210.570526,434.409149 210.048248,434.561218 
	C209.770477,434.247986 209.875214,434.020325 210.347931,433.854614 
z"/>
<path fill="#010103" opacity="1.000000" stroke="none" 
	d="
M379.643677,336.868439 
	C379.703827,337.072601 379.475586,337.353241 379.025909,337.794525 
	C378.988068,337.618378 379.171692,337.281647 379.643677,336.868439 
z"/>
<path fill="#6941A9" opacity="1.000000" stroke="none" 
	d="
M226.347992,417.854675 
	C226.665573,418.165741 226.570526,418.409149 226.048248,418.561218 
	C225.770721,418.248108 225.875504,418.020477 226.347992,417.854675 
z"/>
<path fill="#010103" opacity="1.000000" stroke="none" 
	d="
M456.413788,259.847656 
	C457.463135,258.732971 458.361755,257.904053 459.419922,256.812500 
	C460.362335,255.942551 461.145142,255.335266 462.193787,254.602386 
	C462.467499,255.929703 463.071777,258.185272 462.381287,258.698303 
	C459.180573,261.076538 458.514191,263.285583 461.464874,266.305054 
	C461.725891,266.572144 461.055267,268.408905 460.420685,268.728149 
	C459.591675,269.145203 458.315399,268.969269 457.323456,268.704346 
	C455.288910,268.160919 453.315582,267.388367 450.889832,266.587646 
	C450.743988,265.989044 451.025360,265.512939 451.443665,264.792847 
	C453.141418,263.077026 454.702209,261.605194 456.413788,259.847656 
z"/>
<path fill="#010103" opacity="1.000000" stroke="none" 
	d="
M364.777283,359.664856 
	C367.052185,362.744781 365.760162,366.296448 362.493469,366.386169 
	C361.830841,366.404388 360.342621,364.133392 360.563049,363.802521 
	C361.609192,362.232391 363.115051,360.968536 364.777283,359.664856 
z"/>
<path fill="#010103" opacity="1.000000" stroke="none" 
	d="
M328.911469,396.896362 
	C327.476593,393.820923 329.049103,392.602112 331.486328,392.351532 
	C332.148407,392.283508 332.949585,393.568695 333.686920,394.232788 
	C332.172577,395.204803 330.658234,396.176788 328.911469,396.896362 
z"/>
<path fill="#010103" opacity="1.000000" stroke="none" 
	d="
M318.227234,411.372925 
	C316.739258,412.266907 315.397339,412.844971 314.055450,413.423035 
	C313.849823,412.687439 313.243774,411.549744 313.508331,411.286285 
	C314.613586,410.185608 315.980316,409.347443 317.251190,408.413055 
	C317.625244,409.294342 317.999268,410.175629 318.227234,411.372925 
z"/>
<path fill="#010103" opacity="1.000000" stroke="none" 
	d="
M344.928467,376.360107 
	C346.460297,376.679718 347.920593,377.359436 349.380859,378.039124 
	C348.169067,379.404846 346.957275,380.770599 345.745453,382.136353 
	C345.246399,381.836853 344.747314,381.537354 344.248260,381.237854 
	C344.451141,379.731995 344.654022,378.226105 344.928467,376.360107 
z"/>
<path fill="#010103" opacity="1.000000" stroke="none" 
	d="
M441.953094,280.847656 
	C443.338593,280.908112 444.434265,281.167694 445.529938,281.427307 
	C445.009552,282.547302 444.734406,283.946869 443.885071,284.691895 
	C443.289917,285.213928 441.911133,284.842621 440.882324,284.870270 
	C441.142639,283.595795 441.402954,282.321289 441.953094,280.847656 
z"/>
<path fill="#010103" opacity="1.000000" stroke="none" 
	d="
M448.422607,267.839050 
	C449.026367,267.262604 449.489471,266.961731 450.208252,266.560883 
	C451.007904,269.497375 451.422333,272.431610 446.335052,271.142944 
	C446.767090,270.039795 447.524536,269.077209 448.422607,267.839050 
z"/>
<path fill="#010103" opacity="1.000000" stroke="none" 
	d="
M218.206543,427.918671 
	C218.974152,426.627594 220.140015,425.346405 221.607269,423.936890 
	C222.096161,426.215363 221.559250,428.041260 218.206543,427.918671 
z"/>
<path fill="#010103" opacity="1.000000" stroke="none" 
	d="
M434.374725,282.973999 
	C435.141937,281.745453 436.271484,280.491425 437.700226,279.124847 
	C436.911987,280.324371 435.824493,281.636414 434.374725,282.973999 
z"/>
<path fill="#010103" opacity="1.000000" stroke="none" 
	d="
M439.374634,277.973969 
	C440.141907,276.745453 441.271545,275.491486 442.700378,274.124939 
	C441.912048,275.324402 440.824524,276.636444 439.374634,277.973969 
z"/>
<path fill="#010103" opacity="1.000000" stroke="none" 
	d="
M462.874573,254.527039 
	C463.081970,253.684921 463.695312,252.885880 464.445892,251.812927 
	C464.813965,251.231613 465.044769,250.924194 465.491974,250.421173 
	C464.899078,251.673752 464.089813,253.121948 462.874573,254.527039 
z"/>
<path fill="#010103" opacity="1.000000" stroke="none" 
	d="
M427.028381,297.315857 
	C427.832977,297.538879 428.665924,298.077759 429.498871,298.616669 
	C429.163483,298.971375 428.828064,299.326080 428.492645,299.680786 
	C428.014008,298.997772 427.535370,298.314758 427.028381,297.315857 
z"/>
<path fill="#010103" opacity="1.000000" stroke="none" 
	d="
M428.328247,288.941956 
	C428.632141,288.221771 429.289001,287.469666 430.219055,286.589661 
	C429.888580,287.277802 429.284882,288.093903 428.328247,288.941956 
z"/>
<path fill="#010103" opacity="1.000000" stroke="none" 
	d="
M299.323120,412.389130 
	C300.101715,412.188599 301.133301,412.143188 302.547180,412.166016 
	C301.811707,412.337585 300.693878,412.440918 299.323120,412.389130 
z"/>
<path fill="#010103" opacity="1.000000" stroke="none" 
	d="
M430.745972,286.528320 
	C430.809937,286.031433 431.145294,285.602844 431.744751,285.088776 
	C431.678375,285.534393 431.347870,286.065491 430.745972,286.528320 
z"/>
<path fill="#8D47F5" opacity="1.000000" stroke="none" 
	d="
M242.132416,111.029037 
	C242.132385,99.267097 242.132385,99.268860 253.224289,99.236359 
	C260.036957,99.216393 266.850525,99.247337 273.661835,99.139343 
	C276.527130,99.093925 277.820404,100.009323 277.810944,103.154373 
	C277.709534,136.927643 277.724152,170.701263 277.695740,204.474777 
	C277.695496,204.791153 277.542755,205.107391 277.319275,205.974380 
	C275.556488,206.062714 273.625183,206.233612 271.693054,206.243195 
	C264.206543,206.280350 256.719818,206.277649 249.233154,206.267761 
	C242.134628,206.258392 242.132874,206.246262 242.132706,199.368454 
	C242.131989,170.086624 242.132401,140.804779 242.132416,111.029037 
z"/>
<path fill="#8D47F6" opacity="1.000000" stroke="none" 
	d="
M352.021179,206.265900 
	C340.243469,206.237381 340.240417,206.237381 340.243408,195.079178 
	C340.251495,164.964493 340.342560,134.849380 340.182770,104.735603 
	C340.159790,100.402367 341.261902,98.930267 345.770691,99.116287 
	C354.395416,99.472130 363.047974,99.257805 371.686462,99.121674 
	C374.887939,99.071220 376.056152,100.269592 376.048187,103.514114 
	C375.966980,136.623779 375.999664,169.733704 375.977600,202.843552 
	C375.976959,203.799072 375.723969,204.754410 375.508728,206.274109 
	C367.733032,206.274109 360.124786,206.274109 352.021179,206.265900 
z"/>
</svg>